<svg xmlns="http://www.w3.org/2000/svg" viewBox="0 0 463 421" preserveAspectRatio="xMidYMid meet">
  <g fill="#cbe0df">
    <path fill="var(--fill-color)" d="M207.97 849.62a3.45 3.45 0 0 1 .42-4.85l84.4-70.82a3.44 3.44 0 1 1 4.42 5.28l-84.4 70.81a3.45 3.45 0 0 1-4.84-.42Zm94.94-79.67a3.45 3.45 0 0 1 .42-4.85l31.65-26.55a3.45 3.45 0 0 1 4.43 5.27l-31.65 26.56a3.45 3.45 0 0 1-4.85-.43Zm42.2-35.4a3.45 3.45 0 0 1 .42-4.85l84.4-70.82a3.44 3.44 0 1 1 4.42 5.27l-84.4 70.82a3.45 3.45 0 0 1-4.84-.43Zm94.94-79.67a3.44 3.44 0 0 1 .43-4.85l31.64-26.56a3.44 3.44 0 1 1 4.43 5.28L444.9 655.3a3.45 3.45 0 0 1-4.85-.42Zm42.2-35.4a3.45 3.45 0 0 1 .42-4.86l84.4-70.82a3.44 3.44 0 0 1 4.42 5.28l-84.4 70.81a3.45 3.45 0 0 1-4.84-.42Zm94.94-79.68a3.45 3.45 0 0 1 .43-4.85l31.64-26.55a3.45 3.45 0 0 1 4.43 5.27l-31.65 26.56a3.45 3.45 0 0 1-4.85-.43Zm42.2-35.4a3.44 3.44 0 0 1 .42-4.85l84.4-70.82a3.44 3.44 0 1 1 4.42 5.27l-84.4 70.82a3.44 3.44 0 0 1-4.84-.42Zm94.94-79.67a3.44 3.44 0 0 1 .43-4.85l31.64-26.56a3.44 3.44 0 1 1 4.43 5.28l-31.65 26.55a3.45 3.45 0 0 1-4.85-.42Zm42.2-35.4a3.45 3.45 0 0 1 .42-4.86l84.4-70.81a3.44 3.44 0 0 1 4.42 5.27l-84.39 70.82a3.44 3.44 0 0 1-4.85-.43Zm94.94-79.68a3.45 3.45 0 0 1 .43-4.85l31.64-26.55a3.45 3.45 0 0 1 4.43 5.27l-31.65 26.56a3.45 3.45 0 0 1-4.85-.43Zm42.2-35.4a3.44 3.44 0 0 1 .43-4.85l84.39-70.82a3.44 3.44 0 0 1 4.42 5.28l-84.39 70.81a3.45 3.45 0 0 1-4.85-.42Zm94.94-79.67a3.45 3.45 0 0 1 .43-4.85l31.65-26.56a3.44 3.44 0 1 1 4.42 5.28L993.46 195a3.45 3.45 0 0 1-4.85-.42Zm42.2-35.4a3.42 3.42 0 0 1 .43-4.86l12.65-10.62a3.46 3.46 0 0 1 4.85.42 3.43 3.43 0 0 1-.42 4.85l-12.66 10.63a3.44 3.44 0 0 1-4.85-.43ZM206.91 850.5a4.82 4.82 0 0 0 6.8.6l84.39-70.82a4.83 4.83 0 0 0-6.2-7.38l-84.4 70.82a4.82 4.82 0 0 0-.59 6.78Zm94.95-79.66a4.82 4.82 0 0 0 6.79.6l31.64-26.56a4.82 4.82 0 1 0-6.2-7.39l-31.64 26.56a4.82 4.82 0 0 0-.6 6.79Zm42.2-35.41a4.82 4.82 0 0 0 6.78.6l84.4-70.82a4.82 4.82 0 1 0-6.2-7.38l-84.4 70.81a4.82 4.82 0 0 0-.59 6.79ZM439 655.76a4.82 4.82 0 0 0 6.79.6l31.64-26.56a4.82 4.82 0 0 0-6.2-7.38l-31.64 26.55a4.82 4.82 0 0 0-.6 6.8Zm42.2-35.4a4.82 4.82 0 0 0 6.78.59l84.4-70.82a4.82 4.82 0 1 0-6.2-7.38l-84.4 70.82a4.83 4.83 0 0 0-.59 6.79Zm94.94-79.67a4.82 4.82 0 0 0 6.79.6l31.65-26.56a4.82 4.82 0 1 0-6.2-7.39l-31.65 26.56a4.82 4.82 0 0 0-.6 6.79Zm42.2-35.4a4.83 4.83 0 0 0 6.78.58l84.4-70.81a4.82 4.82 0 1 0-6.2-7.38l-84.4 70.81a4.82 4.82 0 0 0-.59 6.8Zm94.94-79.68a4.82 4.82 0 0 0 6.79.6l31.65-26.56a4.82 4.82 0 0 0-6.2-7.38l-31.65 26.55a4.83 4.83 0 0 0-.6 6.8Zm42.2-35.4a4.82 4.82 0 0 0 6.78.6l84.4-70.82a4.82 4.82 0 0 0-6.2-7.39l-84.4 70.82a4.82 4.82 0 0 0-.58 6.79Zm94.94-79.67a4.82 4.82 0 0 0 6.79.6l31.65-26.56a4.82 4.82 0 0 0-6.2-7.39l-31.65 26.56a4.82 4.82 0 0 0-.6 6.79Zm42.2-35.4a4.82 4.82 0 0 0 6.79.59l84.39-70.82a4.82 4.82 0 0 0-6.2-7.38l-84.4 70.81a4.82 4.82 0 0 0-.59 6.8Zm94.94-79.67a4.82 4.82 0 0 0 6.79.59L1026 169.5a4.8 4.8 0 0 0-2.68-8.49 4.83 4.83 0 0 0-3.52 1.1l-31.65 26.56a4.82 4.82 0 0 0-.6 6.8Zm42.2-35.41a4.8 4.8 0 0 0 6.79.6l12.66-10.63a4.84 4.84 0 0 0 .59-6.8 4.82 4.82 0 0 0-6.79-.58l-12.66 10.62a4.8 4.8 0 0 0-.59 6.79ZM192.03 830.63a3.45 3.45 0 0 1 .43-4.85l147.69-123.92a3.45 3.45 0 0 1 4.43 5.27l-147.7 123.93a3.45 3.45 0 0 1-4.84-.43Zm158.24-132.78a3.45 3.45 0 0 1 .43-4.85l116.04-97.37a3.44 3.44 0 0 1 4.43 5.28l-116.05 97.37a3.45 3.45 0 0 1-4.85-.43Zm126.6-106.22a3.44 3.44 0 0 1 .42-4.85l147.69-123.93a3.45 3.45 0 0 1 4.42 5.28L481.72 592.05a3.44 3.44 0 0 1-4.86-.42ZM635.1 458.85a3.45 3.45 0 0 1 .43-4.85l116.04-97.37a3.44 3.44 0 1 1 4.43 5.28l-116.04 97.37a3.45 3.45 0 0 1-4.86-.43Zm126.6-106.22a3.44 3.44 0 0 1 .42-4.85l147.69-123.93a3.44 3.44 0 1 1 4.43 5.28l-147.7 123.92a3.44 3.44 0 0 1-4.84-.42Zm158.23-132.78a3.45 3.45 0 0 1 .43-4.85l107.6-90.29a3.45 3.45 0 0 1 4.43 5.28l-107.6 90.28a3.45 3.45 0 0 1-4.86-.42ZM190.98 831.52a4.82 4.82 0 0 0 6.79.6l147.69-123.94a4.82 4.82 0 1 0-6.2-7.38L191.57 824.73a4.82 4.82 0 0 0-.59 6.79Zm158.24-132.78a4.82 4.82 0 0 0 6.79.6l116.04-97.38a4.82 4.82 0 0 0-6.2-7.38l-116.04 97.37a4.82 4.82 0 0 0-.6 6.79ZM475.8 592.52a4.82 4.82 0 0 0 6.8.59l147.68-123.93a4.82 4.82 0 1 0-6.2-7.38L476.4 585.73a4.82 4.82 0 0 0-.59 6.79Zm158.24-132.78a4.82 4.82 0 0 0 6.79.6l116.04-97.38a4.82 4.82 0 0 0-6.2-7.38l-116.04 97.37a4.82 4.82 0 0 0-.6 6.79Zm126.6-106.23a4.82 4.82 0 0 0 6.78.6l147.7-123.93a4.82 4.82 0 1 0-6.2-7.38l-147.7 123.92a4.83 4.83 0 0 0-.59 6.8Zm158.23-132.77a4.83 4.83 0 0 0 6.79.59l107.6-90.29a4.83 4.83 0 0 0-6.19-7.38l-107.6 90.29a4.82 4.82 0 0 0-.6 6.79ZM176.1 811.64a3.44 3.44 0 0 1 .43-4.85l116.04-97.37a3.44 3.44 0 1 1 4.42 5.28l-116.04 97.37a3.44 3.44 0 0 1-4.85-.43Zm126.6-106.22a3.45 3.45 0 0 1 .42-4.85l21.1-17.7a3.45 3.45 0 0 1 4.42 5.27l-21.1 17.7a3.45 3.45 0 0 1-4.85-.42Zm31.64-26.56a3.45 3.45 0 0 1 .43-4.85l116.04-97.37a3.44 3.44 0 1 1 4.42 5.28L339.2 679.29a3.45 3.45 0 0 1-4.85-.43Zm126.6-106.22a3.45 3.45 0 0 1 .42-4.85l21.1-17.7a3.44 3.44 0 1 1 4.42 5.27l-21.1 17.7a3.45 3.45 0 0 1-4.85-.42Zm31.64-26.55a3.45 3.45 0 0 1 .42-4.86l116.05-97.37a3.44 3.44 0 0 1 4.42 5.28L497.43 546.5a3.45 3.45 0 0 1-4.85-.42Zm126.6-106.23a3.45 3.45 0 0 1 .42-4.85l21.1-17.7a3.44 3.44 0 1 1 4.42 5.27l-21.1 17.7a3.45 3.45 0 0 1-4.85-.42Zm31.64-26.55a3.44 3.44 0 0 1 .42-4.85l116.04-97.38a3.44 3.44 0 1 1 4.43 5.28l-116.04 97.37a3.45 3.45 0 0 1-4.85-.42ZM777.4 307.08a3.45 3.45 0 0 1 .42-4.85l21.1-17.7a3.44 3.44 0 0 1 4.43 5.27l-21.1 17.7a3.45 3.45 0 0 1-4.85-.42Zm31.65-26.55a3.45 3.45 0 0 1 .42-4.85l116.04-97.37a3.45 3.45 0 0 1 4.43 5.27L813.9 280.95a3.45 3.45 0 0 1-4.85-.42Zm126.6-106.23a3.45 3.45 0 0 1 .42-4.85l21.1-17.7a3.44 3.44 0 1 1 4.43 5.27l-21.1 17.7a3.44 3.44 0 0 1-4.85-.42Zm31.65-26.56a3.45 3.45 0 0 1 .42-4.85l44.31-37.18a3.43 3.43 0 1 1 4.42 5.28l-44.3 37.17a3.44 3.44 0 0 1-4.85-.42ZM175.05 812.53a4.82 4.82 0 0 0 6.79.6l116.04-97.38a4.82 4.82 0 0 0-6.2-7.38l-116.04 97.37a4.82 4.82 0 0 0-.6 6.79ZM301.64 706.3a4.82 4.82 0 0 0 6.79.6l21.1-17.7a4.82 4.82 0 0 0-6.2-7.39l-21.1 17.7a4.82 4.82 0 0 0-.6 6.8Zm31.65-26.55a4.82 4.82 0 0 0 6.79.6l116.04-97.38a4.82 4.82 0 1 0-6.2-7.38l-116.04 97.37a4.82 4.82 0 0 0-.6 6.79Zm126.59-106.23a4.82 4.82 0 0 0 6.79.6l21.1-17.7a4.82 4.82 0 0 0-6.2-7.39l-21.1 17.7a4.82 4.82 0 0 0-.6 6.8Zm31.64-26.55a4.82 4.82 0 0 0 6.8.6l116.04-97.38a4.82 4.82 0 0 0-6.2-7.38l-116.04 97.37a4.82 4.82 0 0 0-.6 6.79Zm126.6-106.22a4.82 4.82 0 0 0 6.79.6l21.1-17.71a4.82 4.82 0 1 0-6.2-7.39l-21.1 17.7a4.82 4.82 0 0 0-.6 6.8Zm31.64-26.56a4.82 4.82 0 0 0 6.8.6L772.6 317.4a4.82 4.82 0 0 0-6.2-7.38L650.36 407.4a4.83 4.83 0 0 0-.6 6.8Zm126.6-106.22a4.82 4.82 0 0 0 6.78.6l21.1-17.71a4.82 4.82 0 0 0-6.2-7.38l-21.1 17.7a4.82 4.82 0 0 0-.59 6.79ZM808 281.4a4.82 4.82 0 0 0 6.8.6l116.04-97.37a4.82 4.82 0 1 0-6.2-7.39L808.6 274.62a4.82 4.82 0 0 0-.6 6.8Zm126.6-106.2a4.82 4.82 0 0 0 6.78.6l21.1-17.7a4.82 4.82 0 0 0-6.2-7.4l-21.1 17.71a4.82 4.82 0 0 0-.59 6.79Zm31.64-26.56a4.82 4.82 0 0 0 6.8.6l44.3-37.18a4.8 4.8 0 0 0-2.68-8.5 4.83 4.83 0 0 0-3.52 1.12l-44.3 37.17a4.82 4.82 0 0 0-.6 6.8ZM160.17 792.65a3.45 3.45 0 0 1 .42-4.85L245 717a3.45 3.45 0 0 1 4.42 5.27l-84.4 70.82a3.45 3.45 0 0 1-4.84-.43ZM255.1 713a3.44 3.44 0 0 1 .43-4.85L466.52 531.1a3.44 3.44 0 1 1 4.43 5.27L259.96 713.41a3.44 3.44 0 0 1-4.85-.42Zm221.54-185.9a3.45 3.45 0 0 1 .42-4.84l84.4-70.82a3.45 3.45 0 0 1 4.42 5.27l-84.4 70.82a3.44 3.44 0 0 1-4.84-.42Zm94.94-79.66a3.44 3.44 0 0 1 .42-4.85l211-177.05a3.44 3.44 0 0 1 4.42 5.28L576.44 447.85a3.45 3.45 0 0 1-4.85-.42Zm221.53-185.89a3.45 3.45 0 0 1 .43-4.85l84.4-70.82a3.44 3.44 0 1 1 4.42 5.28l-84.4 70.81a3.45 3.45 0 0 1-4.85-.42Zm94.95-79.67a3.44 3.44 0 0 1 .42-4.85l107.6-90.29a3.44 3.44 0 1 1 4.43 5.28l-107.6 90.29a3.45 3.45 0 0 1-4.85-.43ZM159.1 793.54a4.82 4.82 0 0 0 6.8.6l84.39-70.82a4.82 4.82 0 1 0-6.2-7.39l-84.4 70.82a4.82 4.82 0 0 0-.59 6.79Zm94.95-79.67a4.83 4.83 0 0 0 6.79.6l210.98-177.04a4.82 4.82 0 1 0-6.2-7.39L254.66 707.08a4.82 4.82 0 0 0-.6 6.8Zm221.53-185.89a4.82 4.82 0 0 0 6.8.6l84.39-70.82a4.82 4.82 0 1 0-6.2-7.38l-84.4 70.81a4.82 4.82 0 0 0-.59 6.8Zm94.94-79.67a4.82 4.82 0 0 0 6.8.6L788.3 271.87a4.82 4.82 0 0 0-6.2-7.38L571.13 441.52a4.82 4.82 0 0 0-.6 6.8Zm221.54-185.88a4.82 4.82 0 0 0 6.79.59l84.4-70.82a4.82 4.82 0 0 0-6.2-7.38l-84.4 70.81a4.82 4.82 0 0 0-.6 6.8ZM887 182.75a4.82 4.82 0 0 0 6.8.6l107.6-90.3a4.85 4.85 0 0 0 .59-6.79 4.82 4.82 0 0 0-6.8-.6l-107.6 90.3a4.83 4.83 0 0 0-.59 6.79ZM144.23 773.66a3.45 3.45 0 0 1 .43-4.85l63.3-53.1a3.44 3.44 0 1 1 4.42 5.27l-63.3 53.1a3.45 3.45 0 0 1-4.85-.42Zm73.85-61.96a3.45 3.45 0 0 1 .42-4.85l63.3-53.11a3.44 3.44 0 1 1 4.43 5.27l-63.3 53.12a3.44 3.44 0 0 1-4.85-.43Zm73.84-61.96a3.45 3.45 0 0 1 .43-4.85l63.3-53.11a3.44 3.44 0 1 1 4.42 5.27l-63.3 53.11a3.44 3.44 0 0 1-4.85-.42Zm73.85-61.97a3.45 3.45 0 0 1 .42-4.85l63.3-53.1a3.44 3.44 0 1 1 4.43 5.27l-63.3 53.1a3.44 3.44 0 0 1-4.85-.42Zm73.84-61.96a3.45 3.45 0 0 1 .43-4.85l63.3-53.11a3.44 3.44 0 1 1 4.42 5.27l-63.3 53.12a3.45 3.45 0 0 1-4.85-.43Zm73.85-61.96a3.45 3.45 0 0 1 .42-4.85l63.3-53.11a3.44 3.44 0 1 1 4.43 5.27l-63.3 53.11a3.45 3.45 0 0 1-4.85-.42Zm73.84-61.97a3.44 3.44 0 0 1 .43-4.84l63.3-53.12a3.44 3.44 0 1 1 4.42 5.28l-63.3 53.11a3.44 3.44 0 0 1-4.85-.43Zm73.85-61.96a3.44 3.44 0 0 1 .42-4.85l63.3-53.11a3.44 3.44 0 1 1 4.42 5.28l-63.3 53.1a3.45 3.45 0 0 1-4.84-.42Zm73.84-61.96a3.45 3.45 0 0 1 .43-4.85l63.3-53.11a3.44 3.44 0 0 1 4.42 5.27l-63.3 53.11a3.45 3.45 0 0 1-4.85-.42ZM808.84 216a3.45 3.45 0 0 1 .42-4.85l63.3-53.12a3.45 3.45 0 0 1 4.42 5.28l-63.3 53.11a3.45 3.45 0 0 1-4.84-.42Zm73.84-61.97a3.44 3.44 0 0 1 .43-4.85l63.3-53.1a3.44 3.44 0 0 1 4.42 5.27l-63.3 53.1a3.44 3.44 0 0 1-4.85-.42Zm73.85-61.96a3.44 3.44 0 0 1 .42-4.85l23.21-19.48a3.44 3.44 0 1 1 4.43 5.28l-23.21 19.47a3.45 3.45 0 0 1-4.85-.42ZM143.18 774.55a4.82 4.82 0 0 0 6.79.6l63.3-53.12a4.83 4.83 0 0 0-6.2-7.38l-63.3 53.11a4.82 4.82 0 0 0-.6 6.79Zm73.84-61.96a4.82 4.82 0 0 0 6.8.6l63.29-53.12a4.82 4.82 0 1 0-6.2-7.39l-63.3 53.12a4.82 4.82 0 0 0-.59 6.79Zm73.85-61.97a4.82 4.82 0 0 0 6.79.6l63.3-53.11a4.82 4.82 0 0 0-6.2-7.39l-63.3 53.11a4.82 4.82 0 0 0-.6 6.8Zm73.84-61.96a4.83 4.83 0 0 0 6.8.6l63.29-53.12a4.82 4.82 0 0 0-6.2-7.38l-63.3 53.11a4.82 4.82 0 0 0-.59 6.79Zm73.85-61.96a4.82 4.82 0 0 0 6.79.6l63.3-53.12a4.82 4.82 0 0 0-6.2-7.38l-63.3 53.1a4.82 4.82 0 0 0-.6 6.8Zm73.84-61.97a4.82 4.82 0 0 0 6.8.6l63.29-53.11a4.82 4.82 0 1 0-6.2-7.39L513 457.94a4.82 4.82 0 0 0-.59 6.8Zm73.85-61.96a4.82 4.82 0 0 0 6.79.6l63.3-53.12a4.82 4.82 0 1 0-6.2-7.38l-63.3 53.11a4.83 4.83 0 0 0-.6 6.79Zm73.84-61.96a4.82 4.82 0 0 0 6.8.6l63.29-53.12a4.82 4.82 0 0 0-6.2-7.39l-63.3 53.12a4.82 4.82 0 0 0-.59 6.79Zm73.85-61.97a4.82 4.82 0 0 0 6.79.6l63.3-53.11a4.82 4.82 0 0 0-6.2-7.39l-63.3 53.11a4.82 4.82 0 0 0-.6 6.8Zm73.84-61.96a4.82 4.82 0 0 0 6.8.6l63.29-53.12a4.82 4.82 0 0 0-6.2-7.38l-63.3 53.11a4.82 4.82 0 0 0-.59 6.8Zm73.85-61.96a4.82 4.82 0 0 0 6.79.6l63.3-53.12a4.82 4.82 0 1 0-6.2-7.38l-63.3 53.1a4.82 4.82 0 0 0-.6 6.8Zm73.84-61.97a4.82 4.82 0 0 0 6.8.6l23.2-19.48a4.82 4.82 0 0 0-6.2-7.38l-23.2 19.47a4.82 4.82 0 0 0-.6 6.8ZM128.3 754.68a3.44 3.44 0 0 1 .42-4.85l126.6-106.23a3.45 3.45 0 0 1 4.42 5.28L133.15 755.1a3.44 3.44 0 0 1-4.85-.42ZM265.44 639.6a3.45 3.45 0 0 1 .43-4.85l31.64-26.55a3.44 3.44 0 0 1 4.43 5.27l-31.65 26.56a3.45 3.45 0 0 1-4.85-.43Zm42.2-35.4a3.44 3.44 0 0 1 .42-4.86l126.6-106.22a3.44 3.44 0 1 1 4.42 5.28l-126.6 106.22a3.44 3.44 0 0 1-4.84-.43Zm137.14-115.08a3.45 3.45 0 0 1 .42-4.85l31.65-26.56a3.44 3.44 0 1 1 4.43 5.28l-31.65 26.55a3.45 3.45 0 0 1-4.85-.42Zm42.2-35.4a3.45 3.45 0 0 1 .42-4.86L614 342.64a3.44 3.44 0 0 1 4.42 5.27l-126.6 106.23a3.45 3.45 0 0 1-4.84-.43Zm137.14-115.08a3.44 3.44 0 0 1 .42-4.85l31.65-26.56a3.44 3.44 0 1 1 4.42 5.28l-31.64 26.55a3.45 3.45 0 0 1-4.85-.42Zm42.2-35.41a3.45 3.45 0 0 1 .42-4.85l126.59-106.22a3.44 3.44 0 0 1 4.42 5.27L671.16 303.65a3.45 3.45 0 0 1-4.85-.42Zm137.13-115.08a3.45 3.45 0 0 1 .43-4.84l31.65-26.56a3.45 3.45 0 0 1 4.42 5.27l-31.65 26.56a3.44 3.44 0 0 1-4.85-.43Zm42.2-35.4a3.45 3.45 0 0 1 .43-4.85l118.15-99.14a3.44 3.44 0 0 1 4.42 5.27L850.5 153.17a3.45 3.45 0 0 1-4.85-.42Zm-718.4 602.81a4.82 4.82 0 0 0 6.79.6l126.59-106.23a4.82 4.82 0 1 0-6.2-7.38L127.84 748.77a4.82 4.82 0 0 0-.6 6.8ZM264.39 640.5a4.82 4.82 0 0 0 6.79.6l31.64-26.57a4.82 4.82 0 1 0-6.2-7.38l-31.64 26.56a4.82 4.82 0 0 0-.6 6.79Zm42.2-35.41a4.82 4.82 0 0 0 6.78.6l126.6-106.23a4.82 4.82 0 0 0-6.2-7.38L307.17 598.3a4.82 4.82 0 0 0-.59 6.79ZM443.71 490a4.82 4.82 0 0 0 6.8.6l31.64-26.56a4.82 4.82 0 1 0-6.2-7.38l-31.64 26.55a4.82 4.82 0 0 0-.6 6.8Zm42.2-35.4a4.82 4.82 0 0 0 6.8.6L619.3 348.96a4.82 4.82 0 0 0-6.2-7.39L486.52 447.81a4.82 4.82 0 0 0-.59 6.79Zm137.14-115.08a4.82 4.82 0 0 0 6.8.6l31.64-26.56a4.82 4.82 0 1 0-6.2-7.38l-31.64 26.55a4.82 4.82 0 0 0-.6 6.8Zm42.2-35.4a4.82 4.82 0 0 0 6.79.59l126.59-106.22a4.83 4.83 0 0 0-6.2-7.39L665.85 297.32a4.82 4.82 0 0 0-.6 6.8ZM802.4 189.04a4.82 4.82 0 0 0 6.79.6l31.65-26.56a4.82 4.82 0 1 0-6.2-7.39L803 182.25a4.82 4.82 0 0 0-.6 6.8Zm42.2-35.4a4.82 4.82 0 0 0 6.79.59l118.15-99.14a4.82 4.82 0 0 0-6.2-7.39L845.2 146.84a4.82 4.82 0 0 0-.6 6.8ZM112.37 735.69a3.45 3.45 0 0 1 .42-4.85l31.65-26.56a3.44 3.44 0 1 1 4.43 5.28l-31.65 26.55a3.45 3.45 0 0 1-4.85-.42Zm42.2-35.4a3.45 3.45 0 0 1 .42-4.86l126.6-106.22a3.44 3.44 0 1 1 4.42 5.27L159.4 700.71a3.45 3.45 0 0 1-4.84-.43ZM291.7 585.2a3.45 3.45 0 0 1 .42-4.85l31.65-26.56a3.44 3.44 0 1 1 4.42 5.28l-31.64 26.55a3.45 3.45 0 0 1-4.85-.42Zm42.2-35.41a3.44 3.44 0 0 1 .42-4.85l126.59-106.23a3.45 3.45 0 0 1 4.42 5.28L338.75 550.22a3.44 3.44 0 0 1-4.85-.42Zm137.13-115.08a3.44 3.44 0 0 1 .43-4.85l31.64-26.55a3.45 3.45 0 0 1 4.43 5.27l-31.65 26.56a3.45 3.45 0 0 1-4.85-.43Zm42.2-35.4a3.44 3.44 0 0 1 .42-4.85l126.6-106.23a3.44 3.44 0 1 1 4.42 5.28L518.1 399.74a3.44 3.44 0 0 1-4.85-.42Zm137.14-115.08a3.45 3.45 0 0 1 .42-4.85l31.65-26.55a3.44 3.44 0 1 1 4.43 5.27l-31.65 26.56a3.45 3.45 0 0 1-4.85-.43Zm42.2-35.4a3.45 3.45 0 0 1 .42-4.86l126.6-106.22a3.44 3.44 0 1 1 4.42 5.28l-126.6 106.22a3.45 3.45 0 0 1-4.84-.43Zm137.14-115.08a3.45 3.45 0 0 1 .42-4.85l31.65-26.56a3.44 3.44 0 1 1 4.43 5.28l-31.65 26.55a3.45 3.45 0 0 1-4.85-.42Zm42.2-35.4a3.44 3.44 0 0 1 .42-4.86l75.95-63.73a3.44 3.44 0 1 1 4.43 5.27l-75.95 63.74a3.45 3.45 0 0 1-4.85-.43Zm-760.6 638.21a4.82 4.82 0 0 0 6.78.6l31.65-26.56a4.83 4.83 0 0 0-6.2-7.38l-31.64 26.55a4.82 4.82 0 0 0-.6 6.8Zm42.19-35.4a4.82 4.82 0 0 0 6.79.59l126.6-106.22a4.82 4.82 0 1 0-6.2-7.39L154.1 694.38a4.82 4.82 0 0 0-.59 6.79Zm137.14-115.08a4.82 4.82 0 0 0 6.8.6l31.64-26.56a4.82 4.82 0 0 0-6.2-7.38l-31.64 26.55a4.82 4.82 0 0 0-.6 6.8Zm42.2-35.4a4.82 4.82 0 0 0 6.79.59l126.59-106.22a4.82 4.82 0 1 0-6.2-7.39L333.44 543.9a4.83 4.83 0 0 0-.6 6.8ZM469.99 435.6a4.82 4.82 0 0 0 6.79.6l31.65-26.56a4.82 4.82 0 1 0-6.2-7.39l-31.65 26.56a4.82 4.82 0 0 0-.6 6.79Zm42.2-35.4a4.82 4.82 0 0 0 6.79.59l126.59-106.23a4.82 4.82 0 0 0-6.2-7.38L512.77 393.4a4.82 4.82 0 0 0-.59 6.8Zm137.14-115.08a4.82 4.82 0 0 0 6.79.6l31.64-26.56a4.82 4.82 0 1 0-6.2-7.39l-31.64 26.56a4.82 4.82 0 0 0-.6 6.79Zm42.2-35.41a4.82 4.82 0 0 0 6.78.6l126.6-106.23a4.82 4.82 0 0 0-6.2-7.38L692.1 242.93a4.82 4.82 0 0 0-.59 6.79Zm137.13-115.07a4.82 4.82 0 0 0 6.8.59l31.64-26.56a4.82 4.82 0 1 0-6.2-7.38l-31.64 26.55a4.82 4.82 0 0 0-.6 6.8Zm42.2-35.41a4.82 4.82 0 0 0 6.8.6L953.6 36.1a4.82 4.82 0 0 0-6.2-7.39l-75.95 63.74a4.82 4.82 0 0 0-.6 6.79ZM96.43 716.7a3.45 3.45 0 0 1 .43-4.85L276.2 561.37a3.45 3.45 0 0 1 4.42 5.27L101.28 717.12a3.45 3.45 0 0 1-4.85-.42Zm189.9-159.34a3.44 3.44 0 0 1 .42-4.85l179.33-150.48a3.45 3.45 0 0 1 4.43 5.28L291.17 557.79a3.45 3.45 0 0 1-4.85-.43ZM476.2 398.03a3.44 3.44 0 0 1 .42-4.85L655.97 242.7a3.45 3.45 0 0 1 4.43 5.27L481.06 398.45a3.45 3.45 0 0 1-4.85-.42ZM666.1 238.7a3.45 3.45 0 0 1 .42-4.85L845.86 83.36a3.44 3.44 0 0 1 4.42 5.28L670.95 239.12a3.45 3.45 0 0 1-4.86-.42ZM855.98 79.36a3.45 3.45 0 0 1 .43-4.85l75.95-63.73a3.44 3.44 0 0 1 4.43 5.27L860.83 79.8a3.45 3.45 0 0 1-4.85-.43ZM95.38 717.58a4.82 4.82 0 0 0 6.79.6L281.51 567.7a4.82 4.82 0 1 0-6.2-7.39L95.97 710.8a4.82 4.82 0 0 0-.6 6.8Zm189.89-159.33a4.82 4.82 0 0 0 6.79.6l179.33-150.49a4.82 4.82 0 1 0-6.2-7.38L285.87 551.46a4.82 4.82 0 0 0-.6 6.79Zm189.88-159.33a4.82 4.82 0 0 0 6.8.59l179.33-150.48a4.82 4.82 0 1 0-6.2-7.39L475.75 392.13a4.82 4.82 0 0 0-.6 6.79Zm189.89-159.34a4.82 4.82 0 0 0 6.8.6L851.16 89.69a4.82 4.82 0 0 0-6.2-7.38L665.63 232.79a4.82 4.82 0 0 0-.59 6.8ZM854.93 80.25a4.82 4.82 0 0 0 6.79.6l75.95-63.74a4.82 4.82 0 1 0-6.2-7.39l-75.95 63.74a4.82 4.82 0 0 0-.6 6.79ZM80.5 697.71a3.45 3.45 0 0 1 .43-4.85l63.3-53.11a3.44 3.44 0 1 1 4.42 5.27l-63.3 53.11a3.45 3.45 0 0 1-4.85-.42Zm73.85-61.96a3.44 3.44 0 0 1 .42-4.85l63.3-53.12a3.44 3.44 0 1 1 4.42 5.28l-63.3 53.11a3.44 3.44 0 0 1-4.84-.42Zm73.84-61.97a3.44 3.44 0 0 1 .43-4.85l63.3-53.1a3.44 3.44 0 1 1 4.42 5.27l-63.3 53.1a3.45 3.45 0 0 1-4.85-.42Zm73.85-61.96a3.45 3.45 0 0 1 .42-4.85l63.3-53.11a3.44 3.44 0 0 1 4.42 5.27l-63.3 53.11a3.45 3.45 0 0 1-4.84-.42Zm73.84-61.96a3.44 3.44 0 0 1 .43-4.85l63.29-53.12a3.44 3.44 0 0 1 4.43 5.28l-63.3 53.11a3.45 3.45 0 0 1-4.85-.42Zm73.85-61.97a3.44 3.44 0 0 1 .42-4.85l63.3-53.1a3.45 3.45 0 0 1 4.42 5.27l-63.3 53.1a3.44 3.44 0 0 1-4.84-.42Zm73.84-61.96a3.44 3.44 0 0 1 .42-4.85l63.3-53.11a3.45 3.45 0 0 1 4.43 5.27l-63.3 53.12a3.45 3.45 0 0 1-4.85-.43Zm73.84-61.96a3.44 3.44 0 0 1 .43-4.85l63.3-53.12a3.44 3.44 0 0 1 4.42 5.28l-63.3 53.11a3.45 3.45 0 0 1-4.85-.42ZM671.26 202a3.45 3.45 0 0 1 .42-4.85l63.3-53.1a3.44 3.44 0 0 1 4.43 5.27l-63.3 53.1a3.45 3.45 0 0 1-4.85-.42Zm73.85-61.96a3.45 3.45 0 0 1 .42-4.85l63.3-53.11a3.44 3.44 0 1 1 4.42 5.27l-63.3 53.12a3.44 3.44 0 0 1-4.85-.43Zm73.84-61.96a3.45 3.45 0 0 1 .42-4.85l63.3-53.11a3.44 3.44 0 1 1 4.43 5.27L823.8 78.5a3.45 3.45 0 0 1-4.85-.42Zm73.84-61.97a3.45 3.45 0 0 1 .43-4.85l23.2-19.47a3.44 3.44 0 1 1 4.43 5.27l-23.2 19.48a3.45 3.45 0 0 1-4.86-.43ZM79.45 698.6a4.82 4.82 0 0 0 6.79.59l63.3-53.11a4.82 4.82 0 0 0-6.2-7.39l-63.3 53.11a4.82 4.82 0 0 0-.6 6.8Zm73.84-61.97a4.82 4.82 0 0 0 6.8.6l63.29-53.12a4.82 4.82 0 1 0-6.2-7.38l-63.3 53.11a4.83 4.83 0 0 0-.59 6.8Zm73.85-61.96a4.82 4.82 0 0 0 6.79.6l63.3-53.12a4.82 4.82 0 0 0-6.2-7.38l-63.3 53.1a4.82 4.82 0 0 0-.6 6.8Zm73.84-61.96a4.82 4.82 0 0 0 6.8.59l63.29-53.11a4.82 4.82 0 0 0-6.2-7.39l-63.3 53.12a4.82 4.82 0 0 0-.59 6.79Zm73.84-61.97a4.82 4.82 0 0 0 6.8.6l63.3-53.11a4.82 4.82 0 0 0-6.2-7.39l-63.3 53.11a4.82 4.82 0 0 0-.6 6.8Zm73.85-61.96a4.82 4.82 0 0 0 6.8.6l63.29-53.12a4.82 4.82 0 1 0-6.2-7.38l-63.3 53.1a4.82 4.82 0 0 0-.59 6.8Zm73.84-61.96a4.82 4.82 0 0 0 6.8.59l63.3-53.11a4.82 4.82 0 1 0-6.2-7.39l-63.3 53.11a4.82 4.82 0 0 0-.6 6.8Zm73.85-61.97a4.83 4.83 0 0 0 6.8.6l63.29-53.11a4.82 4.82 0 1 0-6.2-7.39l-63.3 53.11a4.82 4.82 0 0 0-.59 6.8Zm73.85-61.96a4.82 4.82 0 0 0 6.79.6l63.3-53.12a4.83 4.83 0 0 0-6.2-7.38l-63.3 53.1a4.82 4.82 0 0 0-.6 6.8Zm73.84-61.96a4.82 4.82 0 0 0 6.79.59l63.3-53.11a4.82 4.82 0 0 0-6.2-7.39l-63.3 53.11a4.82 4.82 0 0 0-.59 6.8Zm73.85-61.97a4.82 4.82 0 0 0 6.78.6l63.3-53.11a4.82 4.82 0 0 0-6.2-7.39l-63.3 53.11a4.82 4.82 0 0 0-.59 6.8ZM891.74 17a4.82 4.82 0 0 0 6.79.6l23.2-19.48a4.82 4.82 0 1 0-6.19-7.39l-23.2 19.48a4.82 4.82 0 0 0-.6 6.79ZM64.57 678.72a3.44 3.44 0 0 1 .42-4.85l116.04-97.37a3.44 3.44 0 0 1 4.43 5.27L69.42 679.15a3.44 3.44 0 0 1-4.85-.43ZM191.16 572.5a3.44 3.44 0 0 1 .42-4.85l116.04-97.37a3.44 3.44 0 1 1 4.43 5.27l-116.04 97.37a3.45 3.45 0 0 1-4.85-.42Zm126.59-106.22a3.45 3.45 0 0 1 .42-4.85l116.05-97.38a3.44 3.44 0 1 1 4.42 5.28L322.6 466.7a3.45 3.45 0 0 1-4.85-.42Zm126.6-106.23a3.45 3.45 0 0 1 .41-4.85l116.05-97.37a3.44 3.44 0 0 1 4.42 5.28L449.2 360.48a3.44 3.44 0 0 1-4.85-.43Zm126.58-106.22a3.44 3.44 0 0 1 .43-4.85l116.04-97.37a3.44 3.44 0 1 1 4.43 5.27l-116.05 97.38a3.45 3.45 0 0 1-4.85-.43Zm126.6-106.22a3.45 3.45 0 0 1 .42-4.85l116.04-97.37a3.44 3.44 0 1 1 4.43 5.27l-116.05 97.37a3.45 3.45 0 0 1-4.85-.42ZM824.11 41.39a3.45 3.45 0 0 1 .42-4.86l75.95-63.73a3.44 3.44 0 1 1 4.43 5.28L828.97 41.8a3.45 3.45 0 0 1-4.86-.42ZM63.51 679.6a4.82 4.82 0 0 0 6.78.6l116.05-97.38a4.82 4.82 0 0 0-6.2-7.38L64.1 672.82a4.82 4.82 0 0 0-.6 6.79ZM190.1 573.38a4.82 4.82 0 0 0 6.8.6l116.04-97.37a4.82 4.82 0 0 0-6.2-7.39L190.7 566.6a4.82 4.82 0 0 0-.6 6.8Zm126.6-106.22a4.82 4.82 0 0 0 6.79.6l116.04-97.38a4.82 4.82 0 1 0-6.2-7.38L317.3 460.37a4.82 4.82 0 0 0-.6 6.8Zm126.59-106.22a4.82 4.82 0 0 0 6.79.6l116.04-97.38a4.82 4.82 0 1 0-6.2-7.38l-116.04 97.37a4.82 4.82 0 0 0-.6 6.79Zm126.59-106.22a4.82 4.82 0 0 0 6.79.59l116.04-97.37a4.82 4.82 0 0 0-6.2-7.38l-116.04 97.37a4.82 4.82 0 0 0-.6 6.79Zm126.59-106.23a4.82 4.82 0 0 0 6.79.6L819.3 51.72a4.82 4.82 0 0 0-6.2-7.39L697.07 141.7a4.82 4.82 0 0 0-.6 6.8ZM823.06 42.27a4.82 4.82 0 0 0 6.79.6l75.95-63.74a4.82 4.82 0 1 0-6.2-7.38l-75.95 63.73a4.82 4.82 0 0 0-.59 6.79ZM48.63 659.73a3.45 3.45 0 0 1 .43-4.85l52.75-44.26a3.44 3.44 0 0 1 4.42 5.28l-52.75 44.26a3.44 3.44 0 0 1-4.85-.43Zm63.3-53.1a3.44 3.44 0 0 1 .42-4.86l52.75-44.26a3.44 3.44 0 1 1 4.43 5.28l-52.75 44.26a3.45 3.45 0 0 1-4.85-.43Zm63.3-53.12a3.45 3.45 0 0 1 .42-4.85l52.75-44.26a3.44 3.44 0 1 1 4.42 5.28l-52.74 44.25a3.44 3.44 0 0 1-4.85-.42Zm63.3-53.11a3.45 3.45 0 0 1 .42-4.85l52.74-44.26a3.44 3.44 0 0 1 4.43 5.27l-52.75 44.26a3.45 3.45 0 0 1-4.85-.42Zm63.29-53.11a3.45 3.45 0 0 1 .42-4.85L355 398.18a3.44 3.44 0 1 1 4.42 5.27l-52.74 44.26a3.45 3.45 0 0 1-4.85-.42Zm63.3-53.11a3.45 3.45 0 0 1 .42-4.85l52.74-44.26a3.45 3.45 0 0 1 4.43 5.27l-52.75 44.26a3.44 3.44 0 0 1-4.85-.42Zm63.29-53.12a3.44 3.44 0 0 1 .42-4.85l52.75-44.25a3.44 3.44 0 1 1 4.43 5.27l-52.75 44.26a3.45 3.45 0 0 1-4.85-.43Zm63.3-53.1a3.45 3.45 0 0 1 .42-4.86l52.75-44.26a3.44 3.44 0 1 1 4.42 5.28l-52.75 44.26a3.45 3.45 0 0 1-4.85-.43ZM555 234.83a3.44 3.44 0 0 1 .42-4.85l52.75-44.26a3.45 3.45 0 0 1 4.43 5.28l-52.75 44.26a3.44 3.44 0 0 1-4.85-.43Zm63.3-53.1a3.44 3.44 0 0 1 .42-4.86l52.75-44.26a3.44 3.44 0 1 1 4.42 5.28l-52.74 44.25a3.45 3.45 0 0 1-4.86-.42Zm63.3-53.12a3.45 3.45 0 0 1 .41-4.85l52.75-44.26a3.44 3.44 0 1 1 4.43 5.27l-52.75 44.26a3.45 3.45 0 0 1-4.85-.42Zm63.29-53.11a3.44 3.44 0 0 1 .42-4.85l52.75-44.26a3.44 3.44 0 0 1 4.42 5.27l-52.74 44.26a3.45 3.45 0 0 1-4.85-.42Zm63.3-53.11a3.44 3.44 0 0 1 .42-4.85l52.74-44.26a3.44 3.44 0 1 1 4.43 5.27l-52.75 44.26a3.44 3.44 0 0 1-4.85-.42Zm63.29-53.11a3.45 3.45 0 0 1 .42-4.85l12.66-10.63a3.44 3.44 0 0 1 4.44 5.3l-12.67 10.6a3.45 3.45 0 0 1-4.85-.42ZM47.58 660.62a4.82 4.82 0 0 0 6.79.6l52.75-44.27a4.82 4.82 0 1 0-6.2-7.38l-52.75 44.26a4.82 4.82 0 0 0-.59 6.79Zm63.3-53.11a4.82 4.82 0 0 0 6.79.6l52.74-44.27a4.82 4.82 0 0 0-6.2-7.38l-52.74 44.26a4.82 4.82 0 0 0-.6 6.79Zm63.3-53.11a4.82 4.82 0 0 0 6.78.59l52.75-44.26a4.82 4.82 0 1 0-6.2-7.38l-52.75 44.25a4.82 4.82 0 0 0-.59 6.8Zm63.29-53.12a4.82 4.82 0 0 0 6.79.6L297 457.62a4.82 4.82 0 1 0-6.2-7.39l-52.74 44.26a4.82 4.82 0 0 0-.6 6.8Zm63.3-53.1a4.82 4.82 0 0 0 6.78.59l52.75-44.26a4.82 4.82 0 0 0-6.2-7.39l-52.74 44.26a4.82 4.82 0 0 0-.6 6.8Zm63.29-53.12a4.82 4.82 0 0 0 6.79.6l52.75-44.26a4.82 4.82 0 0 0-6.2-7.39l-52.75 44.26a4.82 4.82 0 0 0-.6 6.8Zm63.3-53.11a4.83 4.83 0 0 0 6.78.6l52.75-44.26a4.83 4.83 0 0 0-6.2-7.39l-52.74 44.26a4.82 4.82 0 0 0-.6 6.79Zm63.29-53.11a4.82 4.82 0 0 0 6.79.6l52.75-44.27a4.82 4.82 0 0 0-6.2-7.38l-52.75 44.26a4.82 4.82 0 0 0-.6 6.79Zm63.3-53.11a4.82 4.82 0 0 0 6.78.6l52.75-44.27a4.82 4.82 0 1 0-6.2-7.38l-52.74 44.26a4.83 4.83 0 0 0-.6 6.79Zm63.29-53.11a4.83 4.83 0 0 0 6.8.59l52.74-44.26a4.82 4.82 0 0 0-6.2-7.38l-52.75 44.26a4.82 4.82 0 0 0-.59 6.79Zm63.3-53.12a4.82 4.82 0 0 0 6.79.6l52.74-44.26a4.82 4.82 0 1 0-6.2-7.39l-52.74 44.26a4.82 4.82 0 0 0-.6 6.8Zm63.3-53.1a4.82 4.82 0 0 0 6.78.59l52.75-44.26a4.82 4.82 0 1 0-6.2-7.39L744.43 69.6a4.82 4.82 0 0 0-.6 6.8Zm63.29-53.12a4.82 4.82 0 0 0 6.79.6l52.74-44.26a4.82 4.82 0 0 0-6.2-7.39L807.73 16.5a4.82 4.82 0 0 0-.6 6.8Zm63.3-53.1a4.82 4.82 0 0 0 6.78.58l12.66-10.62a4.82 4.82 0 1 0-6.2-7.38l-12.65 10.62a4.82 4.82 0 0 0-.6 6.8ZM32.7 640.74a3.45 3.45 0 0 1 .43-4.85l31.64-26.55a3.44 3.44 0 1 1 4.43 5.27l-31.65 26.56a3.45 3.45 0 0 1-4.85-.43Zm42.2-35.4a3.44 3.44 0 0 1 .42-4.86l31.65-26.55a3.44 3.44 0 0 1 4.43 5.27l-31.65 26.56a3.44 3.44 0 0 1-4.85-.42Zm42.2-35.41a3.45 3.45 0 0 1 .42-4.85l31.65-26.56a3.45 3.45 0 0 1 4.42 5.28l-31.65 26.55a3.45 3.45 0 0 1-4.84-.42Zm42.2-35.41a3.44 3.44 0 0 1 .42-4.85l31.64-26.56a3.44 3.44 0 0 1 4.43 5.28l-31.65 26.56a3.45 3.45 0 0 1-4.85-.43Zm42.19-35.4a3.44 3.44 0 0 1 .42-4.86l31.65-26.55a3.45 3.45 0 0 1 4.43 5.27l-31.65 26.56a3.45 3.45 0 0 1-4.85-.43Zm42.2-35.42a3.45 3.45 0 0 1 .42-4.84l31.65-26.56a3.44 3.44 0 1 1 4.43 5.27l-31.65 26.56a3.45 3.45 0 0 1-4.85-.43Zm42.2-35.4a3.44 3.44 0 0 1 .42-4.85l31.65-26.56a3.44 3.44 0 1 1 4.42 5.28l-31.65 26.55a3.44 3.44 0 0 1-4.85-.42Zm42.2-35.41a3.45 3.45 0 0 1 .42-4.85l31.64-26.56a3.44 3.44 0 1 1 4.43 5.28l-31.65 26.55a3.45 3.45 0 0 1-4.85-.42Zm42.19-35.4a3.45 3.45 0 0 1 .42-4.86l31.65-26.55a3.44 3.44 0 1 1 4.43 5.27l-31.65 26.56a3.44 3.44 0 0 1-4.85-.43Zm42.2-35.42a3.45 3.45 0 0 1 .42-4.85l31.65-26.55a3.44 3.44 0 1 1 4.42 5.27l-31.65 26.56a3.45 3.45 0 0 1-4.84-.43Zm42.2-35.4a3.45 3.45 0 0 1 .42-4.85l31.64-26.56a3.44 3.44 0 1 1 4.43 5.28l-31.65 26.55a3.45 3.45 0 0 1-4.85-.42Zm42.19-35.41a3.45 3.45 0 0 1 .42-4.85l31.65-26.56a3.45 3.45 0 0 1 4.43 5.28l-31.65 26.55a3.45 3.45 0 0 1-4.85-.42Zm42.2-35.4a3.45 3.45 0 0 1 .42-4.86l31.65-26.55a3.44 3.44 0 0 1 4.42 5.27l-31.64 26.56a3.44 3.44 0 0 1-4.85-.43Zm42.2-35.42a3.44 3.44 0 0 1 .42-4.85l31.64-26.55a3.45 3.45 0 0 1 4.43 5.27l-31.65 26.56a3.44 3.44 0 0 1-4.85-.43Zm42.19-35.4a3.44 3.44 0 0 1 .42-4.85l31.65-26.56a3.44 3.44 0 0 1 4.43 5.28l-31.65 26.55a3.45 3.45 0 0 1-4.85-.42Zm42.2-35.41a3.44 3.44 0 0 1 .42-4.85l31.65-26.56a3.44 3.44 0 1 1 4.42 5.28l-31.64 26.55a3.44 3.44 0 0 1-4.85-.42Zm42.2-35.4a3.44 3.44 0 0 1 .42-4.86l31.65-26.55a3.44 3.44 0 1 1 4.42 5.27l-31.64 26.56a3.45 3.45 0 0 1-4.86-.43Zm42.2-35.42a3.44 3.44 0 0 1 .42-4.85l31.64-26.55a3.44 3.44 0 1 1 4.43 5.27L754.9 39.24a3.45 3.45 0 0 1-4.85-.43Zm42.19-35.4a3.44 3.44 0 0 1 .42-4.85L824.32-28a3.44 3.44 0 1 1 4.43 5.28L797.1 3.83a3.45 3.45 0 0 1-4.85-.42ZM834.45-32a3.45 3.45 0 0 1 .42-4.85l31.65-26.56a3.44 3.44 0 1 1 4.42 5.28L839.3-31.58a3.45 3.45 0 0 1-4.85-.42ZM31.65 641.63a4.82 4.82 0 0 0 6.79.6l31.64-26.56a4.82 4.82 0 1 0-6.2-7.39l-31.64 26.56a4.82 4.82 0 0 0-.6 6.79Zm42.2-35.4a4.82 4.82 0 0 0 6.78.59l31.65-26.56a4.82 4.82 0 1 0-6.2-7.39l-31.64 26.56a4.82 4.82 0 0 0-.6 6.8Zm42.19-35.42a4.82 4.82 0 0 0 6.8.6l31.64-26.56a4.82 4.82 0 1 0-6.2-7.38l-31.65 26.55a4.82 4.82 0 0 0-.59 6.8Zm42.2-35.4a4.82 4.82 0 0 0 6.79.59l31.65-26.56a4.82 4.82 0 0 0-6.2-7.38l-31.65 26.56a4.82 4.82 0 0 0-.6 6.78Zm42.2-35.41a4.82 4.82 0 0 0 6.78.6l31.65-26.56a4.82 4.82 0 1 0-6.2-7.39l-31.64 26.56a4.82 4.82 0 0 0-.6 6.79Zm42.2-35.41a4.83 4.83 0 0 0 6.78.6l31.65-26.56a4.82 4.82 0 0 0-6.2-7.39l-31.64 26.56a4.82 4.82 0 0 0-.6 6.79Zm42.19-35.4a4.82 4.82 0 0 0 6.79.59l31.65-26.56a4.82 4.82 0 0 0-6.2-7.38l-31.65 26.55a4.82 4.82 0 0 0-.6 6.8Zm42.2-35.42a4.82 4.82 0 0 0 6.79.6l31.64-26.56a4.82 4.82 0 1 0-6.2-7.38l-31.64 26.56a4.82 4.82 0 0 0-.6 6.78Zm42.2-35.4a4.82 4.82 0 0 0 6.78.6l31.65-26.56a4.82 4.82 0 0 0-6.2-7.39l-31.64 26.56a4.82 4.82 0 0 0-.6 6.79Zm42.19-35.41a4.82 4.82 0 0 0 6.79.6L449.86 297a4.82 4.82 0 1 0-6.2-7.39l-31.65 26.56a4.82 4.82 0 0 0-.59 6.79Zm42.2-35.4a4.82 4.82 0 0 0 6.79.59l31.64-26.56a4.83 4.83 0 0 0-6.2-7.38l-31.64 26.55a4.82 4.82 0 0 0-.6 6.8Zm42.2-35.41a4.82 4.82 0 0 0 6.78.59l31.65-26.56a4.82 4.82 0 1 0-6.2-7.38l-31.64 26.55a4.82 4.82 0 0 0-.6 6.8Zm42.2-35.41a4.83 4.83 0 0 0 6.78.6l31.65-26.56a4.82 4.82 0 0 0-6.2-7.39l-31.64 26.56a4.82 4.82 0 0 0-.6 6.79Zm42.19-35.41a4.82 4.82 0 0 0 6.79.6l31.65-26.56a4.82 4.82 0 0 0-6.2-7.39l-31.65 26.56a4.82 4.82 0 0 0-.6 6.79Zm42.2-35.4a4.82 4.82 0 0 0 6.79.59l31.64-26.56a4.82 4.82 0 0 0-6.2-7.38L623 139.13a4.82 4.82 0 0 0-.6 6.8Zm42.2-35.42a4.82 4.82 0 0 0 6.78.6l31.65-26.56a4.82 4.82 0 1 0-6.2-7.38l-31.64 26.55a4.82 4.82 0 0 0-.6 6.8Zm42.19-35.4a4.82 4.82 0 0 0 6.79.6l31.65-26.56a4.82 4.82 0 1 0-6.2-7.39L707.4 68.32a4.82 4.82 0 0 0-.59 6.79ZM749 39.7a4.82 4.82 0 0 0 6.79.6l31.64-26.56a4.82 4.82 0 0 0-6.2-7.39L749.6 32.91a4.82 4.82 0 0 0-.6 6.79Zm42.2-35.4a4.82 4.82 0 0 0 6.78.59l31.65-26.56a4.82 4.82 0 0 0-6.2-7.38L791.8-2.5a4.82 4.82 0 0 0-.6 6.8Zm42.2-35.42a4.82 4.82 0 0 0 6.78.6l31.65-26.56a4.82 4.82 0 0 0-6.2-7.38L834-37.91a4.82 4.82 0 0 0-.6 6.8ZM16.77 621.75a3.45 3.45 0 0 1 .42-4.85l168.79-141.63a3.44 3.44 0 1 1 4.43 5.28L21.6 622.18a3.45 3.45 0 0 1-4.84-.42ZM196.1 471.27a3.45 3.45 0 0 1 .43-4.85L365.32 324.8a3.44 3.44 0 1 1 4.42 5.28L200.96 471.7a3.44 3.44 0 0 1-4.86-.43ZM375.44 320.8a3.44 3.44 0 0 1 .43-4.85l168.78-141.63a3.45 3.45 0 0 1 4.43 5.27L380.3 321.21a3.44 3.44 0 0 1-4.85-.42Zm179.34-150.48a3.44 3.44 0 0 1 .43-4.85L723.99 23.83a3.44 3.44 0 1 1 4.43 5.27L559.63 170.73a3.45 3.45 0 0 1-4.85-.42ZM734.12 19.83a3.45 3.45 0 0 1 .42-4.85L852.7-84.17a3.44 3.44 0 0 1 4.43 5.28L738.97 20.25a3.45 3.45 0 0 1-4.85-.42ZM15.72 622.64a4.82 4.82 0 0 0 6.78.6L191.3 481.6a4.83 4.83 0 0 0-6.2-7.38L16.3 615.85a4.82 4.82 0 0 0-.59 6.79Zm179.33-150.48a4.82 4.82 0 0 0 6.79.6l168.79-141.64a4.82 4.82 0 1 0-6.2-7.38L195.64 465.37a4.82 4.82 0 0 0-.59 6.79Zm179.34-150.49a4.82 4.82 0 0 0 6.79.6l168.79-141.63a4.82 4.82 0 0 0-6.2-7.38L374.98 314.88a4.83 4.83 0 0 0-.6 6.79ZM553.73 171.2a4.82 4.82 0 0 0 6.79.6L729.3 30.16a4.82 4.82 0 0 0-6.2-7.39L554.33 164.4a4.82 4.82 0 0 0-.6 6.8ZM733.06 20.71a4.82 4.82 0 0 0 6.8.6L858-77.84a4.82 4.82 0 1 0-6.2-7.38L733.67 13.92a4.82 4.82 0 0 0-.6 6.8ZM.83 602.77a3.45 3.45 0 0 1 .43-4.85l84.4-70.82a3.45 3.45 0 1 1 4.42 5.28l-84.4 70.81a3.44 3.44 0 0 1-4.85-.42Zm94.95-79.67a3.45 3.45 0 0 1 .42-4.85l31.65-26.56a3.44 3.44 0 0 1 4.43 5.28l-31.65 26.55a3.44 3.44 0 0 1-4.85-.42Zm42.2-35.4a3.44 3.44 0 0 1 .42-4.86l84.4-70.81a3.44 3.44 0 1 1 4.42 5.27l-84.4 70.82a3.45 3.45 0 0 1-4.85-.43Zm94.94-79.68a3.45 3.45 0 0 1 .42-4.85L265 376.62a3.44 3.44 0 1 1 4.43 5.27l-31.65 26.56a3.45 3.45 0 0 1-4.85-.43Zm42.2-35.4a3.45 3.45 0 0 1 .42-4.85l84.4-70.82a3.45 3.45 0 0 1 4.42 5.28l-84.4 70.81a3.45 3.45 0 0 1-4.84-.42Zm94.94-79.67a3.44 3.44 0 0 1 .42-4.85l31.65-26.56a3.44 3.44 0 0 1 4.43 5.28l-31.65 26.55a3.45 3.45 0 0 1-4.85-.42Zm42.2-35.4a3.45 3.45 0 0 1 .42-4.86l84.4-70.81a3.44 3.44 0 1 1 4.42 5.27l-84.4 70.82a3.45 3.45 0 0 1-4.85-.43Zm94.94-79.67a3.45 3.45 0 0 1 .42-4.85l31.65-26.56a3.44 3.44 0 1 1 4.43 5.27l-31.65 26.56a3.44 3.44 0 0 1-4.85-.42Zm42.2-35.41a3.45 3.45 0 0 1 .42-4.85l84.4-70.82a3.45 3.45 0 0 1 4.42 5.28l-84.4 70.81a3.45 3.45 0 0 1-4.84-.42Zm94.94-79.67a3.45 3.45 0 0 1 .42-4.85l31.65-26.56a3.44 3.44 0 1 1 4.43 5.28l-31.65 26.56a3.45 3.45 0 0 1-4.85-.43Zm42.2-35.4a3.44 3.44 0 0 1 .42-4.86l84.4-70.81a3.44 3.44 0 1 1 4.42 5.27l-84.4 70.82a3.45 3.45 0 0 1-4.84-.43Zm94.94-79.67a3.45 3.45 0 0 1 .42-4.85l31.65-26.56a3.44 3.44 0 0 1 4.43 5.28l-31.65 26.55a3.45 3.45 0 0 1-4.85-.42Zm42.2-35.41a3.45 3.45 0 0 1 .42-4.85l12.66-10.62a3.44 3.44 0 1 1 4.43 5.27l-12.66 10.62a3.45 3.45 0 0 1-4.85-.42ZM-.22 603.65a4.82 4.82 0 0 0 6.79.6l84.4-70.82a4.82 4.82 0 1 0-6.2-7.38L.37 596.86a4.82 4.82 0 0 0-.6 6.8Zm94.94-79.67a4.82 4.82 0 0 0 6.8.6l31.64-26.56a4.82 4.82 0 1 0-6.2-7.38l-31.64 26.55a4.82 4.82 0 0 0-.6 6.8Zm42.2-35.4a4.82 4.82 0 0 0 6.79.6l84.4-70.82a4.82 4.82 0 0 0-6.2-7.39l-84.4 70.82a4.82 4.82 0 0 0-.6 6.79Zm94.94-79.67a4.82 4.82 0 0 0 6.8.6l31.64-26.56a4.82 4.82 0 1 0-6.2-7.39l-31.64 26.56a4.82 4.82 0 0 0-.6 6.79Zm42.2-35.4a4.82 4.82 0 0 0 6.79.59l84.4-70.82a4.82 4.82 0 1 0-6.2-7.38l-84.4 70.81a4.82 4.82 0 0 0-.59 6.8ZM369 293.82a4.82 4.82 0 0 0 6.8.6l31.64-26.56a4.82 4.82 0 0 0-6.2-7.38l-31.64 26.56a4.82 4.82 0 0 0-.6 6.78Zm42.2-35.4a4.82 4.82 0 0 0 6.8.6l84.38-70.82a4.82 4.82 0 0 0-6.2-7.39l-84.38 70.82a4.82 4.82 0 0 0-.6 6.79Zm94.94-79.67a4.82 4.82 0 0 0 6.8.6l31.64-26.56a4.83 4.83 0 0 0-6.2-7.39l-31.64 26.56a4.82 4.82 0 0 0-.6 6.8Zm42.2-35.4a4.83 4.83 0 0 0 6.8.59l84.39-70.82a4.82 4.82 0 1 0-6.2-7.38l-84.4 70.81a4.82 4.82 0 0 0-.59 6.8Zm94.94-79.67a4.82 4.82 0 0 0 6.8.59l31.64-26.56a4.82 4.82 0 1 0-6.2-7.38L643.89 56.9a4.82 4.82 0 0 0-.6 6.79Zm42.2-35.41a4.82 4.82 0 0 0 6.8.6l84.39-70.82a4.82 4.82 0 0 0-6.2-7.39l-84.4 70.82a4.82 4.82 0 0 0-.59 6.79Zm94.94-79.67a4.82 4.82 0 0 0 6.8.6l31.64-26.56a4.82 4.82 0 0 0-6.2-7.38l-31.64 26.55a4.82 4.82 0 0 0-.6 6.8Zm42.2-35.4a4.82 4.82 0 0 0 6.8.59l12.65-10.62a4.82 4.82 0 1 0-6.2-7.39L823.22-93.6a4.82 4.82 0 0 0-.6 6.8ZM-15.1 583.78a3.45 3.45 0 0 1 .42-4.85L133.02 455a3.44 3.44 0 0 1 4.42 5.28L-10.25 584.2a3.44 3.44 0 0 1-4.85-.42ZM143.14 451a3.44 3.44 0 0 1 .42-4.85l116.05-97.37a3.44 3.44 0 1 1 4.42 5.27L148 451.42a3.45 3.45 0 0 1-4.85-.42Zm126.6-106.22a3.45 3.45 0 0 1 .41-4.85L417.85 216a3.44 3.44 0 1 1 4.42 5.28L274.58 345.2a3.45 3.45 0 0 1-4.85-.42ZM427.96 212a3.45 3.45 0 0 1 .42-4.85l116.05-97.37a3.44 3.44 0 1 1 4.42 5.27l-116.04 97.37a3.45 3.45 0 0 1-4.85-.42Zm126.6-106.22a3.45 3.45 0 0 1 .41-4.85L702.68-23a3.44 3.44 0 0 1 4.42 5.27L559.41 106.2a3.45 3.45 0 0 1-4.85-.42ZM712.8-27a3.45 3.45 0 0 1 .42-4.85l107.6-90.3a3.44 3.44 0 1 1 4.43 5.28l-107.6 90.3a3.45 3.45 0 0 1-4.85-.43ZM-16.15 584.66a4.82 4.82 0 0 0 6.79.6l147.69-123.93a4.82 4.82 0 1 0-6.2-7.38l-147.7 123.92a4.82 4.82 0 0 0-.58 6.8ZM142.08 451.9a4.82 4.82 0 0 0 6.8.59l116.04-97.37a4.82 4.82 0 0 0-6.2-7.39L142.68 445.1a4.82 4.82 0 0 0-.6 6.8Zm126.6-106.23a4.82 4.82 0 0 0 6.79.6l147.69-123.93a4.82 4.82 0 0 0-6.2-7.39L269.27 338.88a4.82 4.82 0 0 0-.6 6.8Zm158.24-132.78a4.82 4.82 0 0 0 6.78.6l116.05-97.37a4.82 4.82 0 0 0-6.2-7.39L427.51 206.1a4.83 4.83 0 0 0-.6 6.8ZM553.5 106.66a4.82 4.82 0 0 0 6.79.6l147.7-123.94a4.82 4.82 0 0 0-6.2-7.39L554.1 99.87a4.82 4.82 0 0 0-.6 6.8ZM711.75-26.12a4.82 4.82 0 0 0 6.78.6l107.6-90.3a4.82 4.82 0 1 0-6.19-7.38l-107.6 90.3a4.82 4.82 0 0 0-.6 6.78ZM-31.03 564.79a3.45 3.45 0 0 1 .42-4.85l116.04-97.37a3.45 3.45 0 0 1 4.43 5.27l-116.04 97.37a3.45 3.45 0 0 1-4.85-.42ZM95.56 458.57a3.45 3.45 0 0 1 .42-4.85l21.1-17.7a3.44 3.44 0 1 1 4.43 5.27l-21.1 17.7a3.44 3.44 0 0 1-4.85-.42ZM127.2 432a3.44 3.44 0 0 1 .42-4.85l116.04-97.37a3.44 3.44 0 1 1 4.43 5.27l-116.04 97.38a3.44 3.44 0 0 1-4.85-.43Zm126.6-106.2a3.45 3.45 0 0 1 .42-4.85l21.1-17.7a3.44 3.44 0 1 1 4.43 5.27l-21.1 17.7a3.45 3.45 0 0 1-4.85-.42Zm31.64-26.56a3.45 3.45 0 0 1 .43-4.85l116.04-97.37a3.44 3.44 0 1 1 4.43 5.28L290.3 299.66a3.45 3.45 0 0 1-4.86-.43Zm126.6-106.22a3.45 3.45 0 0 1 .42-4.85l21.1-17.7a3.44 3.44 0 1 1 4.43 5.27l-21.1 17.7a3.44 3.44 0 0 1-4.85-.42Zm31.64-26.55a3.45 3.45 0 0 1 .43-4.86l116.04-97.37a3.44 3.44 0 0 1 4.43 5.28l-116.05 97.37a3.45 3.45 0 0 1-4.85-.42Zm126.6-106.23a3.45 3.45 0 0 1 .42-4.85l21.1-17.7a3.44 3.44 0 1 1 4.42 5.27l-21.1 17.7a3.45 3.45 0 0 1-4.85-.42Zm31.64-26.55a3.45 3.45 0 0 1 .43-4.85l116.04-97.37a3.44 3.44 0 0 1 4.43 5.27L606.77 34.1a3.45 3.45 0 0 1-4.85-.42Zm126.6-106.23a3.44 3.44 0 0 1 .42-4.85l21.1-17.7a3.44 3.44 0 0 1 4.42 5.27l-21.1 17.7a3.45 3.45 0 0 1-4.85-.42Zm31.64-26.55a3.45 3.45 0 0 1 .43-4.85l44.3-37.18a3.45 3.45 0 0 1 4.43 5.27l-44.3 37.18a3.45 3.45 0 0 1-4.86-.42ZM-32.09 565.67a4.82 4.82 0 0 0 6.8.6L90.73 468.9a4.82 4.82 0 1 0-6.2-7.39L-31.48 558.9a4.82 4.82 0 0 0-.6 6.78Zm126.6-106.22a4.82 4.82 0 0 0 6.78.6l21.1-17.7a4.82 4.82 0 0 0-6.2-7.4l-21.1 17.71a4.82 4.82 0 0 0-.59 6.8Zm31.64-26.55a4.82 4.82 0 0 0 6.8.6l116.03-97.38a4.82 4.82 0 0 0-6.2-7.38L126.76 426.1a4.83 4.83 0 0 0-.6 6.79Zm126.6-106.23a4.82 4.82 0 0 0 6.78.6l21.1-17.7a4.82 4.82 0 1 0-6.2-7.39l-21.1 17.7a4.82 4.82 0 0 0-.59 6.8Zm31.64-26.55a4.82 4.82 0 0 0 6.79.6l116.04-97.38a4.82 4.82 0 1 0-6.2-7.38l-116.04 97.37a4.82 4.82 0 0 0-.59 6.79Zm126.6-106.22a4.82 4.82 0 0 0 6.78.59l21.1-17.7a4.82 4.82 0 0 0-6.2-7.39l-21.1 17.7a4.82 4.82 0 0 0-.59 6.8Zm31.64-26.56a4.82 4.82 0 0 0 6.79.6l116.04-97.38a4.82 4.82 0 1 0-6.2-7.38l-116.04 97.37a4.82 4.82 0 0 0-.6 6.79ZM569.22 61.12a4.82 4.82 0 0 0 6.8.6L597.1 44a4.82 4.82 0 0 0-6.2-7.39l-21.1 17.7a4.82 4.82 0 0 0-.59 6.8Zm31.65-26.56a4.82 4.82 0 0 0 6.79.6L723.7-62.22a4.82 4.82 0 1 0-6.2-7.38L601.46 27.77a4.82 4.82 0 0 0-.6 6.8ZM727.46-71.66a4.82 4.82 0 0 0 6.79.6l21.1-17.71a4.82 4.82 0 1 0-6.2-7.39l-21.1 17.7a4.82 4.82 0 0 0-.6 6.8Zm31.65-26.56a4.82 4.82 0 0 0 6.79.6l44.3-37.18a4.82 4.82 0 0 0-6.2-7.38l-44.3 37.17a4.82 4.82 0 0 0-.6 6.8ZM-46.97 545.8a3.45 3.45 0 0 1 .43-4.85l84.4-70.82a3.44 3.44 0 1 1 4.42 5.28l-84.4 70.81a3.44 3.44 0 0 1-4.85-.42Zm94.95-79.67a3.44 3.44 0 0 1 .42-4.85l211-177.04a3.44 3.44 0 0 1 4.42 5.28L52.83 466.56a3.44 3.44 0 0 1-4.85-.43ZM269.5 280.24a3.45 3.45 0 0 1 .43-4.85l84.4-70.81a3.44 3.44 0 1 1 4.42 5.27l-84.4 70.82a3.45 3.45 0 0 1-4.85-.43Zm94.95-79.66a3.45 3.45 0 0 1 .42-4.86l211-177.02a3.44 3.44 0 0 1 4.42 5.27L369.31 201a3.45 3.45 0 0 1-4.85-.42Zm221.53-185.9a3.44 3.44 0 0 1 .42-4.84l84.4-70.82a3.44 3.44 0 1 1 4.43 5.28l-84.4 70.81a3.45 3.45 0 0 1-4.85-.42Zm94.94-79.66a3.45 3.45 0 0 1 .43-4.85l107.6-90.3a3.44 3.44 0 1 1 4.43 5.28l-107.6 90.3a3.45 3.45 0 0 1-4.86-.43ZM-48.02 546.68a4.82 4.82 0 0 0 6.79.6l84.4-70.82a4.82 4.82 0 0 0-6.2-7.38l-84.4 70.81a4.82 4.82 0 0 0-.6 6.8Zm94.94-79.66a4.82 4.82 0 0 0 6.8.6L264.7 290.56a4.82 4.82 0 1 0-6.2-7.38L47.52 460.23a4.82 4.82 0 0 0-.6 6.79Zm221.54-185.9a4.82 4.82 0 0 0 6.79.6l84.4-70.81a4.82 4.82 0 0 0-6.2-7.39l-84.4 70.82a4.82 4.82 0 0 0-.6 6.79Zm94.94-79.66a4.82 4.82 0 0 0 6.8.6L581.17 25.02a4.82 4.82 0 1 0-6.2-7.39L363.99 194.67a4.82 4.82 0 0 0-.59 6.8ZM584.93 15.57a4.82 4.82 0 0 0 6.8.6l84.39-70.82a4.82 4.82 0 0 0-6.2-7.38L585.53 8.78a4.82 4.82 0 0 0-.6 6.8Zm94.95-79.67a4.82 4.82 0 0 0 6.79.6l107.6-90.3a4.82 4.82 0 0 0-6.2-7.38l-107.6 90.3a4.82 4.82 0 0 0-.6 6.78ZM-62.9 526.81a3.45 3.45 0 0 1 .42-4.85l63.3-53.11a3.45 3.45 0 0 1 4.43 5.27l-63.3 53.12a3.45 3.45 0 0 1-4.85-.43Zm73.85-61.96a3.45 3.45 0 0 1 .42-4.85l63.3-53.11a3.44 3.44 0 1 1 4.42 5.27l-63.3 53.11a3.44 3.44 0 0 1-4.84-.42Zm73.84-61.97a3.45 3.45 0 0 1 .42-4.85l63.3-53.1a3.44 3.44 0 0 1 4.43 5.27l-63.3 53.1a3.45 3.45 0 0 1-4.85-.42Zm73.84-61.96a3.45 3.45 0 0 1 .43-4.85l63.3-53.11a3.45 3.45 0 0 1 4.42 5.28l-63.3 53.1a3.44 3.44 0 0 1-4.84-.42Zm73.85-61.96a3.45 3.45 0 0 1 .42-4.85L296.2 221a3.44 3.44 0 1 1 4.43 5.27l-63.3 53.11a3.44 3.44 0 0 1-4.85-.42ZM306.32 217a3.45 3.45 0 0 1 .43-4.85l63.3-53.12a3.44 3.44 0 1 1 4.42 5.28l-63.3 53.1a3.44 3.44 0 0 1-4.85-.41Zm73.85-61.97a3.45 3.45 0 0 1 .42-4.85l63.3-53.11a3.44 3.44 0 1 1 4.43 5.28l-63.3 53.1a3.45 3.45 0 0 1-4.85-.42Zm73.84-61.96a3.45 3.45 0 0 1 .43-4.85l63.3-53.11a3.44 3.44 0 1 1 4.42 5.27l-63.3 53.11a3.45 3.45 0 0 1-4.85-.42Zm73.85-61.96a3.44 3.44 0 0 1 .42-4.86l63.3-53.1a3.44 3.44 0 1 1 4.43 5.27l-63.3 53.11a3.45 3.45 0 0 1-4.85-.42Zm73.85-61.97a3.44 3.44 0 0 1 .42-4.85l63.3-53.11a3.44 3.44 0 1 1 4.42 5.28l-63.3 53.1a3.45 3.45 0 0 1-4.84-.42Zm73.84-61.96a3.45 3.45 0 0 1 .42-4.85l63.3-53.11a3.44 3.44 0 0 1 4.43 5.27L680.4-92.4a3.45 3.45 0 0 1-4.85-.42Zm73.84-61.96a3.45 3.45 0 0 1 .43-4.85l23.2-19.48a3.44 3.44 0 0 1 4.43 5.28l-23.2 19.47a3.45 3.45 0 0 1-4.86-.42ZM-63.95 527.7a4.82 4.82 0 0 0 6.79.6l63.3-53.12a4.82 4.82 0 0 0-6.2-7.38l-63.3 53.1a4.82 4.82 0 0 0-.6 6.8Zm73.84-61.97a4.82 4.82 0 0 0 6.8.6l63.29-53.11a4.82 4.82 0 0 0-6.2-7.39l-63.3 53.11a4.82 4.82 0 0 0-.59 6.8Zm73.85-61.96a4.82 4.82 0 0 0 6.79.6l63.3-53.12a4.82 4.82 0 1 0-6.2-7.38l-63.3 53.11a4.82 4.82 0 0 0-.6 6.79Zm73.84-61.96a4.82 4.82 0 0 0 6.8.6l63.29-53.12a4.82 4.82 0 1 0-6.2-7.39l-63.3 53.12a4.82 4.82 0 0 0-.59 6.79Zm73.84-61.97a4.82 4.82 0 0 0 6.8.6l63.3-53.11a4.82 4.82 0 1 0-6.2-7.39l-63.3 53.11a4.82 4.82 0 0 0-.6 6.8Zm73.85-61.96a4.83 4.83 0 0 0 6.79.6l63.3-53.12a4.82 4.82 0 0 0-6.2-7.38l-63.3 53.11a4.82 4.82 0 0 0-.59 6.79Zm73.85-61.96a4.82 4.82 0 0 0 6.78.6l63.3-53.12a4.82 4.82 0 0 0-6.2-7.38l-63.3 53.1a4.82 4.82 0 0 0-.58 6.8Zm73.84-61.97a4.82 4.82 0 0 0 6.79.6l63.3-53.11a4.82 4.82 0 0 0-6.2-7.39l-63.3 53.11a4.82 4.82 0 0 0-.59 6.8ZM526.8 32a4.82 4.82 0 0 0 6.8.6l63.3-53.12a4.82 4.82 0 1 0-6.2-7.38l-63.3 53.1a4.82 4.82 0 0 0-.6 6.8Zm73.85-61.96a4.82 4.82 0 0 0 6.79.6l63.3-53.12a4.82 4.82 0 1 0-6.2-7.38l-63.3 53.1a4.82 4.82 0 0 0-.59 6.8Zm73.85-61.97a4.82 4.82 0 0 0 6.78.6l63.3-53.11a4.82 4.82 0 0 0-6.2-7.39l-63.3 53.11a4.82 4.82 0 0 0-.59 6.8Zm73.84-61.96a4.82 4.82 0 0 0 6.79.6l23.2-19.48a4.82 4.82 0 1 0-6.19-7.38l-23.2 19.47a4.82 4.82 0 0 0-.6 6.8ZM-78.83 507.82a3.45 3.45 0 0 1 .42-4.85L48.2 396.75a3.44 3.44 0 1 1 4.42 5.27L-74 508.25a3.45 3.45 0 0 1-4.84-.43ZM58.3 392.75a3.44 3.44 0 0 1 .42-4.85l31.65-26.56a3.44 3.44 0 1 1 4.43 5.28l-31.65 26.55a3.44 3.44 0 0 1-4.85-.42Zm42.2-35.4a3.45 3.45 0 0 1 .42-4.86l126.59-106.22a3.45 3.45 0 0 1 4.43 5.27l-126.6 106.22a3.45 3.45 0 0 1-4.85-.42Zm137.14-115.08a3.45 3.45 0 0 1 .42-4.85l31.65-26.56a3.44 3.44 0 1 1 4.42 5.27L242.5 242.7a3.45 3.45 0 0 1-4.85-.42Zm42.2-35.41a3.45 3.45 0 0 1 .42-4.85l126.6-106.22a3.44 3.44 0 1 1 4.42 5.27L284.7 207.28a3.45 3.45 0 0 1-4.85-.42ZM416.97 91.78a3.44 3.44 0 0 1 .43-4.85l31.64-26.55a3.44 3.44 0 1 1 4.43 5.27l-31.65 26.56a3.45 3.45 0 0 1-4.85-.43Zm42.2-35.4a3.45 3.45 0 0 1 .42-4.85L586.2-54.7a3.44 3.44 0 0 1 4.42 5.28L464.03 56.8a3.45 3.45 0 0 1-4.85-.42ZM596.32-58.7a3.44 3.44 0 0 1 .42-4.85L628.4-90.1a3.45 3.45 0 0 1 4.43 5.27l-31.65 26.56a3.45 3.45 0 0 1-4.85-.43Zm42.2-35.4a3.45 3.45 0 0 1 .42-4.86L757.1-198.1a3.44 3.44 0 1 1 4.43 5.28L643.37-93.68a3.45 3.45 0 0 1-4.85-.43Zm-718.4 602.8a4.82 4.82 0 0 0 6.78.6L53.5 403.08a4.82 4.82 0 0 0-6.2-7.38L-79.3 501.91a4.82 4.82 0 0 0-.59 6.79ZM57.24 393.64a4.82 4.82 0 0 0 6.8.6l31.64-26.56a4.82 4.82 0 0 0-6.2-7.38l-31.64 26.55a4.82 4.82 0 0 0-.6 6.8Zm42.2-35.4a4.82 4.82 0 0 0 6.79.59l126.6-106.22a4.82 4.82 0 1 0-6.2-7.39l-126.6 106.23a4.82 4.82 0 0 0-.6 6.79Zm137.14-115.08a4.82 4.82 0 0 0 6.79.6l31.65-26.56a4.82 4.82 0 1 0-6.2-7.38l-31.65 26.55a4.82 4.82 0 0 0-.59 6.8Zm42.2-35.4a4.82 4.82 0 0 0 6.79.59l126.6-106.25a4.82 4.82 0 1 0-6.2-7.38L279.38 200.95a4.82 4.82 0 0 0-.6 6.8Zm137.15-115.1a4.82 4.82 0 0 0 6.79.6l31.65-26.56a4.82 4.82 0 0 0-6.2-7.39l-31.65 26.56a4.82 4.82 0 0 0-.6 6.79Zm42.2-35.4a4.82 4.82 0 0 0 6.79.59L591.5-48.37a4.82 4.82 0 1 0-6.2-7.38L458.71 50.47a4.82 4.82 0 0 0-.58 6.8ZM595.25-57.82a4.82 4.82 0 0 0 6.8.6l31.64-26.56a4.82 4.82 0 1 0-6.2-7.39L595.87-64.6a4.82 4.82 0 0 0-.6 6.79Zm42.2-35.41a4.82 4.82 0 0 0 6.8.6l118.14-99.15a4.82 4.82 0 1 0-6.2-7.38l-118.14 99.14a4.82 4.82 0 0 0-.6 6.79ZM-94.77 488.83a3.45 3.45 0 0 1 .43-4.85l31.65-26.55a3.45 3.45 0 0 1 4.42 5.27l-31.65 26.56a3.45 3.45 0 0 1-4.85-.43Zm42.2-35.4a3.45 3.45 0 0 1 .42-4.85l126.6-106.23a3.44 3.44 0 1 1 4.42 5.28L-47.72 453.85a3.44 3.44 0 0 1-4.85-.42ZM84.57 338.35a3.45 3.45 0 0 1 .43-4.85l31.64-26.55a3.44 3.44 0 1 1 4.43 5.27l-31.65 26.56a3.44 3.44 0 0 1-4.85-.43Zm42.2-35.4a3.45 3.45 0 0 1 .42-4.85l126.6-106.23a3.44 3.44 0 1 1 4.42 5.28L131.6 303.37a3.45 3.45 0 0 1-4.84-.43ZM263.9 187.87a3.45 3.45 0 0 1 .42-4.85l31.65-26.56a3.44 3.44 0 1 1 4.43 5.28l-31.65 26.55a3.44 3.44 0 0 1-4.85-.42Zm42.2-35.4a3.45 3.45 0 0 1 .42-4.86L433.13 41.4a3.44 3.44 0 0 1 4.42 5.27L310.95 152.9a3.45 3.45 0 0 1-4.84-.43ZM443.25 37.38a3.44 3.44 0 0 1 .42-4.85l31.65-26.56a3.44 3.44 0 0 1 4.42 5.28L448.1 37.8a3.44 3.44 0 0 1-4.85-.42Zm42.2-35.4a3.44 3.44 0 0 1 .42-4.86L612.46-109.1a3.44 3.44 0 1 1 4.42 5.27L490.3 2.4a3.45 3.45 0 0 1-4.85-.42ZM622.57-113.1a3.45 3.45 0 0 1 .43-4.85l31.65-26.56a3.44 3.44 0 1 1 4.42 5.28l-31.65 26.55a3.45 3.45 0 0 1-4.85-.42Zm42.2-35.41a3.45 3.45 0 0 1 .43-4.85l75.95-63.74a3.44 3.44 0 1 1 4.43 5.28l-75.96 63.73a3.44 3.44 0 0 1-4.85-.42Zm-760.6 638.22a4.82 4.82 0 0 0 6.79.6l31.65-26.56a4.82 4.82 0 1 0-6.2-7.39l-31.65 26.56a4.82 4.82 0 0 0-.6 6.79Zm42.2-35.4a4.82 4.82 0 0 0 6.79.59l126.6-106.22a4.82 4.82 0 0 0-6.2-7.38l-126.6 106.22a4.82 4.82 0 0 0-.58 6.8ZM83.52 339.23a4.82 4.82 0 0 0 6.79.6l31.64-26.56a4.82 4.82 0 0 0-6.2-7.39l-31.64 26.56a4.82 4.82 0 0 0-.6 6.79Zm42.2-35.41a4.82 4.82 0 0 0 6.78.6L259.1 198.2a4.82 4.82 0 0 0-6.2-7.38L126.3 297.04a4.82 4.82 0 0 0-.59 6.79Zm137.13-115.07a4.82 4.82 0 0 0 6.8.59l31.64-26.56a4.82 4.82 0 0 0-6.2-7.38l-31.64 26.56a4.82 4.82 0 0 0-.6 6.79Zm42.2-35.41a4.82 4.82 0 0 0 6.8.6L438.42 47.71a4.82 4.82 0 1 0-6.2-7.39L305.65 146.56a4.82 4.82 0 0 0-.59 6.79ZM442.2 38.27a4.82 4.82 0 0 0 6.8.6l31.64-26.56a4.82 4.82 0 1 0-6.2-7.38L442.8 31.48a4.82 4.82 0 0 0-.6 6.8Zm42.2-35.4a4.82 4.82 0 0 0 6.79.59l126.59-106.22a4.82 4.82 0 0 0-6.2-7.39L484.98-3.92a4.82 4.82 0 0 0-.6 6.79Zm137.14-115.08a4.83 4.83 0 0 0 6.79.6l31.65-26.56a4.82 4.82 0 0 0-6.2-7.39L622.12-119a4.82 4.82 0 0 0-.6 6.8Zm42.2-35.4a4.82 4.82 0 0 0 6.79.59l75.95-63.74a4.83 4.83 0 0 0-6.2-7.38l-75.95 63.73a4.82 4.82 0 0 0-.6 6.8ZM-110.7 469.85a3.44 3.44 0 0 1 .42-4.85L69.06 314.5a3.44 3.44 0 1 1 4.43 5.28l-179.34 150.48a3.44 3.44 0 0 1-4.85-.42ZM79.19 310.5a3.44 3.44 0 0 1 .42-4.85l179.34-150.48a3.44 3.44 0 1 1 4.42 5.28L84.04 310.94a3.44 3.44 0 0 1-4.85-.43Zm189.88-159.33a3.45 3.45 0 0 1 .43-4.85L448.83-4.15a3.44 3.44 0 0 1 4.43 5.27L273.92 151.6a3.44 3.44 0 0 1-4.85-.42ZM458.96-8.16a3.44 3.44 0 0 1 .43-4.85l179.33-150.48a3.45 3.45 0 0 1 4.43 5.28L463.8-7.73a3.45 3.45 0 0 1-4.85-.43Zm189.89-159.33a3.44 3.44 0 0 1 .42-4.85l75.96-63.73a3.44 3.44 0 0 1 4.42 5.27l-75.95 63.74a3.45 3.45 0 0 1-4.85-.43Zm-760.6 638.22a4.82 4.82 0 0 0 6.78.6L74.38 320.84a4.82 4.82 0 1 0-6.2-7.38l-179.33 150.48a4.82 4.82 0 0 0-.6 6.8ZM78.13 311.4a4.82 4.82 0 0 0 6.8.6l179.33-150.5a4.82 4.82 0 1 0-6.2-7.38L78.73 304.62a4.82 4.82 0 0 0-.6 6.79Zm189.89-159.34a4.82 4.82 0 0 0 6.79.6L454.15 2.18a4.82 4.82 0 1 0-6.2-7.39L268.61 145.27a4.82 4.82 0 0 0-.6 6.8ZM457.9-7.27a4.82 4.82 0 0 0 6.8.6l179.33-150.49a4.82 4.82 0 0 0-6.2-7.38L458.5-14.06a4.82 4.82 0 0 0-.6 6.79ZM647.8-166.6a4.82 4.82 0 0 0 6.78.59l75.96-63.73a4.82 4.82 0 0 0-6.2-7.39L648.4-173.4a4.82 4.82 0 0 0-.6 6.8Zm-774.43 617.46a3.45 3.45 0 0 1 .42-4.85l63.3-53.12a3.44 3.44 0 0 1 4.42 5.28l-63.3 53.11a3.44 3.44 0 0 1-4.84-.42Zm73.84-61.97a3.45 3.45 0 0 1 .43-4.85l63.3-53.1a3.44 3.44 0 1 1 4.42 5.27l-63.3 53.1a3.45 3.45 0 0 1-4.85-.42Zm73.85-61.96a3.45 3.45 0 0 1 .42-4.85l63.3-53.11a3.44 3.44 0 1 1 4.42 5.27l-63.3 53.11a3.45 3.45 0 0 1-4.84-.42Zm73.84-61.96a3.44 3.44 0 0 1 .42-4.85l63.3-53.12a3.44 3.44 0 1 1 4.43 5.28l-63.3 53.11a3.44 3.44 0 0 1-4.85-.42ZM168.75 203a3.44 3.44 0 0 1 .42-4.85l63.3-53.1a3.44 3.44 0 1 1 4.42 5.27l-63.3 53.1a3.45 3.45 0 0 1-4.84-.42Zm73.84-61.96a3.45 3.45 0 0 1 .42-4.85l63.3-53.11a3.44 3.44 0 0 1 4.43 5.27l-63.3 53.11a3.45 3.45 0 0 1-4.85-.42Zm73.84-61.96a3.45 3.45 0 0 1 .43-4.85l63.3-53.12a3.44 3.44 0 0 1 4.42 5.28l-63.3 53.11a3.45 3.45 0 0 1-4.84-.42Zm73.85-61.97a3.44 3.44 0 0 1 .43-4.85L454-40.84a3.44 3.44 0 0 1 4.43 5.27l-63.3 53.1a3.45 3.45 0 0 1-4.85-.42Zm73.85-61.96a3.44 3.44 0 0 1 .42-4.85l63.3-53.11a3.45 3.45 0 0 1 4.42 5.27l-63.3 53.11a3.45 3.45 0 0 1-4.85-.42Zm73.84-61.96a3.45 3.45 0 0 1 .42-4.85l63.3-53.12a3.44 3.44 0 0 1 4.43 5.28l-63.3 53.11a3.44 3.44 0 0 1-4.85-.42Zm73.85-61.97a3.45 3.45 0 0 1 .42-4.85l63.3-53.1a3.44 3.44 0 1 1 4.42 5.27l-63.3 53.1a3.45 3.45 0 0 1-4.84-.42Zm73.84-61.96a3.45 3.45 0 0 1 .42-4.85l23.21-19.47a3.44 3.44 0 1 1 4.43 5.27l-23.21 19.47a3.45 3.45 0 0 1-4.85-.42Zm-813.35 682.48a4.82 4.82 0 0 0 6.8.6l63.29-53.12a4.82 4.82 0 0 0-6.2-7.38l-63.3 53.11a4.82 4.82 0 0 0-.59 6.8Zm73.85-61.96a4.82 4.82 0 0 0 6.79.6l63.3-53.12a4.82 4.82 0 0 0-6.2-7.38l-63.3 53.1a4.82 4.82 0 0 0-.6 6.8ZM20 327.82a4.82 4.82 0 0 0 6.8.59l63.29-53.11a4.82 4.82 0 0 0-6.2-7.39l-63.3 53.11a4.82 4.82 0 0 0-.59 6.8Zm73.85-61.97a4.82 4.82 0 0 0 6.79.6l63.3-53.12a4.82 4.82 0 1 0-6.2-7.38l-63.3 53.11a4.82 4.82 0 0 0-.6 6.8Zm73.84-61.96a4.82 4.82 0 0 0 6.8.6l63.29-53.12a4.82 4.82 0 0 0-6.2-7.38l-63.3 53.1a4.82 4.82 0 0 0-.59 6.8Zm73.85-61.96a4.82 4.82 0 0 0 6.79.59l63.3-53.11a4.82 4.82 0 1 0-6.2-7.39l-63.3 53.11a4.82 4.82 0 0 0-.6 6.8Zm73.84-61.97a4.82 4.82 0 0 0 6.8.6l63.29-53.12a4.82 4.82 0 0 0-6.2-7.38l-63.3 53.11a4.82 4.82 0 0 0-.59 6.8ZM389.23 18a4.82 4.82 0 0 0 6.79.6l63.3-53.12a4.82 4.82 0 1 0-6.2-7.38l-63.3 53.1a4.82 4.82 0 0 0-.6 6.8Zm73.84-61.96a4.82 4.82 0 0 0 6.8.59l63.29-53.11a4.82 4.82 0 1 0-6.2-7.39l-63.3 53.12a4.82 4.82 0 0 0-.59 6.79Zm73.84-61.97a4.83 4.83 0 0 0 6.8.6l63.3-53.11a4.82 4.82 0 1 0-6.2-7.39l-63.3 53.11a4.82 4.82 0 0 0-.6 6.8Zm73.85-61.96a4.82 4.82 0 0 0 6.8.6l63.29-53.12a4.83 4.83 0 0 0-6.2-7.38l-63.3 53.1a4.82 4.82 0 0 0-.59 6.8Zm73.85-61.96a4.82 4.82 0 0 0 6.78.59l23.21-19.47a4.82 4.82 0 0 0-6.2-7.39l-23.2 19.47a4.82 4.82 0 0 0-.6 6.8Zm-827.18 661.72a3.44 3.44 0 0 1 .43-4.85l116.04-97.37a3.45 3.45 0 0 1 4.43 5.27l-116.05 97.37a3.45 3.45 0 0 1-4.85-.42Zm126.6-106.23a3.45 3.45 0 0 1 .42-4.84l116.04-97.38a3.44 3.44 0 1 1 4.43 5.28l-116.05 97.37a3.45 3.45 0 0 1-4.85-.43Zm126.59-106.22a3.45 3.45 0 0 1 .42-4.85l116.04-97.37a3.44 3.44 0 0 1 4.43 5.28l-116.04 97.37a3.44 3.44 0 0 1-4.85-.43ZM237.2 113.2a3.44 3.44 0 0 1 .42-4.85l116.04-97.37a3.44 3.44 0 0 1 4.43 5.27l-116.04 97.37a3.45 3.45 0 0 1-4.85-.42ZM363.8 6.98a3.45 3.45 0 0 1 .42-4.85l116.04-97.37a3.44 3.44 0 1 1 4.43 5.27L368.65 7.4a3.45 3.45 0 0 1-4.85-.42ZM490.39-99.25a3.44 3.44 0 0 1 .42-4.85l116.05-97.37a3.44 3.44 0 0 1 4.42 5.28L495.24-98.82a3.45 3.45 0 0 1-4.85-.43Zm126.6-106.22a3.45 3.45 0 0 1 .41-4.85l75.96-63.73a3.45 3.45 0 0 1 4.43 5.27l-75.96 63.74a3.45 3.45 0 0 1-4.85-.43Zm-760.61 638.22a4.82 4.82 0 0 0 6.79.6l116.04-97.37a4.82 4.82 0 1 0-6.2-7.39l-116.04 97.37a4.82 4.82 0 0 0-.6 6.8Zm126.59-106.22a4.82 4.82 0 0 0 6.79.6l116.04-97.38a4.82 4.82 0 0 0-6.2-7.38l-116.04 97.37a4.82 4.82 0 0 0-.59 6.79Zm126.6-106.22a4.82 4.82 0 0 0 6.78.6l116.04-97.38a4.82 4.82 0 1 0-6.2-7.38l-116.03 97.37a4.82 4.82 0 0 0-.6 6.79Zm126.58-106.23a4.82 4.82 0 0 0 6.8.6L358.98 17.3a4.82 4.82 0 1 0-6.2-7.39L236.75 107.3a4.82 4.82 0 0 0-.6 6.78ZM362.75 7.86a4.82 4.82 0 0 0 6.78.6l116.05-97.37a4.82 4.82 0 0 0-6.2-7.39L363.34 1.07a4.82 4.82 0 0 0-.6 6.8ZM489.32-98.36a4.82 4.82 0 0 0 6.8.6l116.04-97.38a4.83 4.83 0 0 0-6.2-7.38l-116.04 97.37a4.82 4.82 0 0 0-.6 6.79Zm126.6-106.22a4.82 4.82 0 0 0 6.79.6l75.95-63.74a4.82 4.82 0 1 0-6.2-7.39l-75.95 63.74a4.82 4.82 0 0 0-.6 6.79ZM-158.5 412.88a3.45 3.45 0 0 1 .42-4.85l52.75-44.26a3.45 3.45 0 0 1 4.43 5.27l-52.75 44.26a3.45 3.45 0 0 1-4.85-.42Zm63.3-53.11a3.45 3.45 0 0 1 .42-4.85l52.75-44.26a3.45 3.45 0 0 1 4.42 5.27l-52.74 44.26a3.45 3.45 0 0 1-4.85-.42Zm63.3-53.11a3.45 3.45 0 0 1 .42-4.85l52.74-44.26a3.44 3.44 0 1 1 4.43 5.27l-52.75 44.26a3.45 3.45 0 0 1-4.85-.42Zm63.29-53.11a3.45 3.45 0 0 1 .42-4.86l52.75-44.25a3.45 3.45 0 0 1 4.42 5.27l-52.74 44.26a3.45 3.45 0 0 1-4.85-.42Zm63.3-53.12a3.45 3.45 0 0 1 .42-4.85l52.74-44.26a3.44 3.44 0 0 1 4.43 5.28l-52.75 44.26a3.45 3.45 0 0 1-4.85-.43Zm63.29-53.1a3.45 3.45 0 0 1 .42-4.86l52.75-44.26a3.44 3.44 0 1 1 4.42 5.28l-52.74 44.26a3.45 3.45 0 0 1-4.85-.43Zm63.3-53.12a3.44 3.44 0 0 1 .42-4.85l52.74-44.26a3.44 3.44 0 0 1 4.43 5.28l-52.75 44.26a3.45 3.45 0 0 1-4.85-.43Zm63.29-53.11a3.44 3.44 0 0 1 .42-4.85l52.75-44.26a3.44 3.44 0 1 1 4.43 5.28l-52.75 44.25a3.45 3.45 0 0 1-4.85-.42Zm63.3-53.11a3.45 3.45 0 0 1 .42-4.85l52.75-44.26a3.44 3.44 0 1 1 4.42 5.27l-52.75 44.26a3.45 3.45 0 0 1-4.84-.42Zm63.3-53.11a3.44 3.44 0 0 1 .41-4.85l52.75-44.26a3.45 3.45 0 0 1 4.43 5.27L416-64.7a3.45 3.45 0 0 1-4.85-.42Zm63.29-53.11a3.44 3.44 0 0 1 .42-4.85l52.75-44.26a3.44 3.44 0 1 1 4.42 5.27l-52.74 44.26a3.44 3.44 0 0 1-4.85-.42Zm63.3-53.11a3.45 3.45 0 0 1 .42-4.86l52.74-44.26a3.44 3.44 0 1 1 4.43 5.28l-52.75 44.26a3.45 3.45 0 0 1-4.85-.43Zm63.29-53.12a3.45 3.45 0 0 1 .42-4.85l52.75-44.26a3.45 3.45 0 0 1 4.42 5.28l-52.74 44.26a3.44 3.44 0 0 1-4.85-.43Zm63.3-53.1a3.45 3.45 0 0 1 .42-4.86l12.66-10.62a3.44 3.44 0 0 1 4.42 5.27l-12.66 10.63a3.44 3.44 0 0 1-4.85-.43Zm-823.9 691.33a4.82 4.82 0 0 0 6.79.59l52.74-44.26a4.82 4.82 0 1 0-6.2-7.39l-52.74 44.26a4.82 4.82 0 0 0-.6 6.8Zm63.3-53.12a4.82 4.82 0 0 0 6.78.6l52.75-44.26a4.82 4.82 0 0 0-6.2-7.39l-52.75 44.26a4.82 4.82 0 0 0-.59 6.8Zm63.29-53.1a4.82 4.82 0 0 0 6.79.59l52.74-44.26a4.82 4.82 0 0 0-6.2-7.39l-52.74 44.26a4.82 4.82 0 0 0-.6 6.8Zm63.3-53.12a4.82 4.82 0 0 0 6.78.6l52.75-44.27a4.82 4.82 0 1 0-6.2-7.38l-52.74 44.26a4.82 4.82 0 0 0-.6 6.8Zm63.29-53.11a4.82 4.82 0 0 0 6.79.6l52.74-44.27a4.83 4.83 0 0 0-6.2-7.38l-52.74 44.26a4.82 4.82 0 0 0-.6 6.79Zm63.3-53.11a4.82 4.82 0 0 0 6.78.6l52.75-44.27a4.82 4.82 0 0 0-6.2-7.38l-52.74 44.26a4.82 4.82 0 0 0-.6 6.79Zm63.29-53.11a4.82 4.82 0 0 0 6.79.6l52.75-44.27a4.82 4.82 0 1 0-6.2-7.38L220.8 88.3a4.82 4.82 0 0 0-.6 6.79Zm63.3-53.11a4.82 4.82 0 0 0 6.79.59l52.74-44.26a4.82 4.82 0 0 0-6.2-7.38l-52.74 44.25a4.82 4.82 0 0 0-.6 6.8Zm63.29-53.12a4.82 4.82 0 0 0 6.79.6l52.75-44.26a4.82 4.82 0 1 0-6.2-7.39L347.4-17.92a4.82 4.82 0 0 0-.59 6.8Zm63.3-53.1a4.82 4.82 0 0 0 6.79.59l52.74-44.26a4.82 4.82 0 1 0-6.2-7.39L410.7-71.03a4.82 4.82 0 0 0-.6 6.8Zm63.3-53.12a4.82 4.82 0 0 0 6.78.6l52.75-44.26a4.82 4.82 0 0 0-6.2-7.39L474-124.14a4.82 4.82 0 0 0-.59 6.8Zm63.29-53.11a4.82 4.82 0 0 0 6.79.6l52.74-44.26a4.82 4.82 0 0 0-6.2-7.39l-52.74 44.26a4.82 4.82 0 0 0-.6 6.79Zm63.3-53.11a4.82 4.82 0 0 0 6.78.6l52.75-44.27a4.82 4.82 0 1 0-6.2-7.38l-52.74 44.26a4.82 4.82 0 0 0-.6 6.79Zm63.29-53.11a4.83 4.83 0 0 0 6.79.6l12.66-10.63a4.82 4.82 0 0 0-6.2-7.39l-12.66 10.63a4.82 4.82 0 0 0-.6 6.79ZM-190.37 374.9a3.44 3.44 0 0 1 .43-4.85l84.4-70.81a3.45 3.45 0 0 1 4.42 5.27l-84.4 70.81a3.45 3.45 0 0 1-4.85-.42Zm94.95-79.67a3.45 3.45 0 0 1 .42-4.85l31.65-26.55a3.44 3.44 0 1 1 4.42 5.27l-31.64 26.56a3.44 3.44 0 0 1-4.85-.43Zm42.2-35.4a3.44 3.44 0 0 1 .42-4.85l84.4-70.82a3.44 3.44 0 1 1 4.42 5.28l-84.4 70.81a3.44 3.44 0 0 1-4.85-.42Zm94.94-79.67a3.44 3.44 0 0 1 .42-4.85l31.65-26.56a3.44 3.44 0 0 1 4.42 5.28l-31.64 26.55a3.44 3.44 0 0 1-4.85-.42Zm42.2-35.4a3.45 3.45 0 0 1 .42-4.86l84.4-70.81a3.44 3.44 0 0 1 4.42 5.27l-84.4 70.82a3.45 3.45 0 0 1-4.85-.43Zm94.94-79.68a3.45 3.45 0 0 1 .42-4.85l31.65-26.55a3.44 3.44 0 0 1 4.42 5.27l-31.64 26.56a3.44 3.44 0 0 1-4.85-.43Zm42.2-35.4a3.44 3.44 0 0 1 .42-4.85L305.88-46a3.44 3.44 0 1 1 4.42 5.28L225.9 30.1a3.45 3.45 0 0 1-4.85-.42ZM316-50a3.44 3.44 0 0 1 .42-4.85l31.65-26.56a3.44 3.44 0 1 1 4.43 5.28l-31.65 26.55A3.45 3.45 0 0 1 316-50Zm42.2-35.4a3.45 3.45 0 0 1 .42-4.86l84.4-70.81a3.44 3.44 0 0 1 4.42 5.27l-84.4 70.82a3.45 3.45 0 0 1-4.85-.43Zm94.94-79.67a3.45 3.45 0 0 1 .42-4.85l31.65-26.56a3.45 3.45 0 0 1 4.43 5.27l-31.65 26.56a3.45 3.45 0 0 1-4.85-.42Zm42.2-35.41a3.44 3.44 0 0 1 .42-4.85l84.4-70.82a3.44 3.44 0 1 1 4.42 5.28l-84.4 70.81a3.45 3.45 0 0 1-4.85-.42Zm94.94-79.67a3.44 3.44 0 0 1 .42-4.85l31.65-26.56a3.44 3.44 0 1 1 4.43 5.28l-31.65 26.56a3.45 3.45 0 0 1-4.85-.43Zm42.2-35.4a3.45 3.45 0 0 1 .42-4.86l12.66-10.62a3.45 3.45 0 0 1 4.43 5.28l-12.66 10.62a3.45 3.45 0 0 1-4.85-.43Zm-823.9 691.33a4.82 4.82 0 0 0 6.79.59l84.4-70.81a4.82 4.82 0 1 0-6.2-7.39l-84.4 70.82a4.82 4.82 0 0 0-.6 6.79Zm94.94-79.67a4.82 4.82 0 0 0 6.8.6l31.64-26.56a4.82 4.82 0 0 0-6.2-7.39l-31.64 26.56a4.82 4.82 0 0 0-.6 6.79Zm42.2-35.4a4.82 4.82 0 0 0 6.79.59l84.4-70.82a4.82 4.82 0 0 0-6.2-7.38l-84.4 70.81a4.82 4.82 0 0 0-.6 6.8Zm94.94-79.68a4.82 4.82 0 0 0 6.8.6l31.64-26.56a4.82 4.82 0 0 0-6.2-7.38l-31.64 26.55a4.82 4.82 0 0 0-.6 6.8Zm42.2-35.4a4.82 4.82 0 0 0 6.79.6l84.4-70.82a4.82 4.82 0 1 0-6.2-7.39l-84.4 70.82a4.82 4.82 0 0 0-.6 6.79Zm94.94-79.67a4.82 4.82 0 0 0 6.8.6L216.23 40a4.82 4.82 0 1 0-6.2-7.39L178.4 59.18a4.82 4.82 0 0 0-.6 6.79Zm42.2-35.4a4.82 4.82 0 0 0 6.79.59l84.4-70.82a4.82 4.82 0 0 0-6.2-7.38l-84.4 70.81a4.82 4.82 0 0 0-.6 6.8Zm94.94-79.67a4.82 4.82 0 0 0 6.8.59l31.64-26.56a4.82 4.82 0 0 0-6.2-7.38L315.55-55.9a4.82 4.82 0 0 0-.6 6.8Zm42.2-35.41a4.82 4.82 0 0 0 6.79.6l84.4-70.82a4.82 4.82 0 1 0-6.2-7.39l-84.4 70.82a4.82 4.82 0 0 0-.59 6.79Zm94.94-79.67a4.82 4.82 0 0 0 6.8.6l31.64-26.56a4.82 4.82 0 0 0-6.2-7.39l-31.64 26.56a4.82 4.82 0 0 0-.6 6.8Zm42.2-35.4a4.82 4.82 0 0 0 6.8.59l84.39-70.82a4.82 4.82 0 1 0-6.2-7.38l-84.4 70.81a4.82 4.82 0 0 0-.59 6.8Zm94.94-79.67a4.82 4.82 0 0 0 6.8.59l31.64-26.55a4.82 4.82 0 0 0-6.2-7.39l-31.64 26.56a4.82 4.82 0 0 0-.6 6.79Zm42.2-35.41a4.82 4.82 0 0 0 6.8.6l12.65-10.63a4.82 4.82 0 0 0-6.2-7.38l-12.65 10.62a4.82 4.82 0 0 0-.6 6.79ZM-206.3 355.91a3.45 3.45 0 0 1 .42-4.85l147.7-123.92a3.44 3.44 0 1 1 4.42 5.27l-147.69 123.93a3.45 3.45 0 0 1-4.85-.43Zm158.24-132.78a3.44 3.44 0 0 1 .42-4.85l116.05-97.37a3.44 3.44 0 1 1 4.42 5.28L-43.2 223.56a3.44 3.44 0 0 1-4.85-.43ZM78.53 116.91a3.45 3.45 0 0 1 .42-4.85l147.7-123.93a3.44 3.44 0 1 1 4.42 5.28L83.38 117.34a3.45 3.45 0 0 1-4.85-.43ZM236.77-15.87a3.45 3.45 0 0 1 .42-4.85l116.05-97.37a3.44 3.44 0 1 1 4.42 5.28L241.62-15.44a3.45 3.45 0 0 1-4.85-.43Zm126.6-106.22a3.45 3.45 0 0 1 .42-4.85l147.69-123.93a3.44 3.44 0 1 1 4.42 5.28L368.21-121.67a3.45 3.45 0 0 1-4.85-.42ZM521.6-254.87a3.45 3.45 0 0 1 .42-4.85L629.62-350a3.44 3.44 0 1 1 4.43 5.28l-107.6 90.29a3.45 3.45 0 0 1-4.85-.43ZM-207.36 356.8a4.82 4.82 0 0 0 6.8.6l147.69-123.93a4.82 4.82 0 0 0-6.2-7.39l-147.7 123.93a4.82 4.82 0 0 0-.58 6.79Zm158.24-132.78a4.82 4.82 0 0 0 6.8.6l116.04-97.38a4.82 4.82 0 0 0-6.2-7.38l-116.04 97.37a4.82 4.82 0 0 0-.6 6.79ZM77.48 117.8a4.82 4.82 0 0 0 6.79.6L231.96-5.55a4.82 4.82 0 1 0-6.2-7.38L78.07 111.01a4.82 4.82 0 0 0-.6 6.79ZM235.7-14.98a4.82 4.82 0 0 0 6.8.6l116.04-97.38a4.82 4.82 0 0 0-6.2-7.38L236.31-21.77a4.82 4.82 0 0 0-.6 6.79ZM362.3-121.2a4.82 4.82 0 0 0 6.79.59l147.69-123.93a4.82 4.82 0 1 0-6.2-7.38L362.9-128a4.82 4.82 0 0 0-.6 6.8Zm158.23-132.78a4.82 4.82 0 0 0 6.8.6l107.6-90.3a4.82 4.82 0 1 0-6.2-7.38l-107.6 90.29a4.82 4.82 0 0 0-.6 6.79Zm-742.76 590.91a3.44 3.44 0 0 1 .42-4.86l116.04-97.37a3.44 3.44 0 1 1 4.43 5.28l-116.04 97.37a3.44 3.44 0 0 1-4.85-.43ZM-95.64 230.7a3.45 3.45 0 0 1 .42-4.85l21.1-17.7a3.45 3.45 0 0 1 4.43 5.27l-21.1 17.7a3.45 3.45 0 0 1-4.85-.42ZM-64 204.15a3.45 3.45 0 0 1 .42-4.85l116.04-97.38a3.44 3.44 0 1 1 4.43 5.28l-116.04 97.37a3.44 3.44 0 0 1-4.85-.42ZM62.6 97.92a3.45 3.45 0 0 1 .42-4.85l21.1-17.7a3.44 3.44 0 1 1 4.43 5.27l-21.1 17.7a3.45 3.45 0 0 1-4.85-.42Zm31.64-26.55a3.45 3.45 0 0 1 .43-4.85L210.7-30.85a3.44 3.44 0 1 1 4.43 5.27L99.09 71.8a3.45 3.45 0 0 1-4.85-.42Zm126.6-106.22a3.45 3.45 0 0 1 .42-4.86l21.1-17.7a3.44 3.44 0 1 1 4.42 5.28l-21.1 17.7a3.45 3.45 0 0 1-4.84-.42Zm31.64-26.56a3.44 3.44 0 0 1 .43-4.85l116.04-97.37a3.44 3.44 0 0 1 4.43 5.27L257.33-60.99a3.45 3.45 0 0 1-4.85-.42Zm126.6-106.22a3.45 3.45 0 0 1 .42-4.85l21.1-17.7a3.44 3.44 0 1 1 4.42 5.27l-21.1 17.7a3.45 3.45 0 0 1-4.85-.42Zm31.64-26.56a3.45 3.45 0 0 1 .43-4.85l116.04-97.37a3.45 3.45 0 0 1 4.42 5.28l-116.04 97.37a3.45 3.45 0 0 1-4.85-.43Zm126.6-106.22a3.45 3.45 0 0 1 .42-4.85l21.1-17.7a3.44 3.44 0 1 1 4.42 5.27l-21.1 17.7a3.44 3.44 0 0 1-4.85-.42Zm31.64-26.56a3.45 3.45 0 0 1 .43-4.85l44.3-37.18a3.44 3.44 0 0 1 4.43 5.28l-44.3 37.18a3.45 3.45 0 0 1-4.86-.43Zm-792.25 664.78a4.82 4.82 0 0 0 6.8.6l116.03-97.38a4.82 4.82 0 0 0-6.2-7.38l-116.03 97.37a4.82 4.82 0 0 0-.6 6.79Zm126.6-106.22a4.82 4.82 0 0 0 6.78.6l21.1-17.71a4.82 4.82 0 1 0-6.2-7.39l-21.1 17.7a4.82 4.82 0 0 0-.59 6.8Zm31.64-26.56a4.82 4.82 0 0 0 6.8.6l116.03-97.38a4.82 4.82 0 0 0-6.2-7.38l-116.04 97.37a4.82 4.82 0 0 0-.59 6.8ZM61.55 98.81a4.82 4.82 0 0 0 6.78.6l21.1-17.71a4.82 4.82 0 0 0-6.2-7.39l-21.1 17.7a4.82 4.82 0 0 0-.59 6.8Zm31.64-26.56a4.82 4.82 0 0 0 6.79.6l116.04-97.37a4.82 4.82 0 0 0-6.2-7.39L93.79 65.46a4.82 4.82 0 0 0-.59 6.8Zm126.6-106.22a4.82 4.82 0 0 0 6.78.6l21.1-17.71a4.82 4.82 0 0 0-6.2-7.38l-21.1 17.7a4.82 4.82 0 0 0-.59 6.79Zm31.64-26.56a4.82 4.82 0 0 0 6.79.6l116.04-97.37a4.83 4.83 0 0 0-6.2-7.39L252.02-67.32a4.82 4.82 0 0 0-.6 6.8Zm126.59-106.22a4.82 4.82 0 0 0 6.79.6l21.1-17.7a4.82 4.82 0 0 0-6.2-7.4l-21.1 17.71a4.82 4.82 0 0 0-.59 6.8Zm31.65-26.55a4.83 4.83 0 0 0 6.79.59l116.04-97.37a4.82 4.82 0 1 0-6.2-7.38L410.26-200.1a4.82 4.82 0 0 0-.6 6.79Zm126.59-106.23a4.82 4.82 0 0 0 6.79.6l21.1-17.7a4.82 4.82 0 0 0-6.2-7.4l-21.1 17.71a4.82 4.82 0 0 0-.6 6.8Zm31.65-26.55a4.82 4.82 0 0 0 6.79.6l44.3-37.19a4.82 4.82 0 1 0-6.2-7.38l-44.3 37.18a4.82 4.82 0 0 0-.6 6.79Zm-806.08 644.02a3.45 3.45 0 0 1 .43-4.85l84.4-70.82a3.45 3.45 0 0 1 4.42 5.27l-84.4 70.82a3.45 3.45 0 0 1-4.85-.42Zm94.95-79.67a3.44 3.44 0 0 1 .42-4.85l211-177.04a3.44 3.44 0 1 1 4.42 5.28l-210.98 177.03a3.45 3.45 0 0 1-4.85-.42ZM78.3 52.38a3.45 3.45 0 0 1 .43-4.85l84.39-70.82a3.44 3.44 0 1 1 4.43 5.28L83.16 52.8a3.45 3.45 0 0 1-4.85-.42Zm94.94-79.67a3.45 3.45 0 0 1 .43-4.85l210.98-177.04a3.44 3.44 0 0 1 4.43 5.28L178.11-26.86a3.45 3.45 0 0 1-4.86-.43ZM394.8-213.18a3.45 3.45 0 0 1 .42-4.85l84.4-70.81a3.44 3.44 0 1 1 4.42 5.27l-84.4 70.82a3.45 3.45 0 0 1-4.84-.43Zm94.94-79.66a3.45 3.45 0 0 1 .43-4.86l107.6-90.28a3.44 3.44 0 1 1 4.43 5.27l-107.6 90.29a3.45 3.45 0 0 1-4.86-.42Zm-728.95 611.66a4.82 4.82 0 0 0 6.79.6l84.4-70.82a4.82 4.82 0 1 0-6.2-7.38l-84.4 70.81a4.83 4.83 0 0 0-.6 6.8Zm94.94-79.67a4.82 4.82 0 0 0 6.8.6L73.5 62.7a4.82 4.82 0 0 0-6.2-7.38l-210.98 177.03a4.82 4.82 0 0 0-.6 6.8ZM77.26 53.26a4.82 4.82 0 0 0 6.79.6l84.4-70.82a4.82 4.82 0 1 0-6.2-7.38l-84.4 70.81a4.82 4.82 0 0 0-.6 6.8ZM172.2-26.4a4.82 4.82 0 0 0 6.79.6l210.99-177.05a4.82 4.82 0 1 0-6.2-7.38L172.79-33.2a4.82 4.82 0 0 0-.6 6.79Zm221.53-185.9a4.82 4.82 0 0 0 6.8.6l84.39-70.81a4.82 4.82 0 0 0-6.2-7.39l-84.4 70.82a4.82 4.82 0 0 0-.59 6.79Zm94.95-79.66a4.82 4.82 0 0 0 6.79.6l107.6-90.3a4.82 4.82 0 0 0-6.2-7.38l-107.6 90.29a4.83 4.83 0 0 0-.6 6.8ZM-254.1 298.95a3.45 3.45 0 0 1 .42-4.85l63.3-53.11a3.44 3.44 0 1 1 4.42 5.27l-63.3 53.11a3.45 3.45 0 0 1-4.84-.42Zm73.84-61.96a3.45 3.45 0 0 1 .43-4.86l63.3-53.1a3.44 3.44 0 1 1 4.42 5.27l-63.3 53.1a3.45 3.45 0 0 1-4.85-.41Zm73.85-61.97a3.45 3.45 0 0 1 .42-4.85l63.3-53.11a3.45 3.45 0 0 1 4.42 5.27l-63.3 53.12a3.44 3.44 0 0 1-4.84-.43Zm73.84-61.96a3.45 3.45 0 0 1 .43-4.85l63.3-53.11a3.44 3.44 0 1 1 4.42 5.27l-63.3 53.11a3.45 3.45 0 0 1-4.85-.42Zm73.85-61.97a3.45 3.45 0 0 1 .42-4.85L105-6.86a3.44 3.44 0 1 1 4.42 5.27l-63.3 53.1a3.45 3.45 0 0 1-4.84-.41Zm73.84-61.96a3.45 3.45 0 0 1 .43-4.85l63.3-53.11a3.44 3.44 0 1 1 4.42 5.27l-63.3 53.12a3.45 3.45 0 0 1-4.85-.43Zm73.85-61.96a3.44 3.44 0 0 1 .42-4.85l63.3-53.11a3.44 3.44 0 1 1 4.43 5.27l-63.3 53.11a3.45 3.45 0 0 1-4.85-.42Zm73.84-61.96a3.44 3.44 0 0 1 .43-4.86l63.3-53.1a3.44 3.44 0 1 1 4.42 5.27l-63.3 53.11a3.44 3.44 0 0 1-4.85-.42Zm73.85-61.97a3.45 3.45 0 0 1 .42-4.85l63.3-53.11a3.44 3.44 0 0 1 4.42 5.28l-63.3 53.1a3.45 3.45 0 0 1-4.84-.42Zm73.84-61.96a3.44 3.44 0 0 1 .43-4.85l63.3-53.11a3.44 3.44 0 0 1 4.42 5.27l-63.3 53.11a3.45 3.45 0 0 1-4.85-.42Zm73.85-61.96a3.44 3.44 0 0 1 .42-4.86l63.3-53.1a3.45 3.45 0 0 1 4.42 5.27l-63.3 53.11a3.45 3.45 0 0 1-4.84-.42Zm73.84-61.97a3.44 3.44 0 0 1 .43-4.85l23.2-19.47a3.44 3.44 0 1 1 4.43 5.27l-23.2 19.48a3.44 3.44 0 0 1-4.86-.43Zm-813.35 682.48a4.83 4.83 0 0 0 6.8.6l63.29-53.11a4.82 4.82 0 1 0-6.2-7.39l-63.3 53.11a4.82 4.82 0 0 0-.59 6.8Zm73.85-61.96a4.82 4.82 0 0 0 6.79.6l63.3-53.12a4.83 4.83 0 0 0-6.2-7.38l-63.3 53.1a4.82 4.82 0 0 0-.6 6.8Zm73.84-61.96a4.82 4.82 0 0 0 6.8.6l63.29-53.12a4.82 4.82 0 1 0-6.2-7.39l-63.3 53.12a4.82 4.82 0 0 0-.59 6.79Zm73.85-61.97a4.82 4.82 0 0 0 6.79.6l63.3-53.11a4.82 4.82 0 0 0-6.2-7.39l-63.3 53.11a4.82 4.82 0 0 0-.6 6.8Zm73.84-61.96a4.82 4.82 0 0 0 6.8.6L110.3-.55a4.82 4.82 0 0 0-6.2-7.38L40.8 45.18a4.82 4.82 0 0 0-.59 6.79Zm73.85-61.96a4.82 4.82 0 0 0 6.79.6l63.3-53.12a4.82 4.82 0 1 0-6.2-7.38l-63.3 53.1a4.82 4.82 0 0 0-.6 6.8Zm73.84-61.97a4.82 4.82 0 0 0 6.8.6L258-124.46a4.82 4.82 0 1 0-6.2-7.39l-63.3 53.11a4.82 4.82 0 0 0-.59 6.8Zm73.85-61.96a4.82 4.82 0 0 0 6.79.6l63.3-53.12a4.82 4.82 0 1 0-6.2-7.38l-63.3 53.11a4.82 4.82 0 0 0-.6 6.79Zm73.84-61.96a4.82 4.82 0 0 0 6.8.6l63.29-53.12a4.82 4.82 0 0 0-6.2-7.39l-63.3 53.12a4.82 4.82 0 0 0-.59 6.79Zm73.85-61.97a4.82 4.82 0 0 0 6.79.6l63.3-53.11a4.82 4.82 0 0 0-6.2-7.39l-63.3 53.11a4.82 4.82 0 0 0-.6 6.8Zm73.84-61.96a4.82 4.82 0 0 0 6.8.6l63.29-53.12a4.82 4.82 0 0 0-6.2-7.38l-63.3 53.11a4.82 4.82 0 0 0-.59 6.8Zm73.85-61.96a4.82 4.82 0 0 0 6.79.6l23.2-19.48a4.82 4.82 0 1 0-6.19-7.39l-23.2 19.48a4.82 4.82 0 0 0-.6 6.79Zm-827.17 661.72a3.45 3.45 0 0 1 .42-4.85l126.6-106.23a3.45 3.45 0 0 1 4.42 5.28l-126.6 106.22a3.45 3.45 0 0 1-4.84-.42Zm137.14-115.08a3.44 3.44 0 0 1 .42-4.85l31.65-26.55a3.44 3.44 0 0 1 4.42 5.27l-31.64 26.56a3.44 3.44 0 0 1-4.85-.43Zm42.2-35.4a3.45 3.45 0 0 1 .42-4.85L36.32 18.4a3.44 3.44 0 1 1 4.42 5.28L-85.85 129.9a3.45 3.45 0 0 1-4.85-.42ZM46.43 14.4a3.45 3.45 0 0 1 .43-4.85L78.52-17a3.44 3.44 0 1 1 4.42 5.27L51.3 14.83a3.45 3.45 0 0 1-4.85-.43ZM88.64-21a3.45 3.45 0 0 1 .43-4.86l126.59-106.22a3.44 3.44 0 0 1 4.42 5.28L93.5-20.59a3.45 3.45 0 0 1-4.85-.43Zm137.14-115.08a3.45 3.45 0 0 1 .43-4.85l31.64-26.56a3.44 3.44 0 1 1 4.43 5.28l-31.65 26.55a3.45 3.45 0 0 1-4.85-.42Zm42.2-35.4a3.44 3.44 0 0 1 .42-4.86L395-282.56a3.44 3.44 0 0 1 4.42 5.27l-126.6 106.23a3.45 3.45 0 0 1-4.84-.43Zm137.14-115.08a3.45 3.45 0 0 1 .42-4.85l31.65-26.56a3.45 3.45 0 0 1 4.43 5.28l-31.65 26.55a3.45 3.45 0 0 1-4.85-.42Zm42.2-35.41a3.44 3.44 0 0 1 .42-4.85l118.15-99.14a3.45 3.45 0 0 1 4.43 5.27l-118.15 99.14a3.45 3.45 0 0 1-4.85-.42Zm-718.4 602.81a4.82 4.82 0 0 0 6.78.6l126.6-106.23a4.82 4.82 0 1 0-6.2-7.38l-126.6 106.22a4.82 4.82 0 0 0-.59 6.8Zm137.13-115.07a4.82 4.82 0 0 0 6.8.6l31.64-26.56a4.82 4.82 0 0 0-6.2-7.39l-31.64 26.56a4.82 4.82 0 0 0-.6 6.79Zm42.2-35.4a4.82 4.82 0 0 0 6.79.59L41.63 24.73a4.82 4.82 0 1 0-6.2-7.38L-91.16 123.57a4.82 4.82 0 0 0-.6 6.8ZM45.39 15.28a4.82 4.82 0 0 0 6.79.59l31.65-26.56a4.82 4.82 0 0 0-6.2-7.38L45.98 8.5a4.82 4.82 0 0 0-.6 6.79Zm42.2-35.41a4.82 4.82 0 0 0 6.79.6l126.59-106.23a4.82 4.82 0 0 0-6.2-7.38L88.18-26.91a4.82 4.82 0 0 0-.6 6.79ZM224.73-135.2a4.82 4.82 0 0 0 6.79.6l31.65-26.56a4.82 4.82 0 1 0-6.2-7.38L225.32-142a4.82 4.82 0 0 0-.6 6.8Zm42.2-35.4a4.82 4.82 0 0 0 6.78.59l126.6-106.22a4.82 4.82 0 1 0-6.2-7.39L267.5-177.39a4.83 4.83 0 0 0-.59 6.79Zm137.13-115.08a4.82 4.82 0 0 0 6.8.6l31.64-26.56a4.82 4.82 0 1 0-6.2-7.38l-31.64 26.55a4.82 4.82 0 0 0-.6 6.8Zm42.2-35.4a4.82 4.82 0 0 0 6.8.59l118.14-99.14a4.82 4.82 0 0 0-6.2-7.39l-118.14 99.14a4.82 4.82 0 0 0-.6 6.8Zm-732.23 582.05a3.45 3.45 0 0 1 .43-4.85l31.65-26.56a3.44 3.44 0 0 1 4.42 5.28l-31.65 26.55a3.44 3.44 0 0 1-4.85-.42Zm42.2-35.4a3.45 3.45 0 0 1 .42-4.86l126.6-106.22a3.44 3.44 0 1 1 4.42 5.27L-238.92 226a3.45 3.45 0 0 1-4.85-.43Zm137.14-115.08a3.44 3.44 0 0 1 .42-4.85l31.65-26.56a3.44 3.44 0 1 1 4.43 5.28l-31.65 26.55a3.44 3.44 0 0 1-4.85-.42Zm42.2-35.41a3.45 3.45 0 0 1 .42-4.85L62.6-36a3.44 3.44 0 1 1 4.4 5.28L-59.6 75.5a3.45 3.45 0 0 1-4.84-.42ZM72.7-39.99a3.45 3.45 0 0 1 .42-4.86l31.65-26.55a3.44 3.44 0 0 1 4.43 5.27L77.56-39.57A3.45 3.45 0 0 1 72.7-40Zm42.2-35.41a3.44 3.44 0 0 1 .42-4.85l126.6-106.22a3.44 3.44 0 1 1 4.42 5.27L119.75-74.98a3.45 3.45 0 0 1-4.84-.42Zm137.14-115.08a3.45 3.45 0 0 1 .42-4.85l31.65-26.55a3.45 3.45 0 0 1 4.42 5.27l-31.64 26.56a3.45 3.45 0 0 1-4.85-.43Zm42.2-35.4a3.45 3.45 0 0 1 .42-4.86l126.59-106.22a3.44 3.44 0 1 1 4.43 5.28l-126.6 106.22a3.44 3.44 0 0 1-4.85-.42Zm137.13-115.08a3.45 3.45 0 0 1 .43-4.85l31.65-26.56a3.44 3.44 0 1 1 4.42 5.28l-31.65 26.55a3.45 3.45 0 0 1-4.85-.42Zm42.2-35.4a3.44 3.44 0 0 1 .43-4.86l75.95-63.73a3.44 3.44 0 1 1 4.43 5.27l-75.96 63.74a3.45 3.45 0 0 1-4.85-.43Zm-760.6 638.21a4.82 4.82 0 0 0 6.79.6l31.65-26.56a4.83 4.83 0 0 0-6.2-7.38l-31.65 26.55a4.82 4.82 0 0 0-.6 6.8Zm42.2-35.4a4.82 4.82 0 0 0 6.79.6l126.59-106.23a4.82 4.82 0 1 0-6.2-7.39l-126.6 106.23a4.82 4.82 0 0 0-.58 6.79Zm137.14-115.08a4.82 4.82 0 0 0 6.79.6l31.64-26.56a4.82 4.82 0 1 0-6.2-7.38l-31.64 26.55a4.83 4.83 0 0 0-.6 6.8Zm42.2-35.4a4.82 4.82 0 0 0 6.78.59L67.9-29.66a4.82 4.82 0 0 0-6.2-7.39L-64.9 69.17a4.82 4.82 0 0 0-.59 6.8ZM71.64-39.12a4.82 4.82 0 0 0 6.8.6l31.64-26.56a4.82 4.82 0 1 0-6.2-7.39L72.25-45.9a4.82 4.82 0 0 0-.6 6.79Zm42.2-35.4a4.82 4.82 0 0 0 6.8.59l126.58-106.23a4.82 4.82 0 0 0-6.2-7.38L114.45-81.31a4.82 4.82 0 0 0-.59 6.8ZM250.99-189.6a4.82 4.82 0 0 0 6.8.6l31.64-26.56a4.83 4.83 0 0 0-6.2-7.39l-31.65 26.56a4.82 4.82 0 0 0-.59 6.79Zm42.2-35.4a4.82 4.82 0 0 0 6.79.59l126.59-106.23a4.82 4.82 0 0 0-6.2-7.38L293.78-231.8a4.82 4.82 0 0 0-.6 6.8Zm137.14-115.08a4.82 4.82 0 0 0 6.79.59l31.65-26.56a4.82 4.82 0 1 0-6.2-7.38l-31.65 26.56a4.82 4.82 0 0 0-.6 6.79Zm42.2-35.41a4.82 4.82 0 0 0 6.79.6l75.95-63.74a4.82 4.82 0 0 0-6.2-7.39l-75.95 63.74a4.82 4.82 0 0 0-.6 6.79ZM-301.9 241.98a3.44 3.44 0 0 1 .42-4.85l179.34-150.48a3.44 3.44 0 0 1 4.43 5.27l-179.34 150.49a3.45 3.45 0 0 1-4.85-.43Zm189.89-159.33a3.44 3.44 0 0 1 .42-4.85L67.75-72.7a3.44 3.44 0 1 1 4.42 5.28L-107.16 83.07a3.45 3.45 0 0 1-4.85-.42ZM77.87-76.7a3.45 3.45 0 0 1 .43-4.85l179.33-150.48a3.45 3.45 0 0 1 4.43 5.28L82.72-76.27a3.45 3.45 0 0 1-4.85-.43Zm189.89-159.33a3.45 3.45 0 0 1 .42-4.85l179.34-150.48a3.45 3.45 0 0 1 4.43 5.27L272.6-235.6a3.44 3.44 0 0 1-4.85-.42Zm189.89-159.34a3.45 3.45 0 0 1 .42-4.84l75.96-63.74a3.44 3.44 0 0 1 4.42 5.28l-75.95 63.73a3.44 3.44 0 0 1-4.85-.43Zm-760.6 638.23a4.82 4.82 0 0 0 6.78.59l179.34-150.48a4.82 4.82 0 1 0-6.2-7.39l-179.33 150.49a4.82 4.82 0 0 0-.6 6.79Zm189.88-159.34a4.82 4.82 0 0 0 6.8.6L73.05-66.36a4.82 4.82 0 1 0-6.2-7.38L-112.47 76.74a4.82 4.82 0 0 0-.6 6.8ZM76.82-75.8a4.82 4.82 0 0 0 6.79.6l179.34-150.5a4.82 4.82 0 1 0-6.2-7.38L77.41-82.6a4.82 4.82 0 0 0-.6 6.79ZM266.7-235.14a4.83 4.83 0 0 0 6.8.6l179.33-150.48a4.83 4.83 0 0 0-6.2-7.39L267.3-241.93a4.82 4.82 0 0 0-.6 6.8Zm189.9-159.33a4.83 4.83 0 0 0 6.78.6l75.96-63.74a4.82 4.82 0 0 0-6.2-7.38l-75.95 63.73a4.82 4.82 0 0 0-.6 6.79ZM-317.83 223a3.45 3.45 0 0 1 .42-4.86l63.3-53.1a3.44 3.44 0 1 1 4.42 5.27l-63.3 53.1a3.45 3.45 0 0 1-4.84-.42Zm73.84-61.97a3.45 3.45 0 0 1 .43-4.85l63.3-53.11a3.44 3.44 0 1 1 4.42 5.27l-63.3 53.11a3.45 3.45 0 0 1-4.85-.42Zm73.85-61.96a3.44 3.44 0 0 1 .42-4.85l63.3-53.12a3.44 3.44 0 1 1 4.42 5.28l-63.3 53.11a3.44 3.44 0 0 1-4.84-.42ZM-96.3 37.1a3.45 3.45 0 0 1 .42-4.85l63.3-53.1a3.44 3.44 0 1 1 4.43 5.27l-63.3 53.1a3.45 3.45 0 0 1-4.85-.42Zm73.85-61.96a3.45 3.45 0 0 1 .42-4.85l63.3-53.11a3.44 3.44 0 1 1 4.42 5.27l-63.3 53.11a3.45 3.45 0 0 1-4.84-.42Zm73.84-61.96a3.45 3.45 0 0 1 .42-4.85l63.3-53.11a3.44 3.44 0 0 1 4.43 5.27L56.24-86.4a3.45 3.45 0 0 1-4.85-.42Zm73.84-61.97a3.44 3.44 0 0 1 .43-4.85l63.3-53.1a3.45 3.45 0 0 1 4.42 5.27l-63.3 53.1a3.44 3.44 0 0 1-4.85-.42Zm73.85-61.96a3.44 3.44 0 0 1 .42-4.85l63.3-53.11a3.44 3.44 0 1 1 4.43 5.27l-63.3 53.12a3.45 3.45 0 0 1-4.85-.43Zm73.84-61.96a3.45 3.45 0 0 1 .43-4.85l63.3-53.12a3.44 3.44 0 1 1 4.42 5.28l-63.3 53.11a3.44 3.44 0 0 1-4.84-.42Zm73.85-61.97a3.45 3.45 0 0 1 .42-4.85l63.3-53.1a3.44 3.44 0 1 1 4.43 5.27l-63.3 53.1a3.45 3.45 0 0 1-4.85-.42Zm73.85-61.96a3.45 3.45 0 0 1 .42-4.85l63.3-53.11a3.44 3.44 0 1 1 4.42 5.27l-63.3 53.12a3.44 3.44 0 0 1-4.84-.43Zm73.84-61.96a3.45 3.45 0 0 1 .42-4.85l23.21-19.48a3.44 3.44 0 1 1 4.43 5.28l-23.21 19.47a3.45 3.45 0 0 1-4.85-.42Zm-813.35 682.48a4.82 4.82 0 0 0 6.8.6l63.29-53.12a4.82 4.82 0 0 0-6.2-7.38l-63.3 53.1a4.82 4.82 0 0 0-.59 6.8Zm73.85-61.97a4.82 4.82 0 0 0 6.79.6l63.3-53.11a4.82 4.82 0 0 0-6.2-7.39l-63.3 53.11a4.83 4.83 0 0 0-.6 6.8Zm73.84-61.96a4.81 4.81 0 0 0 6.8.6l63.29-53.12a4.82 4.82 0 0 0-6.2-7.38l-63.3 53.11a4.82 4.82 0 0 0-.59 6.8ZM-97.35 38a4.82 4.82 0 0 0 6.79.6l63.3-53.12a4.82 4.82 0 1 0-6.2-7.38l-63.3 53.1a4.82 4.82 0 0 0-.6 6.8Zm73.84-61.96a4.82 4.82 0 0 0 6.8.59L46.57-76.5a4.82 4.82 0 0 0-6.2-7.39l-63.3 53.11a4.82 4.82 0 0 0-.59 6.8Zm73.85-61.97a4.82 4.82 0 0 0 6.79.6l63.3-53.12a4.82 4.82 0 0 0-6.2-7.38l-63.3 53.11a4.82 4.82 0 0 0-.6 6.8Zm73.84-61.96a4.82 4.82 0 0 0 6.8.6l63.29-53.12a4.82 4.82 0 1 0-6.2-7.38l-63.3 53.1a4.82 4.82 0 0 0-.59 6.8Zm73.84-61.97a4.82 4.82 0 0 0 6.8.6l63.3-53.11a4.82 4.82 0 1 0-6.2-7.39l-63.3 53.11a4.82 4.82 0 0 0-.6 6.8Zm73.85-61.96a4.83 4.83 0 0 0 6.8.6l63.29-53.12a4.83 4.83 0 0 0-6.2-7.38l-63.3 53.11a4.82 4.82 0 0 0-.59 6.8Zm73.84-61.96a4.82 4.82 0 0 0 6.8.6l63.3-53.12a4.82 4.82 0 0 0-6.2-7.38l-63.3 53.1a4.82 4.82 0 0 0-.6 6.8Zm73.85-61.96a4.82 4.82 0 0 0 6.79.59l63.3-53.11a4.82 4.82 0 1 0-6.2-7.39l-63.3 53.12a4.82 4.82 0 0 0-.59 6.79Zm73.84-61.97a4.82 4.82 0 0 0 6.8.6l23.2-19.48a4.82 4.82 0 1 0-6.2-7.38L494-464.51a4.82 4.82 0 0 0-.6 6.8ZM-333.77 204a3.44 3.44 0 0 1 .43-4.85l116.04-97.37a3.44 3.44 0 1 1 4.42 5.28l-116.04 97.37a3.45 3.45 0 0 1-4.85-.43Zm126.6-106.22a3.45 3.45 0 0 1 .42-4.85L-90.71-4.44A3.44 3.44 0 1 1-86.28.83L-202.33 98.2a3.45 3.45 0 0 1-4.85-.42ZM-80.6-8.44a3.45 3.45 0 0 1 .43-4.85l116.04-97.37a3.44 3.44 0 1 1 4.43 5.27L-75.74-8.02a3.45 3.45 0 0 1-4.85-.42ZM46-114.67a3.45 3.45 0 0 1 .42-4.85l116.04-97.37a3.45 3.45 0 0 1 4.43 5.28L50.86-114.24a3.45 3.45 0 0 1-4.85-.43Zm126.6-106.21a3.44 3.44 0 0 1 .42-4.85l116.04-97.37a3.44 3.44 0 1 1 4.43 5.28l-116.04 97.37a3.45 3.45 0 0 1-4.85-.43ZM299.19-327.1a3.44 3.44 0 0 1 .42-4.85l116.04-97.37a3.44 3.44 0 1 1 4.43 5.27l-116.04 97.37a3.45 3.45 0 0 1-4.85-.42Zm126.59-106.22a3.45 3.45 0 0 1 .42-4.85l75.96-63.74a3.44 3.44 0 1 1 4.42 5.28l-75.95 63.73a3.44 3.44 0 0 1-4.85-.42Zm-760.6 638.22a4.82 4.82 0 0 0 6.79.6L-212 108.1a4.82 4.82 0 0 0-6.2-7.38l-116.04 97.37a4.82 4.82 0 0 0-.6 6.79Zm126.59-106.22a4.81 4.81 0 0 0 6.79.59L-85.4 1.89a4.82 4.82 0 1 0-6.2-7.39l-116.04 97.37a4.82 4.82 0 0 0-.6 6.8ZM-81.64-7.56a4.82 4.82 0 0 0 6.79.6l116.04-97.37a4.82 4.82 0 0 0-6.2-7.39L-81.04-14.35a4.82 4.82 0 0 0-.59 6.8Zm126.6-106.22a4.82 4.82 0 0 0 6.78.6l116.04-97.38a4.82 4.82 0 0 0-6.2-7.38L45.56-120.57a4.82 4.82 0 0 0-.6 6.79ZM171.53-220a4.82 4.82 0 0 0 6.8.6l116.03-97.38a4.82 4.82 0 1 0-6.2-7.38L172.15-226.8a4.82 4.82 0 0 0-.6 6.79Zm126.6-106.23a4.82 4.82 0 0 0 6.78.6L420.97-423a4.82 4.82 0 0 0-6.2-7.39l-116.04 97.37a4.83 4.83 0 0 0-.6 6.8Zm126.59-106.22a4.82 4.82 0 0 0 6.78.6l75.96-63.74a4.83 4.83 0 0 0-6.2-7.38l-75.95 63.73a4.82 4.82 0 0 0-.6 6.8ZM-349.7 185.02a3.44 3.44 0 0 1 .42-4.85l52.75-44.26a3.45 3.45 0 0 1 4.42 5.27l-52.74 44.26a3.44 3.44 0 0 1-4.85-.42Zm63.3-53.12a3.44 3.44 0 0 1 .42-4.84l52.75-44.26a3.44 3.44 0 1 1 4.42 5.27l-52.75 44.26a3.45 3.45 0 0 1-4.85-.43Zm63.29-53.1a3.45 3.45 0 0 1 .42-4.86l52.75-44.26a3.44 3.44 0 1 1 4.43 5.28l-52.75 44.26a3.45 3.45 0 0 1-4.85-.43Zm63.3-53.12a3.44 3.44 0 0 1 .42-4.85l52.75-44.26a3.44 3.44 0 0 1 4.42 5.28l-52.74 44.26a3.45 3.45 0 0 1-4.85-.43Zm63.3-53.1a3.45 3.45 0 0 1 .42-4.86l52.74-44.26a3.44 3.44 0 1 1 4.43 5.28L-91.67-27a3.45 3.45 0 0 1-4.85-.43Zm63.29-53.12a3.45 3.45 0 0 1 .42-4.85l52.75-44.26a3.45 3.45 0 0 1 4.42 5.27l-52.74 44.26a3.45 3.45 0 0 1-4.85-.42Zm63.3-53.11a3.45 3.45 0 0 1 .42-4.85l52.74-44.26a3.44 3.44 0 0 1 4.43 5.27l-52.75 44.26a3.45 3.45 0 0 1-4.85-.42Zm63.29-53.11a3.45 3.45 0 0 1 .42-4.85l52.75-44.26a3.44 3.44 0 1 1 4.43 5.27l-52.75 44.26a3.45 3.45 0 0 1-4.85-.42Zm63.3-53.11a3.45 3.45 0 0 1 .42-4.85l52.74-44.26a3.45 3.45 0 0 1 4.43 5.27l-52.75 44.26a3.44 3.44 0 0 1-4.85-.42ZM219.95-293a3.45 3.45 0 0 1 .42-4.85l52.75-44.26a3.45 3.45 0 0 1 4.43 5.28l-52.75 44.26a3.45 3.45 0 0 1-4.85-.43Zm63.3-53.1a3.45 3.45 0 0 1 .42-4.86l52.75-44.26a3.44 3.44 0 1 1 4.42 5.28l-52.75 44.26a3.45 3.45 0 0 1-4.85-.43Zm63.3-53.12a3.44 3.44 0 0 1 .42-4.85l52.74-44.26a3.45 3.45 0 0 1 4.43 5.28l-52.75 44.26a3.44 3.44 0 0 1-4.85-.43Zm63.29-53.11a3.44 3.44 0 0 1 .42-4.85l52.75-44.26a3.44 3.44 0 1 1 4.42 5.28L414.7-451.9a3.45 3.45 0 0 1-4.85-.42Zm63.3-53.11a3.45 3.45 0 0 1 .42-4.85l12.66-10.62a3.44 3.44 0 0 1 4.42 5.27L478-505a3.45 3.45 0 0 1-4.85-.42Zm-823.9 691.33a4.82 4.82 0 0 0 6.78.6l52.75-44.26a4.82 4.82 0 1 0-6.2-7.39l-52.74 44.26a4.83 4.83 0 0 0-.6 6.8Zm63.29-53.11a4.83 4.83 0 0 0 6.79.6l52.75-44.27a4.82 4.82 0 0 0-6.2-7.38L-286.87 126a4.82 4.82 0 0 0-.6 6.79Zm63.3-53.11a4.82 4.82 0 0 0 6.78.6L-164.63 36a4.82 4.82 0 1 0-6.2-7.38l-52.74 44.26a4.82 4.82 0 0 0-.6 6.79Zm63.3-53.11a4.82 4.82 0 0 0 6.78.6l52.75-44.27a4.82 4.82 0 1 0-6.2-7.38l-52.75 44.26a4.82 4.82 0 0 0-.59 6.79Zm63.29-53.11a4.82 4.82 0 0 0 6.79.59l52.74-44.26a4.82 4.82 0 0 0-6.2-7.38l-52.74 44.26a4.82 4.82 0 0 0-.6 6.79Zm63.3-53.12a4.82 4.82 0 0 0 6.78.6l52.75-44.26a4.82 4.82 0 1 0-6.2-7.39l-52.74 44.26a4.82 4.82 0 0 0-.6 6.8Zm63.29-53.1a4.82 4.82 0 0 0 6.79.59l52.74-44.26a4.82 4.82 0 0 0-6.2-7.39L29.6-139.57a4.82 4.82 0 0 0-.6 6.8Zm63.3-53.12a4.82 4.82 0 0 0 6.78.6l52.75-44.26a4.82 4.82 0 0 0-6.2-7.39L92.9-192.68a4.82 4.82 0 0 0-.6 6.8Zm63.29-53.1a4.82 4.82 0 0 0 6.79.58l52.75-44.25a4.82 4.82 0 1 0-6.2-7.39l-52.75 44.26a4.82 4.82 0 0 0-.6 6.8Zm63.3-53.12a4.82 4.82 0 0 0 6.78.6l52.75-44.27a4.83 4.83 0 0 0-6.2-7.38l-52.74 44.26a4.82 4.82 0 0 0-.6 6.79Zm63.29-53.11a4.82 4.82 0 0 0 6.8.6l52.74-44.27a4.82 4.82 0 0 0-6.2-7.38L282.8-352a4.82 4.82 0 0 0-.59 6.79Zm63.3-53.11a4.82 4.82 0 0 0 6.79.6L405.03-442a4.82 4.82 0 0 0-6.2-7.38l-52.74 44.26a4.82 4.82 0 0 0-.6 6.79Zm63.3-53.12a4.82 4.82 0 0 0 6.78.6l52.75-44.26a4.83 4.83 0 0 0-6.2-7.38l-52.74 44.25a4.82 4.82 0 0 0-.6 6.8Zm63.29-53.1a4.82 4.82 0 0 0 6.79.59l12.66-10.62a4.82 4.82 0 0 0-6.2-7.39l-12.66 10.62a4.82 4.82 0 0 0-.6 6.8Zm-837.71 670.58a3.45 3.45 0 0 1 .42-4.85l31.65-26.56a3.44 3.44 0 0 1 4.42 5.28l-31.65 26.55a3.44 3.44 0 0 1-4.84-.42Zm42.2-35.41a3.45 3.45 0 0 1 .42-4.85l31.64-26.56a3.44 3.44 0 0 1 4.43 5.28l-31.65 26.55a3.44 3.44 0 0 1-4.85-.42Zm42.19-35.4a3.44 3.44 0 0 1 .42-4.86l31.65-26.55a3.44 3.44 0 0 1 4.43 5.27l-31.65 26.56a3.44 3.44 0 0 1-4.85-.43Zm42.2-35.42a3.44 3.44 0 0 1 .42-4.85l31.65-26.55a3.44 3.44 0 0 1 4.42 5.27l-31.64 26.56a3.45 3.45 0 0 1-4.85-.43Zm42.2-35.4a3.44 3.44 0 0 1 .42-4.85l31.65-26.56a3.44 3.44 0 1 1 4.42 5.27L-192 24.82a3.45 3.45 0 0 1-4.85-.42Zm42.19-35.41a3.45 3.45 0 0 1 .43-4.85l31.64-26.56a3.44 3.44 0 1 1 4.43 5.28L-149.8-10.6a3.45 3.45 0 0 1-4.85-.42Zm42.2-35.4a3.44 3.44 0 0 1 .42-4.86l31.65-26.56a3.44 3.44 0 1 1 4.43 5.28L-107.6-46a3.45 3.45 0 0 1-4.85-.42Zm42.2-35.42a3.45 3.45 0 0 1 .42-4.85l31.65-26.55a3.44 3.44 0 1 1 4.42 5.27L-65.4-81.4a3.45 3.45 0 0 1-4.85-.43Zm42.2-35.4a3.45 3.45 0 0 1 .42-4.85L4-148.64a3.45 3.45 0 0 1 4.43 5.27l-31.65 26.56a3.45 3.45 0 0 1-4.85-.42Zm42.19-35.41a3.45 3.45 0 0 1 .42-4.85l31.65-26.56a3.44 3.44 0 1 1 4.43 5.28l-31.65 26.55a3.45 3.45 0 0 1-4.85-.42Zm42.2-35.41a3.44 3.44 0 0 1 .42-4.85l31.65-26.56a3.44 3.44 0 0 1 4.42 5.28L61.2-187.62a3.44 3.44 0 0 1-4.85-.43Zm42.2-35.4a3.45 3.45 0 0 1 .42-4.86l31.64-26.55a3.45 3.45 0 0 1 4.43 5.27l-31.65 26.56a3.45 3.45 0 0 1-4.85-.43Zm42.19-35.42a3.44 3.44 0 0 1 .43-4.84l31.64-26.56a3.44 3.44 0 0 1 4.43 5.27l-31.65 26.56a3.44 3.44 0 0 1-4.85-.43Zm42.2-35.4a3.44 3.44 0 0 1 .42-4.85L215-325.68a3.45 3.45 0 0 1 4.43 5.28l-31.65 26.55a3.45 3.45 0 0 1-4.85-.42Zm42.2-35.41a3.44 3.44 0 0 1 .42-4.85l31.65-26.56a3.44 3.44 0 0 1 4.42 5.28l-31.65 26.55a3.45 3.45 0 0 1-4.85-.42Zm42.2-35.4a3.45 3.45 0 0 1 .42-4.86l31.64-26.55a3.44 3.44 0 1 1 4.43 5.27l-31.65 26.56a3.45 3.45 0 0 1-4.85-.43Zm42.19-35.42a3.44 3.44 0 0 1 .42-4.85l31.65-26.55a3.44 3.44 0 1 1 4.43 5.27l-31.65 26.56a3.45 3.45 0 0 1-4.85-.43Zm42.2-35.4a3.44 3.44 0 0 1 .42-4.85l31.65-26.56a3.44 3.44 0 0 1 4.42 5.28l-31.64 26.55a3.44 3.44 0 0 1-4.85-.42Zm42.2-35.41a3.45 3.45 0 0 1 .42-4.85l31.65-26.56a3.44 3.44 0 1 1 4.42 5.28l-31.65 26.55a3.45 3.45 0 0 1-4.85-.42Zm42.19-35.4a3.45 3.45 0 0 1 .42-4.86l31.65-26.55a3.44 3.44 0 1 1 4.43 5.27l-31.65 26.56a3.44 3.44 0 0 1-4.85-.43Zm-802.8 673.62a4.82 4.82 0 0 0 6.79.6l31.65-26.56a4.82 4.82 0 1 0-6.2-7.38l-31.65 26.55a4.82 4.82 0 0 0-.59 6.8Zm42.2-35.4a4.82 4.82 0 0 0 6.79.59l31.64-26.56a4.82 4.82 0 1 0-6.2-7.38l-31.64 26.55a4.82 4.82 0 0 0-.6 6.8Zm42.2-35.41a4.82 4.82 0 0 0 6.79.59l31.64-26.56a4.82 4.82 0 1 0-6.2-7.38l-31.64 26.56a4.82 4.82 0 0 0-.6 6.79Zm42.2-35.41a4.82 4.82 0 0 0 6.78.6l31.65-26.56a4.82 4.82 0 0 0-6.2-7.39L-239.5 53.9a4.82 4.82 0 0 0-.6 6.79Zm42.19-35.4a4.82 4.82 0 0 0 6.79.59l31.65-26.56a4.82 4.82 0 1 0-6.2-7.39l-31.65 26.56a4.82 4.82 0 0 0-.6 6.8Zm42.2-35.42a4.82 4.82 0 0 0 6.79.6l31.64-26.56a4.82 4.82 0 1 0-6.2-7.38l-31.64 26.55a4.82 4.82 0 0 0-.6 6.8Zm42.2-35.4a4.82 4.82 0 0 0 6.78.59l31.65-26.56a4.82 4.82 0 0 0-6.2-7.38l-31.64 26.56a4.82 4.82 0 0 0-.6 6.79Zm42.19-35.41a4.82 4.82 0 0 0 6.79.6l31.65-26.56a4.82 4.82 0 0 0-6.2-7.39l-31.65 26.56a4.82 4.82 0 0 0-.59 6.79Zm42.2-35.4a4.82 4.82 0 0 0 6.79.59l31.65-26.56a4.82 4.82 0 0 0-6.2-7.38l-31.65 26.55a4.82 4.82 0 0 0-.6 6.8Zm42.2-35.42a4.82 4.82 0 0 0 6.78.6l31.65-26.56a4.82 4.82 0 0 0-6.2-7.38l-31.64 26.55a4.82 4.82 0 0 0-.6 6.8Zm42.2-35.4a4.82 4.82 0 0 0 6.78.59l31.65-26.56a4.82 4.82 0 0 0-6.2-7.38l-31.64 26.55a4.82 4.82 0 0 0-.6 6.8Zm42.19-35.41a4.82 4.82 0 0 0 6.79.6l31.65-26.56a4.82 4.82 0 1 0-6.2-7.39l-31.65 26.56a4.82 4.82 0 0 0-.6 6.79Zm42.2-35.41a4.82 4.82 0 0 0 6.79.6l31.64-26.56a4.82 4.82 0 1 0-6.2-7.39l-31.64 26.56a4.82 4.82 0 0 0-.6 6.79Zm42.2-35.4a4.82 4.82 0 0 0 6.78.59l31.65-26.56a4.82 4.82 0 0 0-6.2-7.38l-31.64 26.55a4.82 4.82 0 0 0-.6 6.8Zm42.19-35.42a4.82 4.82 0 0 0 6.79.6l31.65-26.56a4.82 4.82 0 0 0-6.2-7.38l-31.65 26.56a4.82 4.82 0 0 0-.6 6.78Zm42.2-35.4a4.82 4.82 0 0 0 6.79.6l31.64-26.56a4.82 4.82 0 0 0-6.2-7.39l-31.64 26.56a4.82 4.82 0 0 0-.6 6.79Zm42.2-35.41a4.82 4.82 0 0 0 6.78.6l31.65-26.56a4.82 4.82 0 0 0-6.2-7.39l-31.64 26.56a4.82 4.82 0 0 0-.6 6.79Zm42.2-35.4a4.82 4.82 0 0 0 6.78.59l31.65-26.56a4.82 4.82 0 0 0-6.2-7.38l-31.64 26.55a4.83 4.83 0 0 0-.6 6.8Zm42.19-35.42a4.82 4.82 0 0 0 6.79.6l31.65-26.56a4.82 4.82 0 1 0-6.2-7.38l-31.65 26.56a4.82 4.82 0 0 0-.6 6.78Zm42.2-35.4a4.82 4.82 0 0 0 6.79.6l31.64-26.56a4.82 4.82 0 0 0-6.2-7.39l-31.64 26.56a4.82 4.82 0 0 0-.6 6.79Zm-816.63 652.87a3.44 3.44 0 0 1 .43-4.85L-212.36.56a3.44 3.44 0 1 1 4.43 5.27l-168.79 141.63a3.45 3.45 0 0 1-4.85-.42ZM-202.23-3.44a3.45 3.45 0 0 1 .42-4.85L-33-149.93a3.44 3.44 0 1 1 4.42 5.28L-197.38-3.02a3.45 3.45 0 0 1-4.85-.42Zm179.34-150.49a3.44 3.44 0 0 1 .42-4.85L146.32-300.4a3.45 3.45 0 0 1 4.43 5.28L-18.05-153.5a3.44 3.44 0 0 1-4.84-.43ZM156.44-304.4a3.44 3.44 0 0 1 .43-4.85l168.79-141.63a3.45 3.45 0 0 1 4.42 5.27L161.3-303.98a3.44 3.44 0 0 1-4.86-.43Zm179.34-150.48a3.45 3.45 0 0 1 .43-4.85l118.15-99.14a3.45 3.45 0 0 1 4.43 5.27l-118.16 99.14a3.44 3.44 0 0 1-4.85-.42Zm-718.4 602.81a4.82 4.82 0 0 0 6.79.6L-207.04 6.89a4.82 4.82 0 0 0-6.2-7.39l-168.79 141.63a4.82 4.82 0 0 0-.6 6.8ZM-203.28-2.56a4.82 4.82 0 0 0 6.79.6L-27.71-143.6a4.82 4.82 0 0 0-6.2-7.39L-202.68-9.35a4.82 4.82 0 0 0-.6 6.8Zm179.33-150.48a4.82 4.82 0 0 0 6.8.6l168.78-141.64a4.82 4.82 0 1 0-6.2-7.38L-23.34-159.83a4.82 4.82 0 0 0-.6 6.79ZM155.4-303.52a4.82 4.82 0 0 0 6.8.6l168.78-141.64a4.82 4.82 0 1 0-6.2-7.38l-168.8 141.63a4.82 4.82 0 0 0-.59 6.79Zm179.34-150.49a4.82 4.82 0 0 0 6.79.6l118.15-99.14a4.82 4.82 0 1 0-6.2-7.39L335.32-460.8a4.82 4.82 0 0 0-.6 6.8ZM-397.5 128.05a3.45 3.45 0 0 1 .42-4.85l84.4-70.82a3.44 3.44 0 0 1 4.42 5.28l-84.4 70.81a3.44 3.44 0 0 1-4.84-.42Zm94.94-79.67a3.44 3.44 0 0 1 .43-4.85l31.64-26.55a3.44 3.44 0 0 1 4.43 5.27l-31.65 26.56a3.45 3.45 0 0 1-4.85-.43Zm42.2-35.4a3.44 3.44 0 0 1 .42-4.86l84.4-70.81a3.44 3.44 0 1 1 4.42 5.27L-255.5 13.4a3.45 3.45 0 0 1-4.85-.43Zm94.94-79.67a3.45 3.45 0 0 1 .43-4.85l31.65-26.56a3.44 3.44 0 1 1 4.42 5.28l-31.65 26.55a3.45 3.45 0 0 1-4.85-.42Zm42.2-35.41a3.45 3.45 0 0 1 .42-4.85l84.4-70.81a3.44 3.44 0 1 1 4.42 5.27l-84.39 70.82a3.44 3.44 0 0 1-4.85-.43Zm94.94-79.67a3.44 3.44 0 0 1 .43-4.85L3.8-213.17a3.44 3.44 0 1 1 4.42 5.27l-31.65 26.56a3.44 3.44 0 0 1-4.85-.43Zm42.2-35.4a3.45 3.45 0 0 1 .42-4.86l84.4-70.81a3.44 3.44 0 1 1 4.43 5.27l-84.4 70.82a3.45 3.45 0 0 1-4.85-.42Zm94.94-79.67a3.45 3.45 0 0 1 .43-4.85l31.65-26.56a3.45 3.45 0 0 1 4.42 5.28l-31.65 26.55a3.45 3.45 0 0 1-4.85-.42Zm42.2-35.4a3.45 3.45 0 0 1 .43-4.86l84.39-70.81a3.44 3.44 0 1 1 4.43 5.27l-84.4 70.81a3.44 3.44 0 0 1-4.85-.42ZM246-411.93a3.44 3.44 0 0 1 .43-4.85l31.65-26.55a3.44 3.44 0 1 1 4.42 5.27l-31.65 26.56a3.45 3.45 0 0 1-4.84-.43Zm42.2-35.4a3.45 3.45 0 0 1 .43-4.85L373.02-523a3.44 3.44 0 0 1 4.43 5.28l-84.4 70.81a3.45 3.45 0 0 1-4.85-.42ZM383.14-527a3.45 3.45 0 0 1 .43-4.85l31.65-26.56a3.45 3.45 0 0 1 4.42 5.28L388-526.57a3.45 3.45 0 0 1-4.86-.42Zm42.2-35.4a3.45 3.45 0 0 1 .43-4.86l12.66-10.62a3.44 3.44 0 0 1 4.42 5.27l-12.66 10.63a3.45 3.45 0 0 1-4.85-.43Zm-823.9 691.33a4.82 4.82 0 0 0 6.8.59l84.39-70.82a4.82 4.82 0 1 0-6.2-7.38l-84.4 70.81a4.82 4.82 0 0 0-.59 6.8Zm94.95-79.67a4.82 4.82 0 0 0 6.79.6l31.65-26.56a4.82 4.82 0 0 0-6.2-7.39l-31.65 26.56a4.82 4.82 0 0 0-.6 6.79Zm42.2-35.41a4.82 4.82 0 0 0 6.79.6l84.39-70.82a4.82 4.82 0 0 0-6.2-7.39l-84.4 70.82a4.82 4.82 0 0 0-.59 6.79Zm94.94-79.67a4.82 4.82 0 0 0 6.79.6l31.65-26.56a4.82 4.82 0 0 0-6.2-7.38l-31.65 26.55a4.82 4.82 0 0 0-.6 6.8Zm42.2-35.4a4.82 4.82 0 0 0 6.78.59l84.4-70.82a4.82 4.82 0 1 0-6.2-7.38l-84.4 70.81a4.82 4.82 0 0 0-.59 6.8Zm94.94-79.67a4.82 4.82 0 0 0 6.79.6L9.1-206.85a4.82 4.82 0 0 0-6.2-7.39l-31.65 26.56a4.82 4.82 0 0 0-.6 6.79Zm42.2-35.4a4.82 4.82 0 0 0 6.79.59l84.39-70.82a4.82 4.82 0 0 0-6.2-7.38l-84.39 70.81a4.82 4.82 0 0 0-.6 6.8Zm94.94-79.68a4.82 4.82 0 0 0 6.79.6l31.65-26.56a4.82 4.82 0 1 0-6.2-7.38l-31.65 26.55a4.82 4.82 0 0 0-.6 6.8Zm42.2-35.4a4.82 4.82 0 0 0 6.79.59l84.4-70.81a4.82 4.82 0 1 0-6.2-7.39l-84.4 70.82a4.82 4.82 0 0 0-.6 6.79Zm94.94-79.67a4.82 4.82 0 0 0 6.79.6L283.39-437a4.82 4.82 0 0 0-6.2-7.39l-31.65 26.56a4.82 4.82 0 0 0-.59 6.79Zm42.2-35.4a4.82 4.82 0 0 0 6.79.59l84.4-70.82a4.82 4.82 0 1 0-6.2-7.38l-84.4 70.81a4.83 4.83 0 0 0-.6 6.8Zm94.94-79.68a4.82 4.82 0 0 0 6.8.6l31.64-26.56a4.82 4.82 0 1 0-6.2-7.38l-31.65 26.55a4.82 4.82 0 0 0-.59 6.8Zm42.2-35.4a4.83 4.83 0 0 0 6.79.6l12.66-10.63a4.82 4.82 0 0 0-6.2-7.38l-12.66 10.62a4.82 4.82 0 0 0-.6 6.79Zm-837.73 670.58a3.44 3.44 0 0 1 .43-4.85l147.69-123.93a3.44 3.44 0 0 1 4.43 5.28l-147.7 123.93a3.45 3.45 0 0 1-4.85-.43ZM-255.2-23.72a3.44 3.44 0 0 1 .43-4.85l116.04-97.37a3.44 3.44 0 1 1 4.43 5.28L-250.34-23.3a3.45 3.45 0 0 1-4.86-.43Zm126.6-106.22a3.44 3.44 0 0 1 .42-4.85L19.51-258.72a3.44 3.44 0 1 1 4.43 5.28l-147.7 123.92a3.45 3.45 0 0 1-4.84-.42ZM29.63-262.72a3.45 3.45 0 0 1 .43-4.85l116.04-97.37a3.45 3.45 0 0 1 4.43 5.27L34.48-262.29a3.45 3.45 0 0 1-4.85-.43Zm126.6-106.22a3.45 3.45 0 0 1 .42-4.85l147.69-123.93a3.44 3.44 0 0 1 4.43 5.28l-147.7 123.92a3.44 3.44 0 0 1-4.84-.42Zm158.23-132.78a3.45 3.45 0 0 1 .43-4.85l107.6-90.29a3.44 3.44 0 1 1 4.43 5.28l-107.6 90.29a3.45 3.45 0 0 1-4.86-.43Zm-728.95 611.67a4.82 4.82 0 0 0 6.8.6L-260.02-13.4a4.82 4.82 0 1 0-6.2-7.38L-413.9 103.16a4.82 4.82 0 0 0-.59 6.79Zm158.24-132.78a4.82 4.82 0 0 0 6.79.6l116.04-97.38a4.82 4.82 0 1 0-6.2-7.38l-116.04 97.37a4.82 4.82 0 0 0-.6 6.79Zm126.6-106.23a4.82 4.82 0 0 0 6.78.6L24.83-252.4a4.82 4.82 0 0 0-6.2-7.38l-147.7 123.92a4.82 4.82 0 0 0-.59 6.8ZM28.57-261.83a4.82 4.82 0 0 0 6.79.6l116.04-97.38a4.82 4.82 0 1 0-6.2-7.38L29.18-268.62a4.82 4.82 0 0 0-.59 6.79Zm126.6-106.23a4.82 4.82 0 0 0 6.78.6l147.7-123.93a4.82 4.82 0 1 0-6.2-7.38l-147.7 123.92a4.82 4.82 0 0 0-.59 6.8ZM313.4-500.83a4.82 4.82 0 0 0 6.8.59l107.6-90.29a4.83 4.83 0 0 0-6.2-7.38L314-507.63a4.82 4.82 0 0 0-.6 6.8Zm-742.77 590.9a3.44 3.44 0 0 1 .43-4.85l116.04-97.37a3.44 3.44 0 1 1 4.42 5.27L-424.52 90.5a3.45 3.45 0 0 1-4.85-.43Zm126.6-106.22a3.45 3.45 0 0 1 .42-4.85l21.1-17.7a3.44 3.44 0 1 1 4.42 5.27l-21.1 17.7a3.45 3.45 0 0 1-4.85-.42Zm31.64-26.56a3.44 3.44 0 0 1 .43-4.85l116.04-97.37a3.44 3.44 0 1 1 4.42 5.28l-116.04 97.37a3.45 3.45 0 0 1-4.85-.43Zm126.6-106.22a3.45 3.45 0 0 1 .42-4.85l21.1-17.7a3.44 3.44 0 1 1 4.42 5.27l-21.1 17.7a3.45 3.45 0 0 1-4.85-.42Zm31.64-26.56a3.45 3.45 0 0 1 .42-4.85L3.58-277.7A3.44 3.44 0 1 1 8-272.43l-116.04 97.37a3.44 3.44 0 0 1-4.85-.43ZM13.71-281.7a3.45 3.45 0 0 1 .42-4.85l21.1-17.7a3.45 3.45 0 0 1 4.42 5.27l-21.1 17.7a3.45 3.45 0 0 1-4.85-.42Zm31.64-26.55a3.45 3.45 0 0 1 .42-4.85l116.04-97.38a3.45 3.45 0 0 1 4.43 5.28L50.2-307.84a3.45 3.45 0 0 1-4.85-.42ZM171.94-414.5a3.45 3.45 0 0 1 .43-4.85l21.1-17.7a3.44 3.44 0 0 1 4.42 5.27l-21.1 17.7a3.45 3.45 0 0 1-4.85-.42Zm31.65-26.55a3.45 3.45 0 0 1 .42-4.85l116.04-97.37a3.45 3.45 0 0 1 4.43 5.27l-116.04 97.37a3.45 3.45 0 0 1-4.85-.42Zm126.59-106.22a3.44 3.44 0 0 1 .42-4.86l21.1-17.7a3.45 3.45 0 0 1 4.43 5.28l-21.1 17.7a3.45 3.45 0 0 1-4.85-.42Zm31.65-26.56a3.45 3.45 0 0 1 .42-4.85l44.3-37.18a3.45 3.45 0 0 1 4.43 5.28l-44.3 37.17a3.44 3.44 0 0 1-4.85-.42ZM-430.42 90.96a4.82 4.82 0 0 0 6.79.59L-307.6-5.82a4.82 4.82 0 0 0-6.2-7.38l-116.04 97.37a4.82 4.82 0 0 0-.6 6.79Zm126.59-106.23a4.82 4.82 0 0 0 6.79.6l21.1-17.7a4.82 4.82 0 0 0-6.2-7.4l-21.1 17.71a4.82 4.82 0 0 0-.6 6.8Zm31.65-26.55a4.82 4.82 0 0 0 6.79.6l116.04-97.38a4.83 4.83 0 0 0-6.2-7.38l-116.04 97.37a4.82 4.82 0 0 0-.6 6.79Zm126.59-106.22a4.82 4.82 0 0 0 6.79.59l21.1-17.7a4.82 4.82 0 1 0-6.2-7.39l-21.1 17.7a4.82 4.82 0 0 0-.6 6.8Zm31.65-26.56a4.82 4.82 0 0 0 6.78.6L8.9-271.39a4.82 4.82 0 0 0-6.2-7.38l-116.04 97.37a4.82 4.82 0 0 0-.6 6.79ZM12.65-280.82a4.82 4.82 0 0 0 6.79.6l21.1-17.71a4.82 4.82 0 0 0-6.2-7.39l-21.1 17.7a4.82 4.82 0 0 0-.6 6.8Zm31.64-26.56a4.82 4.82 0 0 0 6.8.6l116.04-97.38a4.82 4.82 0 1 0-6.2-7.38L44.89-314.17a4.82 4.82 0 0 0-.6 6.8ZM170.9-413.6a4.82 4.82 0 0 0 6.79.6l21.1-17.71a4.83 4.83 0 0 0-6.2-7.39l-21.1 17.7a4.82 4.82 0 0 0-.6 6.8Zm31.64-26.56a4.82 4.82 0 0 0 6.8.6l116.04-97.37a4.82 4.82 0 0 0-6.2-7.39l-116.04 97.37a4.82 4.82 0 0 0-.6 6.8Zm126.6-106.22a4.82 4.82 0 0 0 6.79.6l21.1-17.71a4.82 4.82 0 1 0-6.2-7.38l-21.1 17.7a4.82 4.82 0 0 0-.6 6.79Zm31.64-26.56a4.82 4.82 0 0 0 6.8.6l44.3-37.18a4.82 4.82 0 0 0-6.2-7.38l-44.3 37.17a4.82 4.82 0 0 0-.6 6.8ZM-174.43 393.9a3.44 3.44 0 0 1 .42-4.86l31.65-26.56a3.44 3.44 0 0 1 4.42 5.28l-31.64 26.56a3.44 3.44 0 0 1-4.85-.43Zm42.2-35.42a3.44 3.44 0 0 1 .42-4.85l31.64-26.55a3.45 3.45 0 0 1 4.43 5.27l-31.65 26.56a3.45 3.45 0 0 1-4.85-.43Zm42.19-35.4a3.45 3.45 0 0 1 .42-4.85l31.65-26.56a3.44 3.44 0 1 1 4.43 5.27L-85.2 323.5a3.45 3.45 0 0 1-4.85-.42Zm42.2-35.41a3.45 3.45 0 0 1 .42-4.85l31.65-26.56a3.45 3.45 0 0 1 4.43 5.28L-43 288.09a3.45 3.45 0 0 1-4.85-.42Zm42.2-35.4a3.45 3.45 0 0 1 .42-4.86l31.65-26.56a3.44 3.44 0 1 1 4.42 5.28L-.8 252.69a3.44 3.44 0 0 1-4.85-.43Zm42.2-35.42a3.44 3.44 0 0 1 .42-4.85l31.64-26.55a3.45 3.45 0 0 1 4.43 5.27L41.4 217.28a3.44 3.44 0 0 1-4.85-.43Zm42.19-35.4a3.45 3.45 0 0 1 .42-4.85l31.65-26.56a3.44 3.44 0 1 1 4.43 5.28L83.6 181.87a3.45 3.45 0 0 1-4.85-.42Zm42.2-35.41a3.45 3.45 0 0 1 .42-4.85l31.65-26.56a3.44 3.44 0 1 1 4.42 5.28l-31.64 26.55a3.44 3.44 0 0 1-4.85-.42Zm42.2-35.4a3.45 3.45 0 0 1 .42-4.86l31.65-26.56a3.44 3.44 0 0 1 4.42 5.28L168 111.06a3.45 3.45 0 0 1-4.85-.43Zm42.19-35.42a3.45 3.45 0 0 1 .42-4.85l31.65-26.55a3.44 3.44 0 0 1 4.43 5.27l-31.65 26.56a3.45 3.45 0 0 1-4.85-.43Zm42.2-35.4a3.44 3.44 0 0 1 .42-4.85L279.61 8.4a3.44 3.44 0 0 1 4.43 5.27l-31.65 26.56a3.44 3.44 0 0 1-4.85-.42Zm42.2-35.41a3.44 3.44 0 0 1 .42-4.85L321.8-27a3.44 3.44 0 0 1 4.42 5.28L294.58 4.83a3.45 3.45 0 0 1-4.85-.42Zm42.2-35.4a3.44 3.44 0 0 1 .42-4.86L364-62.41a3.44 3.44 0 1 1 4.43 5.28l-31.65 26.55a3.45 3.45 0 0 1-4.85-.42Zm42.19-35.42a3.45 3.45 0 0 1 .42-4.85L406.2-97.8a3.44 3.44 0 1 1 4.43 5.27l-31.65 26.56a3.45 3.45 0 0 1-4.85-.43Zm42.2-35.4a3.44 3.44 0 0 1 .42-4.86l31.65-26.55a3.44 3.44 0 1 1 4.42 5.27l-31.64 26.56a3.44 3.44 0 0 1-4.85-.42Zm42.2-35.41a3.45 3.45 0 0 1 .42-4.85l31.65-26.56a3.44 3.44 0 1 1 4.42 5.28l-31.65 26.55a3.45 3.45 0 0 1-4.85-.42Zm42.19-35.41a3.45 3.45 0 0 1 .42-4.85l31.65-26.56a3.44 3.44 0 1 1 4.43 5.28l-31.65 26.55a3.45 3.45 0 0 1-4.85-.42Zm42.2-35.4a3.45 3.45 0 0 1 .42-4.86L575-239.44a3.44 3.44 0 1 1 4.42 5.27l-31.64 26.56a3.45 3.45 0 0 1-4.85-.43Zm42.2-35.41a3.45 3.45 0 0 1 .42-4.85l31.65-26.56a3.44 3.44 0 0 1 4.42 5.27l-31.65 26.56a3.44 3.44 0 0 1-4.85-.42Zm42.2-35.41a3.45 3.45 0 0 1 .41-4.85l31.65-26.56a3.45 3.45 0 0 1 4.43 5.28l-31.65 26.55a3.45 3.45 0 0 1-4.85-.42Zm-802.8 673.63a4.82 4.82 0 0 0 6.78.6l31.65-26.56a4.82 4.82 0 1 0-6.2-7.39l-31.65 26.56a4.82 4.82 0 0 0-.59 6.79Zm42.19-35.41a4.82 4.82 0 0 0 6.79.6l31.65-26.56a4.82 4.82 0 1 0-6.2-7.39l-31.65 26.56a4.82 4.82 0 0 0-.6 6.79Zm42.2-35.4a4.82 4.82 0 0 0 6.79.58L-52.66 298a4.82 4.82 0 0 0-6.2-7.38l-31.64 26.55a4.82 4.82 0 0 0-.6 6.8Zm42.2-35.42a4.82 4.82 0 0 0 6.78.6l31.65-26.56a4.82 4.82 0 1 0-6.2-7.38l-31.64 26.55a4.82 4.82 0 0 0-.6 6.8Zm42.19-35.4a4.82 4.82 0 0 0 6.79.59l31.65-26.56a4.82 4.82 0 0 0-6.2-7.38L-6.1 246.36a4.82 4.82 0 0 0-.59 6.79Zm42.2-35.41a4.82 4.82 0 0 0 6.79.6l31.65-26.56a4.82 4.82 0 0 0-6.2-7.39l-31.65 26.56a4.82 4.82 0 0 0-.6 6.79Zm42.2-35.4a4.82 4.82 0 0 0 6.78.59l31.65-26.56a4.82 4.82 0 1 0-6.2-7.38L78.3 175.54a4.82 4.82 0 0 0-.6 6.8Zm42.2-35.42a4.82 4.82 0 0 0 6.78.6l31.65-26.56a4.83 4.83 0 0 0-6.2-7.38l-31.64 26.55a4.82 4.82 0 0 0-.6 6.8Zm42.19-35.4a4.82 4.82 0 0 0 6.79.59l31.65-26.56a4.82 4.82 0 1 0-6.2-7.38l-31.65 26.56a4.82 4.82 0 0 0-.6 6.79Zm42.2-35.41a4.82 4.82 0 0 0 6.79.6l31.64-26.56a4.82 4.82 0 1 0-6.2-7.39l-31.64 26.56a4.82 4.82 0 0 0-.6 6.79Zm42.2-35.4a4.82 4.82 0 0 0 6.78.58l31.65-26.55a4.82 4.82 0 1 0-6.2-7.39l-31.64 26.56a4.82 4.82 0 0 0-.6 6.8Zm42.19-35.42a4.82 4.82 0 0 0 6.79.6l31.65-26.56a4.82 4.82 0 0 0-6.2-7.38L289.27-1.5a4.82 4.82 0 0 0-.6 6.8Zm42.2-35.4a4.82 4.82 0 0 0 6.79.59l31.64-26.56a4.82 4.82 0 1 0-6.2-7.38L331.48-36.9a4.82 4.82 0 0 0-.6 6.79Zm42.2-35.41a4.82 4.82 0 0 0 6.78.6l31.65-26.56a4.82 4.82 0 1 0-6.2-7.39L373.68-72.3a4.82 4.82 0 0 0-.6 6.79Zm42.2-35.4a4.82 4.82 0 0 0 6.78.59l31.65-26.56a4.82 4.82 0 0 0-6.2-7.39l-31.64 26.56a4.82 4.82 0 0 0-.6 6.8Zm42.19-35.42a4.82 4.82 0 0 0 6.79.6l31.65-26.56a4.82 4.82 0 1 0-6.2-7.38l-31.65 26.55a4.82 4.82 0 0 0-.6 6.8Zm42.2-35.4a4.82 4.82 0 0 0 6.78.59l31.65-26.56a4.82 4.82 0 0 0-6.2-7.38l-31.64 26.56a4.82 4.82 0 0 0-.6 6.78Zm42.2-35.41a4.82 4.82 0 0 0 6.78.6l31.65-26.56a4.82 4.82 0 0 0-6.2-7.39l-31.64 26.56a4.82 4.82 0 0 0-.6 6.79Zm42.19-35.41a4.83 4.83 0 0 0 6.79.6l31.65-26.56a4.82 4.82 0 0 0-6.2-7.39l-31.65 26.56a4.82 4.82 0 0 0-.6 6.79Zm42.2-35.4a4.82 4.82 0 0 0 6.79.59l31.64-26.56a4.82 4.82 0 1 0-6.2-7.38l-31.64 26.55a4.82 4.82 0 0 0-.6 6.8Z"/>
  </g>
</svg>
