<svg xmlns="http://www.w3.org/2000/svg" viewBox="0 0 311 80" preserveAspectRatio="xMidYMid meet">
  <g class="text" fill="currentColor">
    <path fill="var(--logo-text-color, currentColor)" d="M99.35 35.87c-3.86 0-6.22-2.17-6.22-6.42V21.2h3.16v8.17c0 2.35 1.17 3.57 3.1 3.57 1.93 0 3.1-1.18 3.1-3.47V21.2h3.16v8.15c0 4.37-2.44 6.52-6.3 6.52ZM107.43 35.64v-3.3h3.32v3.3zM118.57 35.85a9.11 9.11 0 0 1-6.1-2.31l1.88-2.25a6.56 6.56 0 0 0 4.29 1.75c1.29 0 2.07-.52 2.07-1.36v-.04c0-.8-.5-1.22-2.9-1.84-2.89-.74-4.76-1.55-4.76-4.42v-.04c0-2.62 2.1-4.35 5.03-4.35a8.28 8.28 0 0 1 5.33 1.84l-1.64 2.39a6.72 6.72 0 0 0-3.73-1.42c-1.21 0-1.85.55-1.85 1.26v.04c0 .95.62 1.26 3.1 1.9 2.91.76 4.55 1.81 4.55 4.33v.04c0 2.87-2.17 4.48-5.27 4.48ZM125.7 35.64v-3.3h3.33v3.3zM141.65 35.85a9.11 9.11 0 0 1-6.1-2.31l1.87-2.25a6.57 6.57 0 0 0 4.29 1.75c1.3 0 2.07-.52 2.07-1.36v-.04c0-.8-.49-1.22-2.9-1.84-2.88-.74-4.75-1.55-4.75-4.41v-.05c0-2.62 2.1-4.35 5.03-4.35a8.28 8.28 0 0 1 5.33 1.84l-1.64 2.4a6.72 6.72 0 0 0-3.73-1.43c-1.22 0-1.85.55-1.85 1.26v.04c0 .95.61 1.26 3.1 1.9 2.91.76 4.55 1.81 4.55 4.33v.04c0 2.87-2.17 4.48-5.27 4.48ZM158.73 31.2h-7.65a2.57 2.57 0 0 0 2.68 2.17 3.59 3.59 0 0 0 2.67-1.13l1.79 1.59a5.8 5.8 0 0 1-10.24-3.66v-.04a5.54 5.54 0 0 1 3.3-5.3c.67-.3 1.4-.45 2.14-.46 3.67 0 5.35 2.87 5.35 6v.05c0 .31-.02.5-.04.78Zm-5.31-4.3a2.44 2.44 0 0 0-2.38 2.34h4.7a2.38 2.38 0 0 0-2.32-2.35ZM165.42 35.89a5.58 5.58 0 0 1-5.3-3.5 5.68 5.68 0 0 1-.42-2.22v-.04a5.7 5.7 0 0 1 5.76-5.76 5.38 5.38 0 0 1 4.4 1.86l-1.92 2.07a3.22 3.22 0 0 0-2.5-1.22 2.8 2.8 0 0 0-2.52 1.9c-.12.36-.17.74-.15 1.11v.04a2.86 2.86 0 0 0 1.67 2.81c.36.16.74.24 1.12.24a3.46 3.46 0 0 0 2.53-1.17l1.82 1.86a5.54 5.54 0 0 1-4.49 2.02ZM177.8 35.64v-1.57a3.9 3.9 0 0 1-3.21 1.78c-2.36 0-3.74-1.57-3.74-4.1v-7.17h3.12v6.17c0 1.49.7 2.25 1.89 2.25s1.95-.76 1.95-2.25v-6.17h3.12v11.06h-3.12ZM189.45 27.66c-2.07 0-3.34 1.25-3.34 3.9v4.08h-3.12V24.58h3.12v2.23a3.42 3.42 0 0 1 3.5-2.44v3.29h-.16ZM190.53 23.36v-2.78h3.29v2.78h-3.29Zm.09 12.28V24.58h3.11v11.06h-3.11ZM199.55 35.83c-1.91 0-3.2-.77-3.2-3.33v-5.24h-1.32v-2.68h1.32v-2.83h3.11v2.83h2.59v2.68h-2.59V32c0 .72.31 1.07 1 1.07.55 0 1.08-.13 1.55-.4v2.53c-.75.44-1.6.66-2.46.64ZM203.65 23.36v-2.78h3.29v2.78h-3.29Zm.09 12.28V24.58h3.11v11.06h-3.11ZM219.12 31.2h-7.65a2.57 2.57 0 0 0 2.68 2.17 3.58 3.58 0 0 0 2.67-1.13l1.79 1.59a5.8 5.8 0 0 1-10.24-3.66v-.04a5.52 5.52 0 0 1 5.44-5.76c3.67 0 5.35 2.87 5.35 6v.05c0 .31-.02.5-.04.78Zm-5.31-4.3a2.44 2.44 0 0 0-2.38 2.34h4.7a2.38 2.38 0 0 0-2.32-2.35ZM224.42 35.85a7.67 7.67 0 0 1-4.72-1.67l1.33-2.07a6.2 6.2 0 0 0 3.47 1.32c.9 0 1.31-.33 1.31-.82v-.04c0-.69-1.07-.91-2.28-1.28-1.53-.46-3.28-1.18-3.28-3.33v-.04c0-2.25 1.8-3.5 4.02-3.5 1.46.02 2.89.46 4.1 1.27l-1.19 2.17a6.49 6.49 0 0 0-2.97-1.03c-.76 0-1.15.33-1.15.76v.04c0 .62 1.05.91 2.24 1.33 1.54.51 3.32 1.25 3.32 3.28v.04c0 2.45-1.82 3.57-4.2 3.57ZM241.81 35.64v-1.2a4.23 4.23 0 0 1-3.32 1.4c-2.07 0-3.78-1.19-3.78-3.38v-.04c0-2.41 1.83-3.53 4.44-3.53.91 0 1.82.15 2.68.46v-.19c0-1.3-.8-2.02-2.36-2.02-1.04 0-2.07.2-3.03.6l-.78-2.4a9.66 9.66 0 0 1 4.27-.88c3.4 0 4.9 1.77 4.9 4.76v6.42h-3.02Zm.06-4.46a4.82 4.82 0 0 0-1.99-.4c-1.33 0-2.15.53-2.15 1.52v.04c0 .84.7 1.34 1.7 1.34 1.46 0 2.44-.8 2.44-1.94v-.56ZM253.76 35.64v-6.17c0-1.49-.7-2.25-1.89-2.25s-1.95.77-1.95 2.25v6.17h-3.12V24.58h3.12v1.57a3.9 3.9 0 0 1 3.22-1.78c2.36 0 3.74 1.57 3.74 4.11v7.16h-3.12ZM266.78 35.64v-1.59a4.05 4.05 0 0 1-3.42 1.8c-2.57 0-5-2.03-5-5.72v-.04c0-3.7 2.4-5.72 5-5.72a4.2 4.2 0 0 1 3.42 1.65v-5.44h3.12v15.06h-3.12Zm.05-5.55a2.74 2.74 0 0 0-1.57-2.81 2.69 2.69 0 0 0-3.7 1.67c-.1.37-.14.76-.09 1.14v.04a2.72 2.72 0 0 0 2.68 3.06 2.69 2.69 0 0 0 2.58-1.92c.1-.37.14-.76.1-1.14v-.04ZM93.36 56.44V42h10.83v2.82H96.5v2.93h6.76v2.83H96.5v3.03h7.8v2.83zM112.85 56.44l-2.22-3.45-2.2 3.45h-3.27l3.85-5.61-3.7-5.45h3.34l2.05 3.22 2.07-3.22h3.26l-3.7 5.39 3.86 5.67z"/>
    <path fill="var(--logo-text-color, currentColor)" d="M121.84 56.68a5.58 5.58 0 0 1-5.3-3.5 5.68 5.68 0 0 1-.43-2.21v-.04a5.7 5.7 0 0 1 5.77-5.76 5.38 5.38 0 0 1 4.39 1.86l-1.9 2.06a3.22 3.22 0 0 0-2.51-1.22 2.8 2.8 0 0 0-2.52 1.91c-.12.36-.17.73-.15 1.1v.05a2.86 2.86 0 0 0 1.67 2.8c.35.17.73.25 1.12.25a3.46 3.46 0 0 0 2.52-1.18l1.83 1.86a5.54 5.54 0 0 1-4.5 2.02ZM134.42 56.44v-6.17c0-1.49-.7-2.25-1.88-2.25-1.2 0-1.95.76-1.95 2.25v6.17h-3.12V41.37h3.12v5.58a3.9 3.9 0 0 1 3.22-1.78c2.36 0 3.73 1.57 3.73 4.1v7.17h-3.12ZM145.92 56.44v-1.2a4.23 4.23 0 0 1-3.32 1.4c-2.08 0-3.78-1.2-3.78-3.38v-.04c0-2.42 1.83-3.53 4.43-3.53.92 0 1.83.15 2.69.45v-.18c0-1.3-.8-2.02-2.36-2.02-1.04 0-2.07.2-3.04.6l-.78-2.4a9.66 9.66 0 0 1 4.27-.89c3.4 0 4.9 1.78 4.9 4.77v6.42h-3.01Zm.06-4.46a4.82 4.82 0 0 0-1.99-.41c-1.33 0-2.15.53-2.15 1.52v.05c0 .84.7 1.34 1.7 1.34 1.46 0 2.44-.8 2.44-1.94v-.56ZM157.86 56.44v-6.17c0-1.49-.7-2.25-1.89-2.25s-1.94.76-1.94 2.25v6.17h-3.12V45.38h3.12v1.57a3.9 3.9 0 0 1 3.22-1.78c2.36 0 3.73 1.57 3.73 4.1v7.17h-3.12ZM167.8 59.78a10.4 10.4 0 0 1-4.86-1.16l1.06-2.35a7.14 7.14 0 0 0 3.72 1.01c2.13 0 3.14-1.03 3.14-3v-.55a4.31 4.31 0 0 1-3.6 1.8 4.8 4.8 0 0 1-4.6-3.2 4.88 4.88 0 0 1-.28-1.96v-.04a4.9 4.9 0 0 1 2.95-4.78c.61-.26 1.27-.39 1.94-.38a4.43 4.43 0 0 1 3.54 1.65v-1.44h3.12v8.56c0 4.17-2.05 5.84-6.13 5.84Zm3.06-9.45a2.7 2.7 0 0 0-2.68-2.56 2.67 2.67 0 0 0-2.68 2.56v.04a2.54 2.54 0 0 0 2.67 2.56 2.53 2.53 0 0 0 2.69-2.56v-.04ZM186.2 52h-7.66a2.56 2.56 0 0 0 2.69 2.17 3.59 3.59 0 0 0 2.66-1.14l1.79 1.6a5.8 5.8 0 0 1-10.24-3.66v-.04a5.54 5.54 0 0 1 3.3-5.3c.67-.3 1.4-.45 2.14-.46 3.67 0 5.35 2.87 5.35 6v.05c0 .3-.02.5-.04.78Zm-5.32-4.31a2.45 2.45 0 0 0-2.38 2.35h4.7a2.38 2.38 0 0 0-2.32-2.35ZM200.12 56.68a7.21 7.21 0 0 1-6.84-4.56 7.33 7.33 0 0 1-.52-2.86v-.05a7.4 7.4 0 0 1 2.15-5.34 7.3 7.3 0 0 1 5.33-2.12 7.37 7.37 0 0 1 5.67 2.22l-2.01 2.34c-.97-1.01-2.29-1.6-3.68-1.63a4.23 4.23 0 0 0-3.91 2.81 4.3 4.3 0 0 0-.25 1.68v.04a4.32 4.32 0 0 0 2.5 4.17c.53.23 1.09.36 1.66.37a5.15 5.15 0 0 0 3.78-1.69l2 2.04a7.34 7.34 0 0 1-5.88 2.58ZM212.48 56.68a5.68 5.68 0 0 1-5.47-3.47c-.3-.7-.45-1.47-.46-2.24v-.04a6 6 0 0 1 5.93-5.76 5.94 5.94 0 0 1 5.97 5.72v.04a5.84 5.84 0 0 1-3.71 5.38c-.72.27-1.49.4-2.26.37Zm2.9-5.75a2.96 2.96 0 0 0-1.76-2.81 2.9 2.9 0 0 0-2.27-.03 2.8 2.8 0 0 0-1.72 2.8v.04a2.94 2.94 0 0 0 2.9 3.05 2.8 2.8 0 0 0 2.68-1.86c.13-.37.19-.76.16-1.15v-.04ZM233.58 56.44v-6.17c0-1.49-.65-2.25-1.82-2.25s-1.89.76-1.89 2.25v6.17h-3.12v-6.17c0-1.49-.65-2.25-1.82-2.25s-1.9.76-1.9 2.25v6.17h-3.11V45.38h3.12v1.57a3.93 3.93 0 0 1 3.24-1.78 3.28 3.28 0 0 1 3.1 1.75 4.53 4.53 0 0 1 3.6-1.75c2.33 0 3.72 1.4 3.72 4.07v7.2h-3.12ZM252.4 56.44v-6.17c0-1.49-.66-2.25-1.82-2.25-1.17 0-1.9.76-1.9 2.25v6.17h-3.1v-6.17c0-1.49-.67-2.25-1.84-2.25s-1.88.76-1.88 2.25v6.17h-3.12V45.38h3.12v1.57a3.93 3.93 0 0 1 3.24-1.78 3.27 3.27 0 0 1 3.1 1.75 4.53 4.53 0 0 1 3.6-1.75c2.33 0 3.72 1.4 3.72 4.07v7.2h-3.12ZM257.52 44.16v-2.79h3.28v2.79h-3.28Zm.08 12.28V45.38h3.12v11.06h-3.12ZM266.66 56.64a7.68 7.68 0 0 1-4.72-1.67l1.33-2.06a6.2 6.2 0 0 0 3.47 1.32c.9 0 1.31-.33 1.31-.83v-.04c0-.68-1.06-.9-2.27-1.28-1.54-.45-3.28-1.17-3.28-3.32v-.04c0-2.25 1.8-3.5 4.02-3.5 1.46.01 2.88.46 4.1 1.27l-1.2 2.17a6.48 6.48 0 0 0-2.97-1.03c-.75 0-1.14.33-1.14.76v.04c0 .62 1.04.9 2.23 1.32 1.54.52 3.32 1.26 3.32 3.28v.04c0 2.46-1.82 3.57-4.2 3.57ZM276.13 56.64a7.67 7.67 0 0 1-4.72-1.67l1.34-2.06a6.2 6.2 0 0 0 3.46 1.32c.9 0 1.32-.33 1.32-.83v-.04c0-.68-1.07-.9-2.28-1.28-1.54-.45-3.28-1.17-3.28-3.32v-.04c0-2.25 1.8-3.5 4.02-3.5 1.46.01 2.88.46 4.1 1.27l-1.19 2.17a6.49 6.49 0 0 0-2.97-1.03c-.76 0-1.15.33-1.15.76v.04c0 .62 1.05.9 2.23 1.32 1.54.52 3.33 1.26 3.33 3.28v.04c0 2.46-1.83 3.57-4.2 3.57ZM281.81 44.16v-2.79h3.29v2.79h-3.29Zm.09 12.28V45.38h3.12v11.06h-3.12ZM292.42 56.68a5.69 5.69 0 0 1-5.47-3.47c-.3-.7-.46-1.47-.46-2.24v-.04a6 6 0 0 1 5.93-5.76 5.94 5.94 0 0 1 5.97 5.72v.04a5.84 5.84 0 0 1-3.71 5.38c-.72.27-1.5.4-2.26.37Zm2.9-5.75a2.96 2.96 0 0 0-1.76-2.81 2.91 2.91 0 0 0-2.27-.03 2.82 2.82 0 0 0-1.72 2.8v.04a2.96 2.96 0 0 0 1.75 2.8 2.91 2.91 0 0 0 2.27.03 2.82 2.82 0 0 0 1.72-2.8v-.03ZM306.81 56.44v-6.17c0-1.49-.7-2.25-1.88-2.25-1.2 0-1.95.76-1.95 2.25v6.17h-3.12V45.38h3.12v1.57a3.89 3.89 0 0 1 3.22-1.78c2.36 0 3.73 1.57 3.73 4.1v7.17h-3.12Z"/>
  </g>
  <g class="seal" fill="currentColor">
    <path fill="var(--logo-seal-color, currentColor)" d="M39.55.13c-7.73 0-15.29 2.3-21.72 6.63A39.27 39.27 0 0 0 3.43 24.4a39.53 39.53 0 0 0 8.48 42.85 38.89 38.89 0 0 0 42.6 8.52A39.15 39.15 0 0 0 72.07 61.3a39.48 39.48 0 0 0-4.86-49.65A39.08 39.08 0 0 0 39.55.13Zm0 77.87c-7.58 0-14.99-2.26-21.29-6.5A38.5 38.5 0 0 1 4.14 54.2a38.76 38.76 0 0 1 8.31-42 38.12 38.12 0 0 1 41.77-8.36c7 2.92 13 7.86 17.2 14.2a38.71 38.71 0 0 1-4.76 48.67 38.22 38.22 0 0 1-27.1 11.3Z"/>
    <path fill="var(--logo-seal-color, currentColor)" d="M39.55 9.86a29.3 29.3 0 0 0-16.35 4.98 29.56 29.56 0 0 0-10.83 13.29 29.76 29.76 0 0 0 6.38 32.25 29.38 29.38 0 0 0 32.07 6.42 29.47 29.47 0 0 0 13.2-10.9 29.72 29.72 0 0 0-3.66-37.38 29.34 29.34 0 0 0-20.8-8.66Zm0 58.48a28.6 28.6 0 0 1-15.95-4.86A28.86 28.86 0 0 1 13.02 50.5a29.05 29.05 0 0 1 6.22-31.48 28.67 28.67 0 0 1 31.3-6.27 28.76 28.76 0 0 1 12.9 10.64 29.01 29.01 0 0 1-3.57 36.48 28.71 28.71 0 0 1-20.32 8.46ZM10.03 61.2l.1-.09c.2.25.39.28.67.07l2.65-1.93c.26-.15.46-.4.55-.7a1 1 0 0 0-.22-.72 1.12 1.12 0 0 0-.74-.51c-.35 0-.7.14-.96.38l-2.25 1.64c-.52.37-.58.53-.4.8l-.1.1-.69-.96.12-.08c.21.29.4.27.7.06l2.57-1.88c.59-.43 1.4-.64 2.22.49a1.47 1.47 0 0 1-.17 2.24l-2.64 1.92c-.26.2-.35.37-.16.67l-.12.08-1.13-1.58ZM11.94 55.4a.56.56 0 0 1 .78.19.57.57 0 0 1-.4.86.56.56 0 0 1-.57-.28.56.56 0 0 1 .2-.77ZM7.62 53.94c-.7.52-.99 1.23-.71 1.78a.76.76 0 0 0 .73.43.75.75 0 0 0 .53-.27.75.75 0 0 0 .15-.27c.17-.5.04-1.39.25-2a1.64 1.64 0 0 1 .86-.97 1.48 1.48 0 0 1 2.06.63c.13.4.22.8.26 1.22.06.12.19.16.4.11l.05.12-1.74.86-.06-.12c.81-.55 1.18-1.38.87-2a.8.8 0 0 0-1.13-.32.75.75 0 0 0-.46.52c-.15.44-.1 1.4-.27 1.92a1.48 1.48 0 0 1-.8.93 1.33 1.33 0 0 1-1.9-.54c-.25-.5-.1-.95-.2-1.15-.06-.13-.17-.15-.4-.08l-.07-.13 1.51-.8.07.13ZM9.7 50.57a.56.56 0 0 1 .77.54.57.57 0 0 1-.37.52.56.56 0 0 1-.72-.33.56.56 0 0 1 .31-.73ZM5.17 46.23c-.8.35-1.23.97-1.1 1.58a.76.76 0 0 0 .63.59.74.74 0 0 0 .78-.37c.28-.46.36-1.35.7-1.9a1.64 1.64 0 0 1 1.06-.74 1.48 1.48 0 0 1 1.86 1.09c.04.41.03.83-.03 1.24.04.14.15.2.37.2l.03.13-1.9.44-.03-.13C8.45 48 9 47.29 8.84 46.6a.81.81 0 0 0-.7-.6.8.8 0 0 0-.33.03.76.76 0 0 0-.56.4c-.24.4-.41 1.34-.7 1.8a1.47 1.47 0 0 1-1 .73A1.33 1.33 0 0 1 3.83 48c-.13-.54.12-.94.07-1.16-.03-.14-.14-.19-.38-.17l-.03-.14 1.65-.43.03.13ZM6.58 41.15l1.63.08.4 3.65-.14.02c-.03-.42-.2-.53-.59-.49l-3.87.43c-.38.04-.54.14-.48.6l-.13.01L3 41.91l1.49-.16.01.14a1.2 1.2 0 0 0-1.07 1c-.03.18-.03.36.02.53l.04.4 2.14-.24c-.08-.58-.47-.85-1.3-.76v-.14l2.64-.3.01.14c-.8.1-1.12.44-1.07 1.03l1.6-.17c.53-.06.62-.15.58-.53-.11-.99-.51-1.34-1.51-1.56l-.01-.14ZM4.65 36.94c-.83.08-1.44.59-1.46 1.2a.97.97 0 0 0 .29.7 3 3 0 0 0 2.1.59c.74.11 1.5-.06 2.12-.48a.93.93 0 0 0 .3-.67c.01-.57-.3-.92-.9-1.43l.4.01a1.95 1.95 0 0 1 .83 1.65c-.02 1.28-1.12 2.14-2.67 2.1-1.62-.03-2.83-1-2.8-2.25.01-.7.38-.95.39-1.24 0-.12-.1-.16-.36-.22v-.13l1.76.03v.14ZM3.38 33.89l.14.01c-.04.31.08.47.42.52l3.23.52c.3.08.61.04.88-.11a1 1 0 0 0 .35-.67 1.13 1.13 0 0 0-.16-.88c-.26-.24-.6-.39-.95-.41l-2.75-.44c-.62-.1-.78-.04-.84.3l-.13-.03.18-1.15.13.02c-.04.36.1.48.46.54l3.13.5c.72.11 1.45.54 1.23 1.91-.1.7-.48 1.66-1.68 1.47l-3.22-.5c-.33-.06-.5 0-.59.34l-.13-.02.3-1.92ZM10.1 28.4l-.38 1.3-2.68.45-.05.19 1.7.5c.42.13.55.02.66-.35l.13.04-.59 2-.13-.03c.12-.37-.01-.53-.35-.63l-3.77-1.11c-.35-.1-.55-.05-.64.33l-.13-.04.58-1.99c.36-1.24 1.12-1.47 1.85-1.25a1.27 1.27 0 0 1 1 1.28l1.95-.32c.53-.1.65-.16.72-.4l.13.04Zm-3.33 1.87.05-.17c.18-.62-.04-.99-.87-1.24-.78-.23-1.13-.05-1.35.68l-.02.09 2.19.64ZM6.2 24.3l.12.06c-.13.27-.07.49.27.63l3.63 1.53c.34.15.53.11.67-.23l.13.05-.77 1.85-.13-.05c.13-.3.04-.49-.3-.63L6.2 25.98c-.26-.1-.5-.15-.65.23l-.13-.06.77-1.85ZM7.67 24.3l-1.21-.67 1.8-3.36 1.22.67-.06.12c-.78-.32-1.15-.2-1.56.56l3.77 2.05c.34.2.54.18.74-.25l.13.07-1.06 1.95-.12-.06c.24-.38.15-.58-.18-.76l-3.78-2.06c-.38.7-.4 1.1.38 1.61l-.07.12ZM9.8 18l.12.07c-.18.24-.16.47.14.68l3.27 2.22c.3.2.5.21.7-.1l.12.08-1.12 1.66-.12-.07c.19-.27.13-.47-.17-.68l-3.25-2.21c-.23-.16-.47-.25-.69.09l-.11-.08L9.8 18ZM15.66 16.52l1.07 1.25-2.36 2.8-.1-.09c.28-.3.24-.5-.06-.76l-2.97-2.53c-.29-.25-.48-.3-.77.06l-.1-.09 2.29-2.71 1.14.97-.09.1a1.2 1.2 0 0 0-1.83.29l-.25.3 1.64 1.4c.36-.46.3-.93-.34-1.47l.09-.1 2.03 1.73-.09.1c-.61-.52-1.09-.52-1.48-.07l1.24 1.05c.4.34.52.35.76.06a1.57 1.57 0 0 0 .1-2.18l.08-.1ZM16.61 12.83a1.48 1.48 0 0 0-1.9-.18.76.76 0 0 0-.04 1.1.74.74 0 0 0 .55.24c.53.01 1.34-.36 1.99-.34a1.62 1.62 0 0 1 1.16.55 1.5 1.5 0 0 1 0 2.18c-.41.37-.94.44-1.1.59-.1.1-.1.23.01.42l-.1.09-1.32-1.44.1-.1a1.67 1.67 0 0 0 2.16.27.8.8 0 0 0-.02-1.18.76.76 0 0 0-.63-.29c-.46-.02-1.35.3-1.9.29a1.46 1.46 0 0 1-1.13-.51 1.35 1.35 0 0 1-.02-1.99c.4-.38.88-.36 1.04-.51.1-.1.1-.22-.04-.42l.1-.1 1.2 1.23-.1.1ZM24.12 11.93l-1.55 1.01-.07-.11c.24-.16.28-.27.2-.39a1.8 1.8 0 0 0-.26-.28l-.41-.35-1.1.71.16.53c.02.1.06.22.12.32.08.13.23.16.46 0l.07.12-.9.6-.08-.12c.2-.2.2-.34.01-1.02L19.53 8.5l.12-.07 3.53 3c.5.44.65.49.86.39l.08.11Zm-3.77-1.55h-.01l.52 1.85.94-.62-1.45-1.23ZM27.65 10.31l-4.38-2.58h-.01l1.46 3.14c.16.34.35.44.7.27l.05.12-1.19.57-.06-.13c.37-.15.42-.34.26-.68L22.8 7.46l-.47-.25a.29.29 0 0 0-.23-.02l-.06-.13 1.14-.54 3.44 2.03h.02l-1.13-2.4c-.15-.33-.3-.43-.65-.27l-.06-.12 1.12-.53.06.12c-.29.14-.37.29-.21.63l2 4.27-.13.06ZM28.76 4.28c1.48-.46 2.46.54 2.86 1.87.37 1.22.28 2.68-1.47 3.21l-1.78.55-.04-.13c.36-.11.43-.3.33-.66l-1.14-3.77c-.1-.32-.24-.48-.63-.35l-.05-.14 1.92-.58Zm.88 4.4c.12.4.21.48.47.4a.93.93 0 0 0 .57-.44c.15-.71.09-1.45-.18-2.12a3.29 3.29 0 0 0-1.1-1.88 1.1 1.1 0 0 0-.78-.02l-.2.06 1.22 4ZM37.95 6.29l-.08 1.64-3.64.38-.01-.14c.41-.02.52-.2.48-.58l-.4-3.9c-.05-.37-.15-.54-.6-.48l-.02-.14 3.52-.37.16 1.5-.14.01a1.22 1.22 0 0 0-1-1.09 1.2 1.2 0 0 0-.52.03l-.4.04.23 2.15c.58-.09.86-.47.77-1.3l.14-.02.28 2.67-.14.01c-.08-.8-.43-1.13-1.02-1.08l.17 1.62c.06.52.14.61.52.57.98-.1 1.34-.5 1.56-1.5l.14-.02ZM39.02 3.5c-.28-.63-.32-.68-.57-.74v-.14l1.84.04v.14c-.24 0-.33.07-.34.2.02.1.05.2.1.3l.52 1.18.56-.97a.88.88 0 0 0 .16-.4c0-.2-.11-.3-.45-.3v-.13l1.39.03v.14c-.31.01-.49.19-.86.83l-.65 1.12 1.1 2.52c.18.41.25.5.42.52v.14l-1.8-.04V7.8c.26.01.34-.07.34-.18a1.55 1.55 0 0 0-.15-.47l-.56-1.25-.61 1.06c-.12.16-.2.34-.22.53 0 .2.14.28.51.3v.13l-1.41-.03v-.14c.3 0 .41-.12.8-.8l.8-1.37-.92-2.08ZM46.43 4.93a1.45 1.45 0 0 0-1-1.6.95.95 0 0 0-.72.2 3.04 3.04 0 0 0-.85 2.02c-.21.73-.13 1.5.21 2.18a.93.93 0 0 0 .62.38c.56.08.95-.19 1.52-.71l-.06.39a1.94 1.94 0 0 1-1.73.63c-1.25-.19-1.97-1.39-1.75-2.93.24-1.62 1.35-2.7 2.58-2.52.69.1.9.5 1.18.54.11.01.17-.08.25-.33l.14.02-.25 1.75-.14-.02ZM47.6 3.61l.04-.13 1.97.58-.04.14c-.35-.12-.52 0-.62.33l-.49 1.68 1.48.44.49-1.65c.1-.34.07-.54-.33-.65l.04-.13 1.96.58-.04.13c-.31-.1-.5-.03-.6.35l-1.11 3.77c-.1.36-.08.56.31.67l-.04.14-1.96-.58.03-.14c.38.13.53-.03.64-.4l.52-1.77-1.48-.44-.53 1.8c-.12.4 0 .56.33.66l-.04.13-1.97-.58.04-.14c.35.11.51.01.62-.34l1.11-3.82c.1-.32.04-.53-.33-.63ZM54.52 11.67l-1.68-.78.06-.13c.27.13.38.1.44-.02.04-.12.08-.25.1-.38l.08-.54-1.2-.55-.35.4c-.08.09-.15.18-.21.28-.07.14-.01.28.24.4l-.06.12-.98-.46.06-.13c.26.08.39 0 .86-.52l3.1-3.43.12.06-.66 4.62c-.1.65-.06.8.14.93l-.06.13Zm-.69-4.04h-.01l-1.29 1.42 1.03.48.27-1.9ZM57.76 13.82l-.15-5.1-.01-.01-1.87 2.9c-.2.33-.18.54.15.75l-.08.11-1.11-.72.07-.11c.33.23.51.17.72-.15l2.12-3.3-.04-.55a.3.3 0 0 0-.1-.2l.07-.12 1.06.69.12 4 .01.02 1.43-2.23c.19-.3.2-.5-.13-.7l.07-.12 1.05.68-.08.11c-.26-.17-.44-.16-.64.16l-2.54 3.97-.12-.08ZM64.64 12.45 63.5 13.8l-.1-.09c.44-.83.42-1.61-.07-2.03-.65-.55-1.46.02-2.58 1.34-1.06 1.24-1.17 1.93-.64 2.38.12.13.29.2.46.2l.81-.96a.43.43 0 0 0 .1-.6.43.43 0 0 0-.18-.14l.1-.1 1.54 1.32-.09.1c-.28-.21-.43-.16-.9.39l-.57.68a3.19 3.19 0 0 1-1.5-.7c-.7-.6-1.3-1.84 0-3.39 1.16-1.36 2.7-1.54 3.57-.8.5.44.52.92.67 1.05.1.08.26.05.43-.1l.1.09ZM65.41 18.8l-1.37.89-2.45-2.75.1-.09c.27.33.48.32.77.05l2.9-2.61c.28-.25.36-.44.04-.77l.1-.1 2.37 2.66-1.12 1-.1-.1a1.22 1.22 0 0 0-.02-1.86l-.27-.3-1.6 1.44c.4.43.88.43 1.5-.13l.09.1-1.99 1.8-.09-.11c.6-.54.67-1.02.28-1.46l-1.2 1.08c-.4.35-.42.48-.17.76a1.56 1.56 0 0 0 2.14.39l.09.1ZM70.49 22.97a1.44 1.44 0 0 0 .6-1.79.96.96 0 0 0-.61-.44 3 3 0 0 0-2.1.62c-.96.58-1.42 1.06-1.54 1.55a.94.94 0 0 0 .1.72c.29.49.74.62 1.5.73l-.33.2a1.93 1.93 0 0 1-1.58-.95c-.65-1.1-.18-2.41 1.16-3.21 1.39-.84 2.93-.66 3.56.41.36.6.18 1.02.33 1.26.06.1.17.09.42 0l.07.11-1.51.91-.07-.12ZM68.4 27.4c-.35-.86-.31-2.31 1.66-3.13 2.04-.85 3.08.23 3.4 1.01.39.94.21 2.36-1.68 3.16-1.96.81-3.03-.2-3.37-1.03Zm4.8-2c-.32-.76-1.22-.65-2.64-.05-1.23.51-2.25 1.08-1.9 1.94.35.84 1.36.59 2.73.02 1.35-.57 2.14-1.1 1.8-1.91ZM74.93 29.98l-3.02 1.85v.01l3.53.33.36 1.54-.13.03c-.1-.3-.26-.38-.64-.3l-3.73.89c-.34.08-.53.2-.46.55l-.13.03-.46-1.96.13-.03c.1.41.26.47.64.38l3.86-.91v-.02L70 31.94l-.03-.12 4.14-2.53v-.01l-3.83.9c-.37.09-.5.23-.41.59l-.14.03-.27-1.19.13-.03c.09.33.25.41.58.33l3.84-.9c.33-.08.49-.2.41-.57l.13-.03.37 1.57Z"/>
    <path fill="var(--logo-seal-color, currentColor)" d="m76.05 36.48-3.31 1.28v.02l3.42.95.08 1.58-.13.01c-.04-.3-.19-.42-.59-.4l-3.82.2c-.36.02-.56.1-.55.46H71l-.1-2.01h.13c.02.42.17.5.57.48l3.96-.2v-.02l-4.72-1.3v-.12l4.52-1.75v-.02l-3.94.2c-.37.03-.52.14-.5.51l-.14.01-.06-1.22h.14c.02.33.17.44.51.42l3.95-.2c.33-.02.5-.1.5-.48l.14-.01.08 1.61ZM75.96 43.3h-.13c.03-.3-.1-.49-.46-.52l-3.93-.3c-.37-.03-.54.07-.57.44l-.14-.01.16-2h.13c-.03.33.12.48.5.5l3.9.3c.28.03.53-.02.56-.42l.14.01-.16 2ZM73.86 46.59c.88 0 1.52-.42 1.62-1.03a.77.77 0 0 0-.93-.88c-.1.03-.2.07-.28.14-.43.3-.84 1.1-1.38 1.48a1.63 1.63 0 0 1-1.25.27 1.48 1.48 0 0 1-1.28-1.13 1.5 1.5 0 0 1-.03-.6c.1-.55.47-.92.5-1.14.03-.13-.05-.24-.25-.32l.02-.13 1.92.32-.02.14c-.98-.03-1.76.42-1.88 1.1a.82.82 0 0 0 .42.84c.1.05.2.08.32.1a.75.75 0 0 0 .67-.16c.37-.26.89-1.07 1.34-1.4a1.47 1.47 0 0 1 1.2-.27 1.33 1.33 0 0 1 1.19 1c.05.19.05.38.02.56-.09.55-.47.82-.5 1.04-.03.15.05.23.27.31l-.02.14-1.69-.24.02-.14ZM72.86 50.4c.87.1 1.55-.24 1.72-.83a.76.76 0 0 0-1.12-.88c-.46.26-.97 1-1.54 1.31a1.63 1.63 0 0 1-1.27.13 1.48 1.48 0 0 1-1.15-1.27c-.03-.2-.01-.4.04-.6.16-.53.57-.86.63-1.07.04-.14-.03-.25-.22-.35l.04-.13 1.87.54-.04.14c-.97-.15-1.8.22-1.99.88a.82.82 0 0 0 .63 1 .75.75 0 0 0 .69-.07c.4-.22 1-.96 1.49-1.23a1.46 1.46 0 0 1 1.22-.14 1.33 1.33 0 0 1 1.07 1.14c.02.18.01.37-.04.55-.16.54-.56.76-.63.98-.04.14.03.23.25.34l-.04.13-1.65-.43.04-.14ZM73.33 53.67l-.13-.05c.12-.27.06-.49-.29-.62l-3.68-1.43c-.34-.13-.53-.1-.66.25l-.13-.05.72-1.87.13.05c-.12.3-.02.49.32.62L73.26 52c.27.1.52.14.66-.24l.13.05-.72 1.87ZM67.24 54.01c.43-.82 1.56-1.72 3.45-.73 1.96 1.03 1.8 2.53 1.4 3.28-.47.9-1.67 1.67-3.48.71-1.88-.99-1.79-2.46-1.37-3.26Zm4.6 2.42c.38-.73-.29-1.35-1.65-2.07-1.18-.62-2.27-1.05-2.7-.22-.41.8.42 1.43 1.73 2.11 1.3.69 2.22.95 2.62.18ZM64.1 59.03l5.07.1-2.79-2.02c-.3-.22-.52-.22-.74.1l-.1-.08.76-1.08.11.08c-.24.32-.2.5.1.73l3.19 2.28h.53a.29.29 0 0 0 .21-.1l.12.08-.74 1.03-3.98-.08-.01.01 2.14 1.54c.29.21.48.22.7-.09l.11.08-.72 1.01-.1-.08c.17-.26.17-.43-.13-.65L64 59.14l.08-.1ZM23.72 66.46l-.64 3.5 2.6-2.43 1.39.76-.07.12c-.28-.12-.45-.06-.65.3l-1.83 3.37c-.17.31-.2.53.1.72l-.06.12-1.76-.97.06-.12c.37.2.53.12.71-.23l1.9-3.5h-.01l-3.57 3.35-.1-.05.88-4.8h-.01l-1.89 3.47c-.18.34-.16.52.17.7l-.07.12-1.07-.58.07-.12c.3.15.47.09.63-.22l1.9-3.48c.15-.3.17-.5-.15-.68l.06-.13 1.41.78ZM30.43 71.18a1.45 1.45 0 0 0-.68-1.76.95.95 0 0 0-.75.05 3.03 3.03 0 0 0-1.21 1.83 2.98 2.98 0 0 0-.2 2.18.93.93 0 0 0 .53.5c.54.18.96-.01 1.63-.42l-.13.37a1.94 1.94 0 0 1-1.82.29c-1.2-.42-1.68-1.74-1.16-3.21.53-1.54 1.83-2.4 3-1.98.66.23.78.66 1.05.75.11.04.19-.04.32-.27l.13.04-.58 1.67-.13-.04ZM33.46 70.19l.55 3.52h.01l1.65-3.16 1.56.25-.02.14c-.31-.02-.45.1-.52.49l-.61 3.8c-.06.35-.02.57.33.64l-.02.14-1.98-.32.02-.14c.42.07.53-.06.6-.45l.63-3.94h-.02l-2.26 4.36-.11-.02-.75-4.81h-.02l-.63 3.9c-.06.38.02.55.39.6l-.02.15-1.2-.2.02-.14c.33.05.47-.07.52-.41l.64-3.93c.05-.33 0-.52-.37-.6l.03-.13 1.58.26ZM38.5 71.66c-.3-.62-.33-.66-.59-.71v-.14l1.84-.03v.14c-.24 0-.33.08-.33.2.02.1.05.2.1.3l.58 1.16.52-1a.88.88 0 0 0 .14-.4c0-.19-.12-.3-.46-.27v-.14l1.38-.03v.14c-.3.03-.47.21-.82.87l-.6 1.14 1.2 2.48c.2.4.27.49.44.5v.14l-1.8.03v-.14c.26 0 .33-.08.33-.2a1.56 1.56 0 0 0-.17-.45l-.6-1.23-.58 1.08c-.1.16-.17.35-.2.54 0 .2.15.28.53.27v.14l-1.41.03v-.14c.29-.02.4-.14.77-.84l.73-1.4-1-2.04ZM43.12 71.47c-.38-.57-.43-.61-.69-.62l-.02-.14 1.82-.28.02.13c-.24.04-.32.13-.3.25.03.1.08.2.15.29l.72 1.06.38-1.05a.9.9 0 0 0 .09-.42c-.03-.19-.16-.28-.5-.21l-.02-.14 1.37-.21.02.14c-.3.07-.44.27-.7.97l-.44 1.21 1.53 2.3c.25.37.33.44.5.43l.02.14-1.78.27-.03-.13c.26-.04.33-.13.31-.24-.05-.15-.13-.3-.23-.43l-.76-1.13-.43 1.14a1.3 1.3 0 0 0-.12.57c.03.19.19.25.56.2l.02.13-1.4.22-.02-.14c.29-.05.38-.2.65-.93l.54-1.48-1.26-1.9ZM47.62 70.64c-.46-.5-.5-.54-.77-.52l-.04-.13 1.76-.54.04.13c-.23.07-.3.17-.26.3.05.09.1.18.18.25l.87.95.23-1.1a.88.88 0 0 0 .02-.42c-.05-.19-.2-.26-.51-.14l-.04-.13 1.32-.41.04.13c-.29.12-.4.33-.55 1.07l-.27 1.26 1.83 2.04c.3.34.4.4.56.37l.04.13-1.72.53-.04-.13c.25-.07.3-.18.27-.28a1.53 1.53 0 0 0-.3-.4l-.9-1-.26 1.19a1.3 1.3 0 0 0-.05.57c.06.19.22.23.58.12l.04.13-1.35.41-.04-.13c.28-.1.35-.24.51-1.01l.33-1.55-1.52-1.69ZM52.9 67.78l.06.13c-.28.1-.4.3-.24.64l1.57 3.64c.15.34.3.44.65.3l.05.12-1.83.8-.06-.12c.3-.12.37-.33.22-.67L51.76 69c-.12-.26-.27-.46-.64-.3l-.05-.12 1.83-.8ZM57.68 71.36l-3.54-3.4c-.3-.29-.45-.33-.67-.25l-.07-.12 1.6-.93.06.12c-.25.14-.3.24-.22.38.06.1.15.2.24.28l2 1.92h.01l-.55-2.47c-.03-.2-.1-.4-.2-.6-.07-.14-.2-.14-.41 0l-.07-.13.93-.54.07.12c-.18.15-.23.27-.11.81l1.05 4.74-.12.07ZM18.49 63.47l-.6 1.4 1.15 1.01-1.51-.14-.6 1.4-.34-1.49-1.51-.13 1.3-.79-.33-1.49 1.14 1.01zM61.03 63.47l.6 1.4-1.14 1.01 1.5-.14.6 1.4.34-1.49 1.52-.13-1.31-.79.34-1.49-1.14 1.01zM26.5 43.81h.01a3.95 3.95 0 0 0 2.2-1.27l.35-.31-.01-.02-.13-.27h-.02a.28.28 0 0 0-.1-.04c-.6.33-1.16.7-1.7 1.1l-.3.23h-.04c.06-.08.14-.15.22-.2l.06-.05c.28-.3.6-.54.95-.74.2-.12.4-.26.6-.4l.02-.03-.13-.06h-.06c-.65.46-1.34.85-2.06 1.17l-.16.24c-.02.01-.06.04-.06.08a.3.3 0 0 1-.01.06l-.02.1c0 .03 0 .06.02.09a.5.5 0 0 0 .38.32Zm-.11-2.12.02.03-.2.16-.02-.03.2-.16Zm1.86-.48.02-.02h-.03v-.02l-.02-.02-.02-.01c-.32-.25-.62-.05-.91.14-.12.08-.24.15-.37.2a1.3 1.3 0 0 0-.19.1l-.2.09 1.03-.73v-.06l-.39.17c-.56.28-1.15.48-1.76.62-.06.01-.1.05-.14.1l-.07.07a.63.63 0 0 0 .03.66c.3.17.64.22.97.14a5.1 5.1 0 0 0 2.05-1.43Zm-4.59 7.95a.16.16 0 0 1 .1-.1.35.35 0 0 0 .08-.05l.14-.3.05-.01.04.01v.01a.39.39 0 0 1 0 .31.34.34 0 0 1-.22.22h-.1l-.02-.01a.1.1 0 0 1-.07-.07Zm-.08.18c.05.01.1.03.14.06a.25.25 0 0 0 .32-.02l.06-.1c.05-.09.1-.17.13-.27.05-.3 0-.49-.16-.58l-.31-.08c-.1 0-.16.06-.23.15l-.07.09a.65.65 0 0 0 .02.7c.03.03.06.04.1.05Zm-3.04-2.9.04-.53a.25.25 0 0 1-.04-.07v-.06l-.04.01-.01.02-.01.02.01.05.01.03c0 .02-.18.25-.18.25l.22.27Zm11.13 1.88v-.03l-.04-.02a1.18 1.18 0 0 0-.82 1.11v.03l.6-.02h.01a.23.23 0 0 1 .05-.05l.05-.05c.03-.1.07-.2.12-.29.05-.1.09-.2.1-.3v-.01a.1.1 0 0 0-.08-.05l-.44.34.18-.21a.63.63 0 0 0 .27-.45Zm-3.36-4.44a.29.29 0 0 1 .06-.05v-.01l.03.03-.11.11-.01-.01-.02-.02.05-.05Zm-.37.86a4.9 4.9 0 0 0 2.16-1.7l-.3-.4-1.35 1.13v-.03l1.1-1.18-.04-.02-2 1.34-.03.1a.9.9 0 0 0 .01.48.53.53 0 0 0 .45.28Zm2.4 1.32a1.67 1.67 0 0 0 1.4-.92l.03-.08c.3-.51.5-1.1.56-1.7l-.42-.04h-.04c-.29.36-.52.75-.7 1.16-.18.44-.43.84-.74 1.2l.65-1.34-.03-.02-1.16 1.14v.01c0 .08.01.17.03.25 0 .16.15.28.41.34Zm-7.06 3.87.16-.45-.23-.38-.01-.03h-.04c-.05.28-.01.56.1.82l.02.04Zm9.24-2.04.12-.1.02-.03c.06-.1.1-.21.11-.33a.2.2 0 0 0-.03-.1h-.11c-.2.07-.38.2-.52.36a1.07 1.07 0 0 0-.22.86v.01h.01c.4.17.72-.21.87-.4v-.01c-.03-.14-.1-.21-.16-.21l-.41.3c-.04 0-.05-.01-.05-.02.1-.13.22-.25.37-.33ZM25.4 34.03h.03l-.01-.03a2.11 2.11 0 0 0-1.55-.66c-.33-.03-.66-.1-.98-.21a.03.03 0 0 1 .03-.02l2.1.3v-.11c0-.07 0-.14-.05-.17l-3.13-.77c-.1 0-.15.08-.2.16l-.04.06c-.09.2-.01.42.21.66 1.1.62 2.35.89 3.6.79Zm-2.07 14.34c-.02 0-.03.02-.03.03l-.09.21.03.02.12-.21v-.03h-.01l-.02-.02Zm-1.07-13.13c1.09.44 2.28.49 3.4.15l.03-.01-.52-.48-2.01-.1v-.02h1.97v-.01l.07-.08v-.03c.02-.03.02-.06.02-.1 0-.03 0-.06-.02-.08a.1.1 0 0 0-.08-.04l-2.69-.3a.08.08 0 0 0-.06.03.08.08 0 0 1-.05.03h-.01a.88.88 0 0 0-.35.73.48.48 0 0 0 .3.31Zm-.76 12.5-.12-.1v-.01l-.04.02.18.4.03-.01c.01-.1 0-.2-.05-.3Zm1.77.1c0 .04-.02.06-.05.1l-.06.06a.15.15 0 0 0-.04.13c0 .02.02.04.07.04a.38.38 0 0 0 .36-.15.4.4 0 0 0-.03-.5h-.03l-.02-.05-.2.37Zm-.5-9.5c.15.16.35.29.57.36h.01a7.42 7.42 0 0 0 3.17-.78h.01v-.02a.1.1 0 0 0-.04-.05h-.01l-.57-.32-1.35.27 1.28-.42a.15.15 0 0 0 .02-.07l-.01-.06a.11.11 0 0 0-.08-.06h-.16c-.43.12-.86.19-1.3.2-.45 0-.9.06-1.33.2v.01a.82.82 0 0 0-.21.73Zm-.34-1.52c.97.3 2.01.32 2.98.03l.37-.07a.46.46 0 0 0 .24-.29v-.01l-.37-.3-1.74.13 1.65-.26v-.06c0-.05 0-.1-.03-.14a.13.13 0 0 0-.09-.05h-.1c-.5.11-1.01.16-1.53.15-.48 0-.97.04-1.44.15h-.01c-.19.26-.02.58.07.71Zm1.55 2.94c0-.04.06-.05.09-.06h.01l.03.03-.14.07v-.04Zm-.3.35a4.8 4.8 0 0 0 3.03-.72l.28-.14v-.12l-.52-.4v.01l-.88.34c-.47.17-.94.36-1.39.58l2.01-1.02v-.03c-.78.2-1.58.34-2.38.38a1.05 1.05 0 0 0-.46.8v.01c.06.14.17.25.3.3Zm5.1 5.13.03.02c.05.04.1.07.17.09a1.12 1.12 0 0 0 .85-.23c.08-.05.15-.1.23-.13.52-.52.91-1.13 1.17-1.8l.01-.03h-.12c-.46.03-.74.37-1.03.74-.19.26-.41.48-.67.67 0-.02.4-.6.4-.6l-.02-.03-1.02.68v.01a.78.78 0 0 0 0 .6v.01Zm4.52-1.92-.89 1.85-.02-.01.8-2.03-.05-.01a.24.24 0 0 0-.16.1l-.1.23c-.37.92-.87 1.8-1.49 2.57-.1.07-.03.24 0 .31a.66.66 0 0 0 .72.02l.38-.3.26-.22a3.3 3.3 0 0 0 .58-2.5h-.03Zm-.6 3.02c0 .04.01.09.04.12l.02.03.01.01a.67.67 0 0 0 .61 0h.01v-.85l-.06-.06-.63.75Zm.37 3.19c.03-.08.08-.15.13-.21.1-.1.15-.25.17-.4 0-.03 0-.07-.02-.1l-.02-.03h-.01a.74.74 0 0 0-.23.17c-.05.05-.1.1-.17.14-.23.29-.32.65-.28 1v.02l.3.04.5-.46-.1-.43-.27.26Zm-9.71-25.01a1.13 1.13 0 0 0 .16 1.03 11.94 11.94 0 0 0 4.23 3.04l.04.02-.01-.04a4.44 4.44 0 0 0-1.73-1.98 7.52 7.52 0 0 1-1.05-.91c.39.27.76.55 1.11.86.26.16.5.34.7.56.22.24.48.44.77.6h.03v-.66a28.36 28.36 0 0 0-3.65-2.8h-.01a.7.7 0 0 0-.6.28Zm-4.7-2.29a12.52 12.52 0 0 0 4.32 3.18l.03.01-.06-.67a15.87 15.87 0 0 0-2.2-1.82l-.57-.43c.57.32 1.12.68 1.64 1.08.39.28.79.58 1.22.84l.01.01.42-.49h-.02l-1.06-.7a10.42 10.42 0 0 0-3.85-1.85.17.17 0 0 0-.15.1.08.08 0 0 0-.03.07 3 3 0 0 0 .3.67Zm9.77 6.03h.05c1.26 1.57 3.25 3.04 2.53 5.4-.2.3-.42.59-.65.87.29.89-.43 1.87-.2 2.7.6.53.75 1.43 1.6 1.61.36.28.57.64 1.02.73 0 .01.03.02.03.06a.77.77 0 0 1-.68-.23c-.26-.63-1.17-.52-1.43-1.19-.11-.5-.64-.7-.86-1.17.4-.9.2-1.87.4-2.72a1.25 1.25 0 0 0 .56-.91c.03-.58 0-1.16-.11-1.73-.28-1.4-1.64-2.18-2.27-3.35v-.07Zm.15 1.25c.09.12.17.25.23.38 0 .04 0 .04-.02.04h-.1c-.04 0-.07-.04-.1-.08-.02-.04-.05-.09-.12-.07-.02.03-.02.05-.02.07a1.42 1.42 0 0 0 .63.88c.15.12.28.24.4.39v.02a.36.36 0 0 1-.32-.1.44.44 0 0 0-.23-.1h-.02v.01l.03.1.02.1c.15.26.37.47.63.6.12.07.24.15.34.23v.07c-.11.06-.23-.02-.33-.09a1.02 1.02 0 0 0-.11-.06h-.01a.11.11 0 0 0-.08.05l-.01.01-.01.01a.6.6 0 0 0-.02.14.67.67 0 0 0 .28.48c.07.06.13.13.18.21 0 .02 0 .02-.02.03h-.26a.21.21 0 0 0-.08.1.67.67 0 0 0-.04.24c0 .23.1.44.26.6a.1.1 0 0 1-.07.1l-.16-.05c-.06.01-.1.06-.13.11l-.04.07a.61.61 0 0 0-.06.27c.02.22.1.42.25.6l.08.13a.07.07 0 0 0-.02.04h-.05l-.14-.06h-.01a.15.15 0 0 1-.05.02h-.01v.01a.3.3 0 0 0-.07.1l-.03.09a.86.86 0 0 0-.07.35c.01.26.08.52.2.75a.37.37 0 0 1-.06.07l-.01.01h-.1a.21.21 0 0 0-.06.09.33.33 0 0 1-.04.06.83.83 0 0 0-.08.34c.03.3.16.57.36.78l.07.1c0 .03-.02.07-.04.1l-.03.04-.01.1c.01.16.08.3.18.4l.06.08a.82.82 0 0 1 .42.62.8.8 0 0 0 .54.37l.1.03.04.13c0 .1.04.18.1.24a.82.82 0 0 0 .66.29c.07.01.13.09.2.17l.1.12a.52.52 0 0 0 .59-.03l.12-.06c.06.02.1.09.13.19a.62.62 0 0 0 .47.3c.1 0 .27-.03.28-.14l.04-1.37a.6.6 0 0 0-.5-.18.67.67 0 0 1-.34-.08c-.3-.37-.7-.65-1.14-.8l-.23-.11a2.34 2.34 0 0 0-.7-.98.18.18 0 0 1-.04-.12c0-.08.03-.15.06-.22.05-.1.08-.2.09-.3a6.04 6.04 0 0 0 .05-1.78c0-.02 0-.04.02-.05a2.72 2.72 0 0 0 1.02-1.88c-.28-1.99-1.5-3.26-2.81-4.61l-.73-.76-.07-.03v.03l-.01.17a3.32 3.32 0 0 0 .58 1.88Zm4.75 17.52-.04-.02v.01a1.08 1.08 0 0 0-.42.89v.01a.32.32 0 0 0 .28.06h.07a.17.17 0 0 0 .14-.13c0-.1 0-.22-.07-.26a.13.13 0 0 0-.1.05c-.01.01-.03.03-.05.03l.2-.23v-.4Zm.08 2.93h-.04a.27.27 0 0 0-.13.1l-.03.03c-.22.25-.34.57-.32.9v.02h.01l.02.03v.01h.01a.67.67 0 0 0 .73-.29v-.01c0-.12-.03-.31-.15-.31l-.22.21-.01-.01.23-.3-.1-.38Zm-11.24-1.8h.04l-.03-.4-.05-.03h-.03l.07.43Zm10 1.35-.21.06-.2.06a.85.85 0 0 0-.25.5v.02c.03.07.08.12.15.15h.26l.5-.45.08-.3-.55.27.26-.28-.03-.03Zm.3 1.08-.18.16-.03-.02.21-.22v.08Zm.12-.25a.15.15 0 0 0-.06-.08c-.02-.02-.04-.03-.05-.06a.13.13 0 0 0-.03-.07l-.02-.03v-.01l-.05-.03h-.02a.18.18 0 0 0-.12.07.81.81 0 0 0-.2.73l.08.06h.12c.17.01.35.02.45-.1l.11-.5-.03.02a.35.35 0 0 0-.12.08c-.05.05-.1.08-.14.07l.09-.14v-.01Zm-.07-1.45a.22.22 0 0 0 .15.15h.11l.56-.44-.01-.01a.18.18 0 0 1 0-.08c0-.04 0-.09-.05-.11h-.01a.26.26 0 0 0-.1.07c-.05.04-.07.06-.1.05l.24-.25.03-.14h-.1l-.03.01-.3.15-.03.03c-.2.15-.38.31-.36.57Zm.25 3.38h.1a.86.86 0 0 0 .63-.43l.01-.03h-.01a.02.02 0 0 0 .01-.02c0-.02-.02-.03-.03-.03a.16.16 0 0 0-.1-.01h-.01l-.44.32h-.04c-.01 0-.03-.02-.04 0h-.01c-.04.05-.1.1-.1.16a.05.05 0 0 0 .03.04Zm-.93-3.36-.05.13a.47.47 0 0 0-.06.4c0 .02.02.03.04.04l.05.01.23-.07a.66.66 0 0 0 .45-.23l.01-.02-.17-.17-.47.16-.03-.02.44-.24c.04-.01.05-.09.05-.12l-.02-.03a.49.49 0 0 0-.47.16Zm1.09 3.04-.01.06.02-.01c.04-.01.1-.03.1-.08l.02-.03h-.03a.16.16 0 0 0-.1.06Zm-.73-.01h.01c.3.01.6-.08.83-.27l.16-.4-.93.39-.02-.01.65-.4-.02-.02a.39.39 0 0 0-.36-.11l-.2.08a.8.8 0 0 0-.18.66c.01.03.03.06.06.08Zm-1.27-1.04h.02c.24-.06.47-.2.63-.4l.02-.02-.2-.1-.28.25c.17-.25.28-.55.3-.85v-.03h-.02a.22.22 0 0 0-.1.06v.01a1.31 1.31 0 0 0-.38 1.07v.01Zm-4.56-16.12 1.76.2.01-.03-2.23-.78a.5.5 0 0 0-.34.4.5.5 0 0 0 .23.47c.9.42 1.91.57 2.9.42l.04-.03.02-.01.03-.15-.01-.08a.1.1 0 0 0-.08-.04l-2.33-.35a.1.1 0 0 1-.02-.02h.02Zm-7.72 8.19a.41.41 0 0 1-.3.25h-.01l-.15-.07a.27.27 0 0 1-.03-.12c0-.02 0-.03.02-.04v-.03h.02c.04 0 .07 0 .11.02.08 0 .13-.07.17-.16h.12a.17.17 0 0 1 .05.14Zm0-.53-.45-.13c-.08 0-.11.07-.14.13a.25.25 0 0 1-.07.1.1.1 0 0 0-.03.04.28.28 0 0 0-.01.1c0 .05 0 .1-.03.14v.04c.06.2.1.38.27.47a.5.5 0 0 0 .51-.14.75.75 0 0 0-.05-.75Zm1.57.21a.24.24 0 0 0-.2-.06.4.4 0 0 0-.14.06l-.04.03c-.1.15-.15.33-.16.5 0 .08.02.16.05.23 0 .02.02.04.04.05h.01l.23.2h.01c.03 0 .05 0 .08-.02l.13-.98ZM23 25.82a13.37 13.37 0 0 1-4.04-2.8h-.03c-.04 0-.04.03-.05.1-.04.85.62 1.41 1.2 1.91l.3.27c.86.8 1.84 1.43 2.9 1.9l.02-.03a3.45 3.45 0 0 1-.24-.37 3.98 3.98 0 0 0-1.6-1.5 6.8 6.8 0 0 1-.95-.67l2.43 1.49.09-.24a.1.1 0 0 1-.01-.04v-.02h-.02Zm-2.72 12.03-.05-.02h-.01c-.39.32-.7.73-.89 1.2l-.03.05v.01c.05.16.09.33.1.5 0 .11.02.22.05.33h.03c.08-.18.14-.37.18-.56.07-.33.21-.65.42-.92l.02.02-1.11 3.68-.18.05a.08.08 0 0 0-.03.07v.02c.15.21.22.47.2.73v.13l.37.45h.03c0-.84.16-1.65.5-2.41a5.3 5.3 0 0 0 .4-3.33Zm8.6-6.5a14.48 14.48 0 0 1-4.6-2.12h-.03l-.02.02a.11.11 0 0 0-.05.06.32.32 0 0 0-.05.18c.01.16.07.31.15.45a8.15 8.15 0 0 0 4.76 1.78v-.03a14.08 14.08 0 0 1-3.46-1.38l.1.04c1.02.5 2.1.89 3.22 1.14h.02a.06.06 0 0 0 .01-.05.06.06 0 0 0-.02-.05v-.03l-.02-.01ZM25.98 28a13.6 13.6 0 0 1-2.03-1.67l-.45-.41h-.02c-.1.03-.1.06-.13.14l-.02.03c-.1.42.17.73.42 1.03l.18.2c1.21 1.13 2.64 2 4.19 2.55l.03.01-.04-.27-.02-.02a.07.07 0 0 1-.03-.05v-.01l-.5-.29-.4-.22c-.24-.2-.51-.4-.78-.58-.27-.2-.52-.37-.74-.56l.32.16.01-.04Zm2.52 2.67-.44-.23c-.56-.34-1.15-.65-1.76-.91a14 14 0 0 1-1.8-.93l.02-.04.65.33.59.25.01-.03-1.9-1.48h-.02c-.11.1-.18.24-.19.39a1.67 1.67 0 0 0 .84 1.03 9.2 9.2 0 0 0 4.14 1.77h.03l-.01-.03a.6.6 0 0 1-.03-.09c-.02-.08-.04-.17-.13-.16v.03a.05.05 0 0 1 .04.03v.02c0 .02-.01.03-.04.05Zm-7.65 18.78-.02.04a.38.38 0 0 1-.28.09.07.07 0 0 1-.06-.04.12.12 0 0 1 0-.12h.01c.16-.02.24-.07.26-.16l.03-.08-.04-.15c0-.02 0-.04.02-.05a.06.06 0 0 1 .05-.01c.02 0 .05.02.06.04a.21.21 0 0 1 .07.16c-.01.1-.05.2-.1.28Zm.2-.48-.51-.12c-.17 0-.28.13-.33.35a.47.47 0 0 0 .2.49.44.44 0 0 0 .52-.19l.03-.05c.07-.15.16-.34.1-.48Zm8.06-16.7v-.01a.07.07 0 0 0 .06-.07v-.01l-.03-.06c-.02-.03-.02-.05-.05-.06a.8.8 0 0 1-.19-.03 18.63 18.63 0 0 1-4.02-1.28h-.02c-.05 0-.13.1-.13.2 0 .27.26.48.5.68l.23.19c1.18.59 2.48.88 3.8.87l.01-.01a.2.2 0 0 0 .04-.1v-.07c-.3-.1-.58-.17-.87-.23l-.4-.09-.6-.16a7.71 7.71 0 0 1-1.35-.45c.98.36 2 .58 3.02.68Zm-8.2 13.42a.1.1 0 0 1 0-.1c.04-.06.1-.04.15-.02l.06.01.1-.06.08-.27h.1a.5.5 0 0 1-.02.36.34.34 0 0 1-.2.14c-.07 0-.21 0-.27-.06Zm.03 1.4-.04-.05a.14.14 0 0 1-.06-.1l.29-.9.15-.09a.64.64 0 0 0 .2-.24l.02-.03a.65.65 0 0 0-.07-.63.58.58 0 0 0-.35-.07h-.04a.3.3 0 0 0-.24.22c-.06.1-.1.2-.1.32 0 .1.04.2.1.27a20.13 20.13 0 0 0 .24.16l.01.03-.23.62-.22.03-.06.14-.17.06-.26-.03v.04l.6.25.6 1.4.34.24.03-.03a6.07 6.07 0 0 1-.74-1.61Zm.72 2.58.17-.09-.01-.04-.2-.03-.46.06a.68.68 0 0 0-.19.2v.02l.01.01a.74.74 0 0 0 .68-.13Zm-1.5-4.85h.02l-.06-.33h-.04l-.01.05-.01.01.01.1c.02.08.03.17.1.17Zm.34 2.6a.88.88 0 0 0-.74-.37l-.01.01a.23.23 0 0 1-.14.02c-.06 0-.14 0-.16.06l-.01.02 1.04.3.02-.03Zm-1.4-1.07.21.1.16-.1h.04c.04.05.06.11.06.17v.04c0 .04-.03.08-.06.1l.02.04h.03c.02-.01.05-.02.05-.04.06-.1.08-.22.06-.34a.4.4 0 0 0-.25-.37l-.11-.01-.04-.03v.01a.75.75 0 0 1-.14.07.5.5 0 0 0-.26.22.4.4 0 0 0 .12.43l.21.1.02-.04a.57.57 0 0 1-.1-.1l-.06-.06a.23.23 0 0 1-.03-.11c0-.03 0-.06.02-.08h.05Zm-.23-3c-.02.01-.02.04-.02.05v.01a6 6 0 0 1 .88 1.5c.13.28.26.57.41.83l.02.03.02-.03v.02c.01.01.02.03.03.02.02 0 .02-.02.02-.05v-.12a2.18 2.18 0 0 1-.23-1.7v-.01h-.01c-.04-.03-.08-.04-.1-.03h.01l-.06.02-.04.1a.22.22 0 0 1-.08.13h-.05a.07.07 0 0 0-.05-.04h-.01l-.13-.21h-.1l-.46-.48v-.01c-.01 0-.03-.03-.05-.02Zm10.53-4.69h-.03v-.01h-.02l-1.9.33a.5.5 0 0 0-.25.46.43.43 0 0 0 .27.36c.78.05 1.54-.2 2.15-.69h.01l-.16-.27h-.02l-.32.15c-.18.1-.38.17-.59.18l.87-.47-.01-.04Zm-7.15-8.75 2.2.7.11-.15v-.01c-.02-.06-.08-.1-.18-.17l-.01-.02-.34-.11c-.74-.24-1.47-.52-2.18-.84l-.13.05a.5.5 0 0 0-.08.32 1.64 1.64 0 0 0 .83.98c.62.34 1.3.58 1.99.72h.02l-.1-.45c-.4-.27-.82-.48-1.26-.63-.3-.1-.6-.24-.88-.38v-.01Zm1.4-1.15c-.67-.19-1.34-.44-1.98-.73l-.09-.04-.03.01a.4.4 0 0 0-.04.3v.08c.21.56.76.78 1.33 1.01l.3.13.2.07c.16.06.32.13.43 0V29.48l.01-.07a.12.12 0 0 0-.03-.1l-1.23-.58 1.34.4a.28.28 0 0 0 .05-.19l-.25-.18Zm5.47 4.91a.27.27 0 0 0 .15-.15v-.02l-.04-.06h-.01c-.32-.08-.65-.16-1.01-.22l-.07-.02c-.1-.03-.24-.07-.27-.13.06 0 1.35.23 1.35.23v-.1a.15.15 0 0 0-.1-.06c-1.31-.22-2.59-.61-3.8-1.17a.15.15 0 0 0-.13.08.36.36 0 0 0 .1.39c.88.89 2.36 1.12 3.82 1.23Zm-8.57 11.6.02-.03c.2-.49.3-1 .32-1.52.01-.62.16-1.24.43-1.8a.03.03 0 0 0 .03 0l-.01.07a6.37 6.37 0 0 0-.37 2.77v.02h.1v-.01c.4-.7.6-1.5.61-2.3v-.27c.02-.27 0-.54-.03-.81l-.03-.04h-.03l-.03.02a2.44 2.44 0 0 0-1.13 1.59c-.19.75-.15 1.54.1 2.28l.02.03Zm1.22-13.57c.73.44 1.53.74 2.36.9l.32.07c.22.07.44.08.66.05l.03-.01-.23-.33-2.3-.78v-.02c.04.02 2.21.52 2.21.52v-.02l.01-.07c.02-.07.04-.15-.01-.2h-.01c-.82-.2-1.6-.47-2.37-.81-.1 0-.2-.03-.3-.06a.94.94 0 0 0-.3-.05c-.05.01-.08.04-.12.1l-.04.04a.8.8 0 0 0 .09.66Zm7.31 2.91v-.17l-1.51-.46 1.41.26a.1.1 0 0 0 .07-.04v-.05h-.01a16.5 16.5 0 0 1-3.45-1.18h-.01a.27.27 0 0 0-.16.1.47.47 0 0 0-.07.37v.01c.47.47 1.07.77 1.72.86l.3.08.46.1c.4.12.82.16 1.24.13h.01Zm-2.7-6.3 1.77 1.1.01-.02c.03-.04.04-.1.03-.14v-.01l-1.8-.95-.01.03Zm-5.97-2.05 1.37.65.02-.03c-.32-.2-.62-.43-.91-.66a8.7 8.7 0 0 0-1.05-.76h-.03l-.17.17a.54.54 0 0 0 0 .24v.07a7.11 7.11 0 0 0 2.9 2.08l.04.02.3.09c.17.07.34.14.47.05l.01-.01-.04-.26-2.91-1.64Zm7.66 11.85c.33-.02.65-.1.94-.24l.04-.02-.04-.01a7.62 7.62 0 0 1-2.03.02h-.01a.6.6 0 0 0-.2.1l-.12.5v.01c.08.12.19.21.32.27.74.09 1.49-.04 2.15-.37h.02l-.01-.03a.39.39 0 0 1-.05-.14c-.02-.06-.04-.12-.09-.15l-1.29.14v-.02c.12-.03.24-.04.37-.06Zm2.44 1.96c-.55.32-1.13.59-1.72.8h-.01a.59.59 0 0 0-.22.44.33.33 0 0 0 .23.2 3.06 3.06 0 0 0 1.77-.82l.37-.27c.03 0 .1-.06.1-.1 0-.02-.02-.05-.07-.05-.07 0-.13 0-.19-.03l-.67.33v-.02c0-.02.5-.4.5-.4a.11.11 0 0 1-.01-.06v-.02h-.08Zm-9.4 6.75.02.01c.04-.03.06-.07.1-.12.08-.13.17-.26.35-.28h.01l.17-.71-.03-.01c-.07.15-.17.29-.29.4a.98.98 0 0 0-.34.71Zm8.75-7.28a.1.1 0 0 0 .04-.07l-.01-.04h-.04l-2.02.64v.01a.48.48 0 0 0-.03.25v.11a.52.52 0 0 0 .44.36c.78-.14 1.48-.5 2.04-1.06l.02-.02-.29-.16-.69.33v-.01l.54-.34Zm.17 2.2-.02-.03.15-.11.02.03-.15.11Zm1.46-1.16h-.08c-.5.33-1.04.6-1.6.82a.97.97 0 0 0-.53.6c0 .05.02.11.07.13l.06.03.08.04a1.48 1.48 0 0 0 1.25-.44l.14-.1.22-.21c.24-.2.44-.45.56-.74v-.04l-1.12.7.95-.72v-.07Zm-13.11-.24h.03c.01-.34-.01-.68-.07-1.01-.12-.5-.1-1.02.03-1.52 0-.01.03-.02.07-.02a.1.1 0 0 1 .05.03.07.07 0 0 1 .03.05c-.1.13-.15.3-.15.46.08.5.11 1.02.15 1.5.03.66.1 1.3.2 1.94.02.06.06.13.12.12h.01v-.02c.42-1.45.27-3.01-.39-4.37l-.03-.03v.02c-.39.43-.63.96-.7 1.53a1.4 1.4 0 0 0 .42 1c.08.1.16.2.23.32Zm8.62-4.37v-.01l.03-.01h1.84v-.01c.02-.01.02-.03.02-.04v-.03a.09.09 0 0 0-.08-.04c-.97-.03-1.94-.16-2.88-.38l-.06.01-.01.06a.4.4 0 0 0 .01.48c.8.5 1.76.68 2.7.52h.08l.29-.42h-.25c-.56 0-1.13-.05-1.7-.13Zm5.31 4.74v-.02l-.01-.01-.03-.03v.01c-.34.36-.7.68-1.1.97a6.3 6.3 0 0 0-.93.82l-.01.32a.2.2 0 0 0 .05.08l.07.09h.01c.3.08.63.05.91-.1.57-.5 1-1.13 1.26-1.84v-.02l-.02-.03a.08.08 0 0 0-.07-.06h-.01l-1.12 1.15v-.02c.12-.18.26-.35.42-.5.24-.23.44-.51.58-.81Zm-5.04-3.65 1.38-.1v-.01a.07.07 0 0 0-.06-.1h-.03c-.7 0-1.4-.1-2.08-.27a.58.58 0 0 0-.27.13.5.5 0 0 0-.07.53c.18.23.43.38.72.42.67.08 1.35.01 1.99-.2h.02l-.01-.02a.82.82 0 0 1-.08-.13.39.39 0 0 0-.13-.19l-1.4-.04-.01-.02h.03Zm-.2 2.74v-.02a.08.08 0 0 0-.1-.05l-2.56.75c-.17.23-.25.51-.22.8a.36.36 0 0 0 .26.2h.02a5.57 5.57 0 0 0 3.02-1.12v-.13a.37.37 0 0 0-.3-.23l-1.89.73.01-.02 1.76-.91Zm6.24 1.49h-.07l-.53.74h-.02c0-.02.62-1.06.62-1.06h-.06a.2.2 0 0 0-.07.02l-.1.03c-.16.25-.34.49-.54.7a3 3 0 0 0-.72 1.1v.02c.04.06.1.1.15.14a.99.99 0 0 0 .8-.26l.17-.12a1.38 1.38 0 0 0 .37-1.3v-.01ZM53 51.89l-2.54 2.04c0 .03 0 .06.02.07.04.02.07.02.1.02h.1v.01h.01a6.4 6.4 0 0 0 1.51-1.3c.22-.24.42-.45.63-.64l.18-.11.02-.08H53Zm-.86 3.33h.01l.85-1.77-.03-.02-.88 1.77a.16.16 0 0 0-.07.05l-1.9 3.88.04.01 1.95-3.91.03-.01Zm.72-2.8v-.05h-.04c-.02 0-.03.02-.03.04v.01l-.2.19c-.07.08-.15.16-.25.22-.52.55-1.09 1.12-1.64 1.66-.97.93-1.9 1.91-2.77 2.94l.03.02c.26-.24.52-.5.78-.77.25-.26.51-.53.79-.79l1.12-1.14c.76-.76 1.55-1.54 2.21-2.32Zm-4.23 5.24v-.01l-.21-.08v-.06l.06-.08h.38l.34-.5-.05-.01c-.08-.02-.18-.04-.21-.1l.02-.02.3.05.46-.54h-.02a.03.03 0 0 0 .01-.03c0-.02-.03-.02-.04-.03a.09.09 0 0 1-.03-.05c0-.01 0-.02.03-.02h.02c.06.01.12 0 .17-.03a.1.1 0 0 0 .03-.07v-.01a.25.25 0 0 0-.21-.06h-.06l-1.63 1.64-.02.02c-.03.05-.1.13-.03.18l.58.07v-.01a.53.53 0 0 1 .06-.08.22.22 0 0 0 .06-.13v-.04Zm3.8-4.5-.15.18a49.53 49.53 0 0 0-3.69 4.8l.03.02 3.85-4.98-.03-.03Zm-2.28 5.49v-.01l.04-.05a.22.22 0 0 0 .05-.1v-.02a.07.07 0 0 0-.07-.04h-.21l-.15.03-.32.7.48-.1.13-.33h-.24l.3-.08ZM17.88 42.19l.07.01.04-.02c.04 0 .08-.03.08-.07v-.14a4.03 4.03 0 0 0-.75-2.03 10.9 10.9 0 0 1-.2-.36c.64.7 1.07 1.56 1.24 2.5v.01a.15.15 0 0 0 .12.03.1.1 0 0 0 .06-.05c.01-.1 0-.18-.01-.26a1.1 1.1 0 0 1-.03-.2v-.01c-.16-1-.7-1.88-1.5-2.48h-.07l-.03.07a3.88 3.88 0 0 0 .97 3Zm31.85 14.95-.07-.01a.2.2 0 0 0-.12.15l.07.23c-.01.03-.03.04-.04.04l-.11-.11-.04.02c-.02.02-.03.03-.03.05l.12.35h-.03l-.2-.2a.1.1 0 0 0-.08.13l.15.31c0 .02 0 .03-.02.03a.22.22 0 0 1-.09-.08c-.03-.05-.07-.1-.13-.07l-.02.01.02.02.08.13c.04.1.1.2.22.2h.01l.53-.79-.22-.41Zm.56-1.7h.11l.6-.74-.06-.02-1.19 1.21.21.1.33-.42v-.01l-.02-.04-.02-.07.04-.01Zm.01 1.24-.13-.2v.04l-.03-.02c-.02 0-.03.02-.03.03a.38.38 0 0 0 .17.34l.02.01.3-.5-.1-.22-.03-.01-.04-.04-.18.3v.01l.05.09.05.1a.1.1 0 0 1-.02.06l-.03.01Zm.24 1.24v-.02l.03-.06.01-.02a.1.1 0 0 0-.06-.08h-.36l-.02.02-.08.19a.11.11 0 0 0-.04.03l-.01.03v.02h.01l-.13.32.43-.04.12-.2v-.02c-.03-.04-.05-.05-.06-.05a.24.24 0 0 0-.17 0 .19.19 0 0 1-.14-.02l.02-.04.45-.06Zm.2-1.93a.1.1 0 0 0-.03-.07v-.02h-.01l-.07-.05v.02l-.05.04a.18.18 0 0 0-.07.12l.19.25.05-.29Zm.09-.11a.1.1 0 0 0 .07-.04.23.23 0 0 0 .01-.23v-.01l-.02-.04h-.02a.16.16 0 0 0-.06.08l-.03.04v.04c0 .06 0 .12.04.15Zm.22-.3h.01l.3-.57v-.02h-.03l-.36.47.02.02a.1.1 0 0 1 .02.04c0 .03.02.05.04.05Zm.87-.67 1.1-2.04-.03-.03-.05.01h-.01l-1.48 2a.18.18 0 0 0 .14.14.33.33 0 0 0 .3-.06l.03-.02Zm-2.16 2.07.25.46.01-.02.02-.01h.02v-.03l-.23-.4h-.07Zm.2-.28-.05.13.02.07c.03.1.1.2.2.27v.01l.1-.13.04-.06h-.02l-.04-.01-.03-.01-.15-.27h-.07Zm2.89-1.1v.11a32.22 32.22 0 0 0 .12.2l-.1-.07h-.04c-.03.01-.05.02-.05.05 0 .06.02.12.07.16l.05.08v.04c-.02 0-.04 0-.06-.04-.02-.02-.05-.06-.1-.04l-.08.29.05.07c.04.1.1.17.19.22h.02l.25-.89-.26-.22-.06.03Zm1.95-5.5c-.04 0-.08.06-.1.07l.03.03.05-.02a.06.06 0 0 0 .05-.06v-.01a.04.04 0 0 0-.03-.01Zm0-.19.03-.02 1.63-3.45v-.02l-.04-.06-1.75 3.61h.04a.14.14 0 0 0 .1-.06Zm.92-5.9.06.03.11 1.2h-.01c-.07.03-.13-.02-.19-.08a.36.36 0 0 0-.16-.1h-.02l.21-1.05Zm-.2 1.22.47.22-.14-1.83-.03-.03-1.02 1.55.5-.05v.02c.03.05.04.1.04.15-.27.85-.5 1.76-.71 2.63-.2.8-.4 1.63-.64 2.4a.37.37 0 0 0-.11.09.2.2 0 0 1-.06.05.14.14 0 0 1-.06 0 .13.13 0 0 1-.06-.03.23.23 0 0 0-.03-.03v-.27a.03.03 0 0 0-.02-.03h-.03l-.02.02-.01.09a1 1 0 0 0 .2.52l.07.11-.02.15h.02c.05.01.12 0 .14-.04l1.46-5.68a.13.13 0 0 1 .07-.01ZM58.64 47l.01-.01-.01-.06-.03-.02-3.55 2.96a.21.21 0 0 1-.05.03c-.05.02-.11.05-.1.12l.02.03.85-.68c.94-.75 1.92-1.52 2.86-2.37Zm-5.04 4.06c-2.04 1.58-4.1 3.27-6.1 5l.02.04 5.48-4.43a.1.1 0 0 0 .07-.01l.14-.23.13-.02.31-.33-.04-.03v.01Zm9.38-6.45c-.07 0-.09-.07-.1-.13a.52.52 0 0 0-.04-.09v-.01c.24-.33.52-.6.86-.82l.02.02-.74 1.03Zm.84-1.24-1.56.55.36.31-1.4 1.16-.03.06a.23.23 0 0 0-.05.1c0 .03 0 .04.02.05l.01.02 1.54-1.12c.03 0 .05.02.06.04.03.04.05.08.06.13a.29.29 0 0 0 .11.2h.02l.94-1.5h-.08Zm-8.29 6.51.02-.03v-.02h-.03s-.14.06-.14.1v.02h.02a.33.33 0 0 0 .12-.06h.01Zm4.42-2.18-.07-.01-.04-.35c.15-.22.35-.4.59-.52l.25-.17h.01l.03.03-.77 1.02Zm1-1.3c-.2.1-.42.17-.63.25-.33.1-.65.23-.94.42l-.02.01.18.21v.05l-4.08 2.76v.02c.03.06.08.06.12.06l4.1-2.72.03.03.04.01.17.45 1.07-1.47v-.06l-.04-.02ZM51.5 59.54l.02.01c0 .02.02.02.04.02h.02v-.01l.46-1.58c.49-1.54.89-3.1 1.2-4.68l.01-.02h-.07l-1.68 6.26Zm-.8-.91h-.04l-.13.22a.58.58 0 0 0-.13.5h.02v.01c.01.02.02.04.04.03.02 0 .03-.03.03-.04l.2-.7v-.02Zm1.67-2.88.1-.34h-.02a.08.08 0 0 0-.08-.02h-.02l-.12.07-.42.96.37-.07a.05.05 0 0 0 .02-.04.04.04 0 0 0-.02-.04c-.07 0-.13 0-.18-.04v-.04l.06-.14c.01-.04.05-.04.1-.05.06 0 .12 0 .15-.06v-.02l-.1-.05v-.01s0-.02-.02-.02a.74.74 0 0 1 .07-.03.22.22 0 0 0 .1-.06Zm-1.09 3.3a.17.17 0 0 1-.1.03h-.06l-.05.02-.02-.03a.11.11 0 0 1 .06-.03l.06-.02h.15l-.04.03Zm.04-.49h.12l.01.04a.66.66 0 0 1-.33.05v-.04l.2-.05Zm.22.3a.13.13 0 0 0-.07-.04h-.03a.49.49 0 0 1-.21.03.07.07 0 0 1-.03-.03l.02-.02a.1.1 0 0 0 .02-.04l.36-.12v-.01a.4.4 0 0 1 .04-.13.3.3 0 0 0 .03-.1c0-.02 0-.04-.02-.06l-.4.01a56.64 56.64 0 0 1 .45-.14v-.04c0-.05 0-.06-.03-.08a.4.4 0 0 0-.19 0 .22.22 0 0 1-.16 0v-.02l.02-.03.47-.1v-.01a.1.1 0 0 0-.03-.07v-.01l-.4.03-.01-.02.02-.01.46-.1v-.02a.19.19 0 0 0 .04-.1v-.01a.06.06 0 0 0-.05-.04l-.32-.08.02-.02h.01v-.02c0-.04-.04-.05-.06-.07h-.01l.02-.01.5-.1v-.03l.01-.01v-.04l.03-.13a.5.5 0 0 0 .04-.14.1.1 0 0 0-.07-.1h-.29l.09-.13.35-.1v-.05l.01-.06c-.01-.04-.02-.07-.08-.07l-.41.11h-.01c-.47.95-.8 1.96-.97 3l-.02.1.7-.18.17-.58-.01-.01Zm1.16-4.21-.06-.03-.27.64.04-.01c.1-.03.15-.07.15-.12l.14-.48Zm-1.46 1.8v-.05a.07.07 0 0 0-.06-.02h-.32a2 2 0 0 0-.34.59c-.07.17-.16.33-.25.48l-.02.03c-.02.05-.05.12-.03.16a.07.07 0 0 0 .06.04h.08c.13.01.28.02.34-.1v-.01l.02-.04a.07.07 0 0 0 0-.08l-.34.03v-.04l.45-.14.33-.71-.02-.01a.15.15 0 0 0-.1 0l-.03.01h-.03l-.02-.03.27-.1v-.02Zm1.09 1.58-.07-.05-.04-.02h-.01a.14.14 0 0 0-.04.1v.02l.13.2-.02.01-.03-.02c-.03-.02-.07-.05-.12-.01l-.02.16c.06.1.09.2.1.3a.3.3 0 0 1 0 .04c0 .07-.04.15-.07.16a.11.11 0 0 1-.07-.03c-.02-.03-.06-.06-.1-.04l-.02.01-.14.58.24.3a.06.06 0 0 0 .07.03.05.05 0 0 0 .04-.04l.38-1.48a.59.59 0 0 0-.21-.22Zm.42-1.22-.01.01a.17.17 0 0 1-.08-.06.14.14 0 0 0-.06-.05h-.02a.06.06 0 0 0-.06.07l.15.28-.02.05-.02.05.02.04c.02.03.03.06.09.06l.01-.01.03-.02.02-.02v-.02l.01-.43h-.03a.05.05 0 0 0-.03.03v.02Zm-.33.34-.01.03c0 .03-.01.05-.03.07v.02c.03.07.08.14.15.2a.7.7 0 0 1 .1.1v.03h-.1c-.01.03-.04.09-.06.09-.02 0-.04-.02-.06-.05-.02-.03-.06-.07-.12-.04l-.04.17.05.08c.07.11.14.23.24.23h.02l.19-.73-.27-.21-.06.01Zm-3.5.9h-.01a.24.24 0 0 0-.04.14l-.02.08a.64.64 0 0 0 .24.48h.02a.32.32 0 0 0 .15-.28l-.29-.42h-.06ZM28.3 46.6l.01-.02h-.18l-.64.2c-.46.1-.9.29-1.3.55l-.17.56 1.6-.86.02.02c-.3.24-.63.45-.98.62-.63.24-1.15.7-1.48 1.3l-.02.04.04-.02c.62-.22 1.22-.49 1.8-.8.6-.37 1.06-.92 1.3-1.59Zm2.34 4.4-.02.01-.2.16a.92.92 0 0 0-.34.34v.02a.09.09 0 0 0 .1.02l.02-.01.47-.5-.03-.05Zm-4.57 1.74-.55-.58h-.06a.3.3 0 0 0-.15.2l-.02.09.46.52.26.04a.3.3 0 0 0 .06-.26Zm-1.5-2.63c-.04.17-.1.36-.26.41a.24.24 0 0 1-.14.05h-.05a.07.07 0 0 1-.04-.05c0-.05.05-.1.1-.13v-.01h.01a.38.38 0 0 0 .12-.07h.01l.02-.04a.4.4 0 0 0 .04-.16l.1-.13.03.04h.01v.02c.03.02.04.04.05.07Zm-.27-.38a.18.18 0 0 0-.1.05l-.07.04c-.21.12-.21.43-.21.64l.02.07a.29.29 0 0 0 .25.12c.05 0 .1 0 .14.03h.01a.45.45 0 0 0 .28-.26.5.5 0 0 0-.04-.54.3.3 0 0 0-.28-.15Zm6.25.84.01-.02-.05-.03-.33.02a.23.23 0 0 0-.13.08.39.39 0 0 1-.07.06.69.69 0 0 1-.11.1c-.1.08-.2.16-.15.24l.01.01h.12c.28-.06.54-.22.7-.46Zm-.58-.05v-.02h-.02a.17.17 0 0 0-.1.05l-.03.02a.39.39 0 0 0-.17.22.1.1 0 0 0 .02.08l.02.02.07-.08a.9.9 0 0 0 .21-.29Zm-.96 7.77-.02-.02a.8.8 0 0 1-.2-.45v-.05a.7.7 0 0 1 .36.57l-.14-.05Zm-.2-.56h-.04v.01a.74.74 0 0 0 .19.55l.02.03.21.07v-.03a.74.74 0 0 0-.38-.63Zm.43-.79c-.58-1.99-1.41-3.21-2.61-3.86l-.05.01-.07.32a7.23 7.23 0 0 1 2.15 3.95v.01h.01c.26.13.48.32.63.57l.08.1.04-.01c-.01-.21-.04-.42-.1-.63l-.08-.46Zm-6.5-6.43a.2.2 0 0 1 .13.01c.05.02.1.03.12-.01l.01-.02-.27-.14-.05-.02v.02a.17.17 0 0 0 .01.14.05.05 0 0 0 .04.02Zm-5-2.23c.13-.03.27-.04.4-.05h.05c.58-.15 1.2-.2 1.8-.15v-.04c-.35-.09-.72-.13-1.09-.1-.4.03-.8-.03-1.19-.16v-.03l.03-.02c.4.1.8.13 1.22.1a2.28 2.28 0 0 1 1.8.46c.05.05.12.08.19.08a.11.11 0 0 0 .08-.02l.02-.02-.04-.03a.16.16 0 0 0-.04-.01c-.5-.85-1.78-.95-2.72-1.02h-.05a2.4 2.4 0 0 0-1.32.47l-.02.01.02.02c.22.26.52.44.85.51Zm.9-2.1.21-.27a.51.51 0 0 0-.22-.11l-.13-.05-.34-.05a3.98 3.98 0 0 1-1.56-.44v-.05l.02-.01c.38.16.77.25 1.17.28.4.03.8.12 1.18.28a.25.25 0 0 0 .25.01.25.25 0 0 1 .25.02.99.99 0 0 1 .41.7l.01.03.4.09v-.02a.23.23 0 0 0-.06-.22.41.41 0 0 1-.05-.1c-.96-1.4-2.56-1.5-4-1.42h-.04v.03c.06.36.25.68.54.91.58.36 1.28.5 1.96.4Zm-1.5-1.93.13.18a.84.84 0 0 0 .73.3 1.97 1.97 0 0 1 1.43.67l.45.36.02-.03a2.42 2.42 0 0 0-1.55-1.3 6.4 6.4 0 0 1-.71-.33.85.85 0 0 0-.2-.18.59.59 0 0 1-.15-.13c0-.02.03-.02.04-.02l2.14 1.08v-.04a.1.1 0 0 0-.03-.04.08.08 0 0 1-.02-.06c-.35-.74-1.18-.95-1.98-1.15-.21-.05-.44-.1-.64-.17h-.02l-.02.04c.06.3.19.59.39.82Zm2.84 5.14v-.02c0-.04.01-.09.03-.13.02-.07.04-.15 0-.2l-.01-.01-.3-.06a2.96 2.96 0 0 0-2.18.08l-.03-.03a2.43 2.43 0 0 1 1.76-.3c.4.05.82.04 1.21-.04.23 0 .63.04.78.3l.01.01c.1.06.22.07.33.05a.06.06 0 0 0 .04-.07v-.01a4.16 4.16 0 0 0-2.47-.72c-.25.05-.54.1-.85.13-.51.16-.98.45-1.34.85h-.01v.01c0 .03.03.06.05.07.9.36 1.9.4 2.84.11l.14-.02Zm2.65.76c0-.05 0-.1-.03-.14l-.01-.02a.25.25 0 0 0-.18-.02h-.07l-.02.04.3.16.01-.02Zm1.14.44a.13.13 0 0 0-.12 0c-.03.02-.05.02-.08 0l.07-.96-.04-.01-.2.72-.01.02a.05.05 0 0 1-.04.02.13.13 0 0 0-.06-.04c-.2-.33-.3-.72-.29-1.11 0-.27.03-.54.09-.8v-.02h-.02a.1.1 0 0 0-.08 0h-.01v.01c-.06.27-.09.54-.08.8-.03.1-.07.22-.15.23a.2.2 0 0 1-.07-.12c.08-.6.2-1.21.37-1.8.23-.75.37-1.53.4-2.32 0-.37-.05-.75-.15-1.1v-.01l-.05-.02c-.27.16-.5.38-.64.65l-.16.23-.13.22c-.23.33-.39.7-.46 1.1a.4.4 0 0 0 .19.34 1 1 0 0 1 .27.73c0 .07 0 .13-.02.2l.06.3c0 .09.03.19.05.28h.04c.05-.38.09-.76.1-1.13-.05-.79.13-1.57.51-2.25a4.9 4.9 0 0 0-.4 2.24c.04.7-.08 1.41-.34 2.06-.17-.2-.27-.46-.29-.72a2.09 2.09 0 0 0-.14-.51v-.01h-.01a.16.16 0 0 0-.16.03v.01l.1.91a.08.08 0 0 0-.06.06l.16.26v.05l-.08.17.1.03c.14.03.28.06.33.18v.07l-.01.02-.03.03-.02.02a.08.08 0 0 1-.05.03c-.35.06-.68.2-.95.43l-.2-.12c-.05 0-.1 0-.14-.02a.68.68 0 0 0-.57.31.42.42 0 0 0 .2.49.64.64 0 0 0 .58-.04c.13-.07.16-.2.2-.34a.84.84 0 0 1 .05-.19c.37-.23.8-.36 1.24-.38l.34.44.2.09c.13.05.26.1.29.24l-.02.04v.01l-.7.04a.3.3 0 0 0-.07.1.28.28 0 0 1-.08.13c-.47.2-.98.3-1.5.34-.74.01-1.46.24-2.08.65v-.02c.69-.47 1.48-.77 2.31-.87h.02l.02-.2.03-.03.14.1a.5.5 0 0 0 .3.16.71.71 0 0 0 .7-.29h.01c.03-.2.02-.47-.13-.56a.88.88 0 0 0-.31-.02h-.16c-.18.05-.4.11-.49.32a.96.96 0 0 1-.25.39.76.76 0 0 1-.83-.04h-.01c-.5.1-.97.35-1.32.73l-.17.17c-.15.14-.3.3-.3.44v.02h.01c1.4.17 2.81-.11 4.04-.81.38-.17.74-.33 1.1-.46v.03l-.08.16.02.02.56-.25-.01-.04a.47.47 0 0 1-.38-.26Zm-.85.74-.14.06a5.07 5.07 0 0 0-2.13 2.24.83.83 0 0 1-.21.49.68.68 0 0 0-.19.53v.01a.1.1 0 0 0 .07.04h.01a5.17 5.17 0 0 0 1.91-2.07c.28-.49.61-.94 1-1.36l-.02-.03c-.1.01-.2.04-.3.1Zm28.44 4.63c.07 0 .13-.01.19-.05v-.01l.01-.02a.06.06 0 0 0 .02-.06.05.05 0 0 0-.04-.02h-.33l-.26.5.44-.04v-.01c0-.03.02-.06.04-.08a.12.12 0 0 0 .02-.1c0-.02-.02-.03-.05-.05a.2.2 0 0 0-.09 0c-.04 0-.08 0-.1-.02.03-.05.09-.05.15-.04ZM20.5 53.64c.2-.5.5-.97.87-1.36l-.01-.03-.83.22a1.8 1.8 0 0 0-.3 1.55l.01.07h.04c.08-.14.15-.3.22-.45Zm26.36-1.2v-.13c-.1-.33-.42-.42-.7-.5l-.23-.07h-.04v.03l.01.06v.01c.07.05.13.1.2.13.12.07.23.16.3.27a.13.13 0 0 1-.04-.04.59.59 0 0 1-.1-.05c-.11-.06-.24-.13-.3-.03v.01c-.01.1.01.18.07.26h.01c.02 0 .03 0 .04.03l.03.06.02.05c.25.05.5.02.72-.08Zm-3.68 1.94a4.03 4.03 0 0 1-.52-.37 4.08 4.08 0 0 0-.55-.4l-.03-.02-.3.37.04.08v.01h.01c.24.22.44.43.67.66l.5.5a28.63 28.63 0 0 1 3.02 3.66l-.02.02a52.6 52.6 0 0 0-4.38-4.72l-.12-.02a.22.22 0 0 0-.17.02h-.01v.02l.26.46.32.56a14.42 14.42 0 0 0 3.18 3.43l.12.08c.27.23.63.35.99.33h.01v-.02c-.08-2.1-1.6-3.5-3.02-4.65Zm-2.07-.03v-.02h-.03a.43.43 0 0 0-.2.17v.02c.9 1.46 1.87 2.88 2.93 4.24a148.34 148.34 0 0 1 .98 1.35l-.02.01a39.81 39.81 0 0 1-3.42-4.47l-.77-1.11-.09.01h-.01v.02a21.59 21.59 0 0 0 3.49 5.6c.35.24.76.35 1.18.34h.01l.04-1.44v-.01a13.96 13.96 0 0 1-4.09-4.71Zm.62 3.13a27.84 27.84 0 0 1-1.48-2.56l-.16-.3h-.05v.03a29.46 29.46 0 0 0 3.5 6.6l-.01.04a26.8 26.8 0 0 1-2.71-4.52c-.25-.48-.51-.99-.78-1.48l-.03.01c.65 2.1 1.54 4.1 2.63 6 .32.25.71.39 1.11.37.12-.04.15-.13.2-.26a3.81 3.81 0 0 0-1.23-2.5c-.4-.43-.73-.9-1-1.43Zm10.14-2.24c0-.02-.02-.03-.04-.03a.18.18 0 0 0-.07-.01l-.3.06-.24.47.48-.05v-.01l.04-.1c.03-.05.06-.11.02-.16h-.09a.12.12 0 0 1-.1-.02l.26-.1v-.02c.02 0 .04-.01.04-.03Zm-4.55.62-.2-.09-.04-.03a.12.12 0 0 0-.09-.05h-.01l-.05.02c-.04.03-.1.07-.09.12v.01l.48.14a.09.09 0 0 0 .04-.07v-.01a.05.05 0 0 0-.04-.04Zm.68 1.21c.06-.02.1-.07.12-.13a.08.08 0 0 0-.06-.08l-.36-.13v-.01l.63.03a.22.22 0 0 0 .08-.13v-.02c-.02-.02-.04-.04-.09-.04l-.33-.1v-.02c0-.03 0-.06-.02-.08a.12.12 0 0 1-.01-.04v-.02a.7.7 0 0 1 .35.05c.15.04.3.09.43-.01l.26-.32h-.02a.5.5 0 0 0-.18-.04.24.24 0 0 1-.18-.06.14.14 0 0 0-.04-.09c-.02-.01-.02-.03-.02-.04v-.01l.67.07v-.01a.58.58 0 0 1 .09-.1c.06-.04.11-.1.11-.17v-.02l-.45-.09a.1.1 0 0 1 0-.03l.02-.05a.13.13 0 0 0-.03-.05v-.05l.66.12.42-.45-.36-.15c0-.08 0-.13.05-.13l.5.1c.11-.05.17-.12.17-.21v-.01l-.39-.16a.43.43 0 0 1 .36-.06c.1.02.21.02.31-.02.02 0 .02-.04.02-.08v-.01l-.54-.1c-1.08.78-2.02 1.72-2.78 2.8l-.02.02.57.18.06-.05Zm-.51-.65v.05l.38-.43-.02-.03c-.04.01-.36.2-.36.4Zm-8.38-1.93-.03-.06-.02.03a35.15 35.15 0 0 0-1.78 3.35c-.6 1.33-1.3 2.61-2.1 3.83a.24.24 0 0 1-.1-.07l1.38-2.66-.03-.02c-.56.63-1.18 1.2-1.85 1.7l.05.2c.07.39.23.75.46 1.07h.01c.7-.17 1.3-.6 1.69-1.22a13.28 13.28 0 0 0 2.32-6.15Zm-4.42 3.53a10.4 10.4 0 0 0 2.69-3.83v-.02l-.32-.2-.01.01c-.16.1-.3.23-.41.38l-.09.1c-1.02 1.08-2.01 2.25-2.97 3.38l-.57.69c1.1-1.54 2.29-3 3.57-4.39l.26-.3-.28-.23-.04-.03c-.93.65-1.75 1.43-2.44 2.32a7.3 7.3 0 0 0-1.52 3.37v.02h.02c.68-.16 1.3-.5 1.79-1l.32-.27Zm-2.44-5.94-.66.47v.04c.1 0 .19-.02.28-.05l.15-.04.14-.07c.17-.07.34-.16.38-.35l-.02-.03-.27.03Zm-.23.04v-.01a.27.27 0 0 0-.11-.14.22.22 0 0 1-.06-.06v-.01h-.03a.7.7 0 0 0-.42.57v.03h.02a.9.9 0 0 0 .6-.38Zm-.45-.3-.03.01c-.15.08-.28.18-.4.3l-.29.22a.48.48 0 0 0-.18.06.35.35 0 0 1-.16.05h-.02v.02a.26.26 0 0 0-.02.08.08.08 0 0 0 .04.08c.24.02.46-.04.66-.15l.4-.63v-.04Zm-.54-.12.04-.04v-.03c0-.04 0-.1-.02-.12a.05.05 0 0 0-.04-.02l-.35.15.41-.44v-.01c0-.05-.01-.06-.05-.07h-.1a.88.88 0 0 0-.53.59v.02a.12.12 0 0 0 .12 0c.03-.01.05-.02.06 0a.23.23 0 0 1-.1.06c-.04.03-.08.05-.09.09v.01c0 .02 0 .04.02.05h.01a.7.7 0 0 0 .62-.24Zm9.06 8.55c-.17-.87-.28-1.74-.34-2.61l-.06-.61h-.03l-.1 5.83-.02.01-.1-4.99h-.04c-.04.66-.15 1.32-.31 1.96a7.37 7.37 0 0 0-.28 2.68l.12.19c.13.26.33.47.59.6h.01a.5.5 0 0 0 .19-.12l.08-.07c.88-.53.62-1.54.4-2.44l-.11-.43Zm-.98-3.98h-.04l-1.93 6.01h-.01l.75-2.8h-.03L36.5 61.5c0 .04.02.08.05.12l.1.2c.12.26.27.5.47.7a.82.82 0 0 0 .7-.14l.12-.06c.32-.72.53-1.48.63-2.25l.1-.53c.2-1.08.36-2.17.45-3.27Zm1.95 2.38c-.47-.85-.86-1.74-1.15-2.66h-.03a42.71 42.71 0 0 0 1.65 5.83c0 .03 0 .03-.02.03-.6-1.37-1.1-2.8-1.44-4.25l-.22-.8h-.03c.07 1.73.37 3.44.9 5.09h.01l.16.1c.08.07.17.12.26.16a.82.82 0 0 0 .86.04l.07-.08c.08-.09.15-.19.2-.3a10.16 10.16 0 0 0-1.22-3.16Zm-4.74-.17c.95-1.2 1.66-2.59 2.08-4.07v-.01l-.02-.02h-.05a44.88 44.88 0 0 0-2.94 3.6c-.49.64-.95 1.25-1.44 1.85l.96-1.47-.02-.03c-.44.4-.94.74-1.47 1h-.01a1.53 1.53 0 0 0-.05 1.19c.05.03.11.04.17.04a5.52 5.52 0 0 0 2.79-2.08Zm20.84-13.5.57-1.26h-.04a.07.07 0 0 0-.07.06c-.06.16-.13.3-.21.45-.15.22-.24.47-.28.73l.03.01ZM54.5 26.94h-.03a12.32 12.32 0 0 1-3.5 3 .54.54 0 0 0-.3.56c1.22-.54 2.33-1.3 3.26-2.26.34-.33.73-.66.65-1.17 0-.08-.07-.1-.08-.13Zm-7.6 22.42c.06.12.14.23.23.33l.1.06c.1.08.24.18.35.1v-.01l.05-.22-.5-.76h-.01a.35.35 0 0 0-.17-.02h-.11l.39.47-.03.02-.48-.45-.04.18v.01c.1.08.17.18.22.3ZM50.7 31l-.06.05c-.1.1-.23.17-.37.2.12-.11.27-.2.43-.25Zm-.49.27-.01.03h.03c.17-.03.32-.1.44-.22l.19-.14-.02-.04a.92.92 0 0 1-.12.06.98.98 0 0 0-.5.3Zm-.24.93a8.63 8.63 0 0 0 4.38-2.14.71.71 0 0 0 .15-.66l-.04-.01a18.2 18.2 0 0 1-2.65 1.88l1.55-.8a10.15 10.15 0 0 1-3.4 1.66c-.02 0-.07.07 0 .07Zm-3.28 16.1-.38.07v.02l.1.1.06.06a1.06 1.06 0 0 0 .82.09l.01-.02a.33.33 0 0 0-.03-.22l-.05-.12a.9.9 0 0 0-.52-.46l-.07-.03h-.06l.16.4.3.29v.01l-.34-.18Zm-.07 2.14.06.36c.04.09.1.15.19.2l.11.07.05.02a1 1 0 0 0 .9.03v-.01a.6.6 0 0 0-.27-.52l-.05-.04-.54.03.01.03.11.12c.05.03.08.07.1.13l-.58-.39-.09-.03Zm3.26-11.96c-.04.06-.2.04-.15.12.47.25.98.43 1.5.53a.9.9 0 0 0 .96-.33.62.62 0 0 0 .06-.58l-.41-.05-1.68.05a.08.08 0 0 0-.03.07.07.07 0 0 0 .03.05l1.14.24-.11.07c-.41-.07-.86-.1-1.31-.17Zm.05-4.32c.04.02.1.03.14.02a5.11 5.11 0 0 0 3.32-1.29 1.08 1.08 0 0 0 .31-.82l-.05-.03h-.04c-1.1.74-2.29 1.34-3.54 1.79.9-.1 1.78-.36 2.58-.78-.83.53-1.75.88-2.72 1.05.09.02-.07.03 0 .06Zm2.02.26c-.53.24-1.09.4-1.66.47 0 .04-.03.02-.03.04.02.04.02.1.07.1.96-.03 1.9-.31 2.72-.82a.82.82 0 0 0 .24-.82l-.03-.03a9.8 9.8 0 0 1-3.13 1.2c.01.07.05.07.05.1.45.04.9-.04 1.3-.22.17-.04.35-.07.52-.09.03.01 0 .05 0 .05a.12.12 0 0 1-.05.02Zm1.34-.02-.03-.03c-.93.6-1.98.97-3.08 1.07l-.05.18c.45.26 1.1-.12 1.62-.17v.07l-1.36.4c.02.1-.03.24.08.28a5.56 5.56 0 0 0 2.42-.7 1.26 1.26 0 0 0 .4-1.1Zm.53-5.26-.05.04a.47.47 0 0 1-.1.07h-.01l-.02-.03.16-.11.02.03Zm.74-1.18v-.02a21.33 21.33 0 0 1-2 1.92l1.05-.57-3.38 2.25a10.42 10.42 0 0 0 4.37-2.7.99.99 0 0 0 0-.87l-.04-.01Zm-1.05 7.87c.96-.03 2.2.15 2.93-.7.14-.26.44-.66.24-1.02h-.1c-.95.32-1.96.48-2.97.47v.46c.46.02.91-.01 1.37-.08.32-.06.64-.11.96-.14v.05a9.26 9.26 0 0 1-2.5.4l-.23.42.04.06c.07.08.15 0 .26.08Zm1-4.92 1.94-.5a.04.04 0 0 1 0 .05l-1.94.66c-.04 0-.05 0-.06.03 0 .1-.08.22-.02.27.8-.04 1.56-.26 2.25-.66a1.17 1.17 0 0 0 .4-.95.37.37 0 0 0-.1-.01c-.82.35-1.69.62-2.57.8a.42.42 0 0 0 .1.31Zm2.53.1-.02-.03c-.96.46-2 .75-3.05.86l.05.48 2.2-.42c-.02.03-.08.04-.14.09-.69.28-1.4.48-2.12.6-.01.04-.03.05-.04.05-.01.07-.1.2-.04.25 1-.05 2.39-.09 3.05-1a.97.97 0 0 0 .1-.89Zm-.26 1.62-.06-.03c-.98.4-2.03.63-3.1.65l.1.42c.55 0 1.11-.05 1.66-.15v.04a2.5 2.5 0 0 1-.68.16c-.34.2-.84.05-1.13.28l-.03.15c.72.08 1.44.05 2.14-.1a1.52 1.52 0 0 0 1.22-.94c.02-.2.02-.4-.12-.48Zm-6.85.59c0 .05 0 .12.06.13h.17a7.6 7.6 0 0 0 3.9-2.07c.05-.18.16-.45.04-.6-1.22.92-2.6 1.6-4.08 1.97l-.1.31c.98-.17 1.92-.5 2.78-.96v.07c-.87.5-1.8.88-2.77 1.15Zm-2.31 16.93a.55.55 0 0 0 .19.38l.12.07c.12.06.27.15.38.08v-.01h.01a.97.97 0 0 0-.18-.76l-.03-.04-.29-.1h-.04l.26.5-.3-.27-.12.15Zm-.53 2.5h.01l.04.01c.03.03.08.04.12.05h.03c.28.04.64.1.84-.1l.01-.02a.63.63 0 0 0-.42-.39l-.33.07v.04l.1.03v.02h-.03l-.33.02a.16.16 0 0 0-.08.12v.03a.15.15 0 0 0 .04.11Zm.77-.65.01-.01a.1.1 0 0 0 .06-.04v-.13a1 1 0 0 0-.71-.5h-.03v.03l-.01.04c0 .1.04.18.11.25l.29.17a.57.57 0 0 1-.12-.03.47.47 0 0 0-.25-.04.81.81 0 0 1-.13.06c-.1.04-.2.09-.2.18v.01a1.22 1.22 0 0 0 .98 0Zm-1.37-1.8c.29.16.61.22.93.17h.01v-.12a.66.66 0 0 0-.37-.38h-.02c-.08.04-.1.08-.1.11v.04l.07.06c.04.02.06.05.07.1-.04-.02-.6-.07-.6-.07V50.19h.01Zm6.04-6.67a.58.58 0 0 0 .03-.49c-.7-.27-1.32-.7-1.82-1.27h-.06a.21.21 0 0 0-.16.2c.47.56 1.18.97 1.62 1.44-.64-.41-1.24-.87-1.8-1.38l-.26.14-.01.06a4.35 4.35 0 0 0 1.78 1.51.67.67 0 0 0 .68-.21Zm1.95-2.96c.02-.05 0-.13-.06-.13a7.42 7.42 0 0 1-2.24-.7h-.03l-.1.24a.05.05 0 0 0 .02.04h.02l1.97.75c0 .05-.04.05-.06.08-.66-.11-1.3-.3-1.91-.59-.14-.02-.36-.16-.47-.02.45.46 1 .8 1.59 1a.97.97 0 0 0 1.06-.29c.04-.14.14-.21.21-.38ZM49.4 44.7l-.34-.4.02-.02.35.4-.03.02Zm-.73-1.63h-.01l-.22.22.56.93-.73-.84-.33.13c.24.64.63 1.22 1.13 1.69.2.13.43.2.66.16a.55.55 0 0 0 .33-.46c-.38-.7-1.06-1.23-1.4-1.83Zm2.07.93h.01l.25.19-.02.03-.25-.18V44Zm.58.45c.07-.15.21-.32.11-.48a6.55 6.55 0 0 1-1.7-1.6l-.22.3 1.09 1.2c0 .03-.03.03-.04.03l-1.28-1.14-.28.1a.07.07 0 0 0-.02.06c.4.74 1 1.35 1.74 1.76a.63.63 0 0 0 .6-.23Zm-4.88 5.45h.1c.13-.03.28-.05.33-.19l-.05-.12a.79.79 0 0 0-.3-.45h-.1a.26.26 0 0 1-.1.03c-.06 0-.12.01-.14.07v.01s.16.19.25.27l-.57-.26-.02.03.16.21c.1.18.26.32.44.4Zm1.44 1.59.1.1.01.01c.23.1.48.12.72.05h.01v-.02l.01-.03v-.05a1.04 1.04 0 0 1-.04-.12.54.54 0 0 0-.07-.14c-.08-.16-.25-.42-.46-.42h-.03v.28a.18.18 0 0 0 .11.12c.05.03.08.06.1.1l-.04.01a1.13 1.13 0 0 1-.12-.1h-.01a.38.38 0 0 0-.33.07l-.05.03.01.02.08.09Zm-2.33-3.58a1.06 1.06 0 0 0 .9.2h.01l.01-.01a.03.03 0 0 0 .03-.02.03.03 0 0 0 0-.02c-.17-.4-.48-.7-.87-.86l-.07-.03v.28a812.17 812.17 0 0 0 .3.32.38.38 0 0 1-.1-.06l-.07-.05c-.02-.02-.09-.06-.13-.04a.08.08 0 0 0-.03.07l.02.22Zm6.46-11.36H51.9v-.03h.06l.05-.01v.04Zm.98-.78h-.04c-.84.45-1.75.7-2.69.77.03.1.05.19.13.2l1.46-.15-1.43.31c-.03.02-.05.1 0 .12.77-.04 1.78.08 2.34-.48a.85.85 0 0 0 .23-.77ZM48.26 52.4c.2.05.46.06.55-.1l.01-.03h-.01a.09.09 0 0 1-.02-.04v-.01l-.12-.04c-.07-.01-.11-.03-.12-.06h.09c.04.02.1.03.13-.03v-.02c-.1-.21-.33-.22-.52-.23h-.05a.08.08 0 0 0-.01.05l.01.05.23.15-.38.01v.01c-.02.02-.02.05-.02.07v.01l.22.21Zm-.85-3.6c-.04 0-.08.02-.1.09.1.26.27.49.48.66l.09.05c.1.06.23.14.34.06l.01-.01a.55.55 0 0 0 .01-.23v-.1a1.52 1.52 0 0 0-.7-.86l-.02-.01h-.03l-.01.04.35.55-.36-.27-.06.02Zm-1.86-2.12a.55.55 0 0 0 .48-.34c.12-.62-.5-1.3-.5-2.02l.02 2.36Zm3.6 4.29v-.01c-.1-.49-.33-.94-.67-1.29h-.04l-.1.24.11.24c.17.16.29.36.34.58a.27.27 0 0 1-.12-.15.39.39 0 0 0-.05-.1h-.12v.02a.4.4 0 0 1-.03.25l-.03.07c.05.1.1.14.2.2l.02.01c.06 0 .1.01.16.03.13.02.27.05.33-.09Zm-1.7-7.62-.25.16.85 1.7H48c-.4-.5-.58-1.24-1.04-1.67l-.21.07c.15.68.43 1.31.83 1.88.2.2.34.45.64.54a.47.47 0 0 0 .5-.14l.12-.3a7.73 7.73 0 0 1-1.38-2.24Zm-.76 2.13-.65-1.76-.12.08c-.03 0-.04.04-.05.06.04.65.2 1.3.49 1.89.19.15.22.42.43.64a.47.47 0 0 0 .5.02.5.5 0 0 0 .23-.5 7.47 7.47 0 0 1-1.18-2.48h-.04c-.13.66.3 1.38.44 2.05h-.05Zm6.42-2.91a1.15 1.15 0 0 0 .6-.8l-.06-.06a5.97 5.97 0 0 1-2.12-1.06h-.04l-.19.34 1.44 1.07c-.57-.27-1.12-.58-1.65-.93-.07.05-.2.08-.21.19.18.23.39.45.6.65a1.99 1.99 0 0 0 1.63.6Zm3.21 2.06h-.15l-.03.01h-.03l.05.44h.03l.13-.45Zm-10.3 6.9c.02.04.05.07.11.11a1.03 1.03 0 0 0 .86.01.19.19 0 0 0 .04-.13l-.02-.03a.33.33 0 0 1-.05-.13l-.07-.1c-.13-.14-.27-.32-.46-.32l-.49.06c-.04 0-.04.03-.04.06a.16.16 0 0 0 .11.12l.36.22H46l.02.13Zm3.1 2.6.11-.01.04-.05c.02-.03.03-.04.05-.04l.35.05h.01a.64.64 0 0 1 .12-.1c.08-.06.15-.11.15-.18v-.02l-.5-.12-2.18 1.82.47.18.44-.37-.01-.01a.29.29 0 0 0-.07-.06c-.03-.02-.05-.03-.05-.06v-.02l.03-.01h.08c.03.02.06.02.08.02v-.03a.46.46 0 0 0-.07-.02.3.3 0 0 0-.08-.01.14.14 0 0 1-.1-.07l.08-.14.5.1.23-.17c.19-.11.35-.27.48-.45v-.02a.23.23 0 0 0-.15-.07c-.07-.01-.11-.03-.11-.07a.13.13 0 0 1 .1-.07Zm-3.54-5.1h.01c.3.08.62.05.9-.08l.03-.02-.03-.01c-.02-.01-.03-.08-.04-.1v-.01c-.2-.32-.51-.55-.87-.67h-.06v.02c0 .13 0 .32.11.36l.3.19v.02l-.37-.08.02.38Zm1.86-8.14c.18.61.55 1.14 1.05 1.53.22.08.46.1.68.05.15-.1.34-.23.36-.4a5.58 5.58 0 0 1-1.73-1.33l-.05-.02c-.04.04-.08.04-.08.09.44.48.92.92 1.43 1.32h-.07l-1.6-1.24Zm.13 1.23.2.3-.03.03-.2-.31.03-.02Zm-.94-.91v.07c.27.7.46 1.42 1.13 1.75a.7.7 0 0 0 .54-.04.31.31 0 0 0 .11-.35 4.46 4.46 0 0 1-1.37-1.6v-.02H47l-.04.09.53.96-.76-.92c-.04.02-.08.02-.1.06Zm-.76.4a2.28 2.28 0 0 0 .88 1.53.3.3 0 0 0 .4-.06c0-.06.04-.13 0-.2-.41-.42-.7-.94-.87-1.51h-.03l-.07.09.5 1.09-.66-1.03c-.08 0-.15.01-.15.08Zm11.52 4.12h.04v.04l-.06.67h-.02c-.08.01-.13-.06-.17-.12a.47.47 0 0 0-.05-.06v-.01l.26-.52Zm-1.67 2.75.03.02c.35-.35.63-.77.82-1.23.12-.27.27-.53.44-.78l.04-.01h.02l.37.4.13-1.57-.03-.03-.27.2c-.3.19-.58.43-.82.7v.02c.05.05.1.08.17.08.07.01.11.02.11.06a.1.1 0 0 1 0 .04.16.16 0 0 1-.04.04c-.02.01-.03.02-.03.04v-.01l-.94 2.03Zm5-2.77v-.01a.28.28 0 0 1-.13-.2.84.84 0 0 0-.05-.11v-.01l.73-.75h.02l.03.03-.52 1.01c0 .02-.02.02-.05.03h-.03Zm.8-1.26h-.08l-.36.13a1.37 1.37 0 0 0-.94.63.16.16 0 0 0 .08.13c.03.01.04.03.05.04v.04l-1.43 1.26-.06.18.03.02 1.58-1.28a.2.2 0 0 1 .1.13c.04.16.09.26.16.29.03 0 .09 0 .09-.04l.78-1.53ZM60.36 46l-1.04.78.01.03.61-.23.51-.46a.07.07 0 0 0 .04-.06v-.01a.15.15 0 0 0-.11-.05h-.02Zm1.2-4.36.03.02 1.4-1.61h.05l.25.44.38-1.11-.03-.02-.35.75h-.04a.47.47 0 0 1-.09-.24c.12-.27.3-.5.52-.7v.07h.05l.15-.5v-.05l-1.4.98.37.16c-.16.27-.35.5-.57.72-.33.3-.58.67-.72 1.09Zm-3.21 4.55v-.01l.7-.8.04.04-.48 1.05h-.01a.4.4 0 0 1-.25-.28Zm.32.5.66-1.58-.02-.02-1.61 1.02.34.13v.09l-.6.73c-.44.46-.82.99-1.1 1.56l.02.02c.39-.36.74-.76 1.06-1.2.26-.34.55-.67.84-.99h.07c.06.03.1.07.13.12.06.08.11.15.2.13Zm-1.65-3.28.03.01-.13 1.22-.03-.02a1.27 1.27 0 0 1-.23-.26l-.04-.06.4-.89Zm-2.29 5.55c.66-1.48 1.27-2.93 1.78-4.15a.23.23 0 0 1 .21-.13c.05-.01.09.04.12.08.03.05.07.09.1.09a.07.07 0 0 0 .06-.04l.15-1.84-.03-.01-.04.05a12.79 12.79 0 0 0-.98 1.4l.01.05a.08.08 0 0 0 .07.05h.14c.06 0 .13 0 .19.02l.01.05-1.82 4.37.03.01Zm3.7-2.22a.1.1 0 0 0-.07-.02h-.02l-.61.7.02.04.73-.62v-.01a.1.1 0 0 0-.04-.06l-.01-.03Zm-2.8-1.13-.07-.02-.56 2.15.03.01.84-1.93-.25-.21Zm-7.47-5.01c.34.47.78.85 1.3 1.11a1.12 1.12 0 0 0 .97-.2c.03-.05.08-.14.03-.17a5.52 5.52 0 0 1-2.06-1.02l-.04-.02-.09.05a.12.12 0 0 0 0 .09l1.5.93c-.06.03.09.05 0 .05l-1.6-.82Zm9.54 5.64a.07.07 0 0 0-.05.04.13.13 0 0 0 0 .1v.02l.02-.02a.12.12 0 0 0 .06-.1v-.04h-.03Zm.06-.76.68-1.22-.03-.03-.02.01c-.1.13-.18.27-.26.41-.1.18-.2.35-.34.5l-.03.05c-.05.08-.1.19-.02.27l.02.01Zm2.24-3.3a.1.1 0 0 1-.04.01l-1.72 2.97.03.02.59-.8 1.48-1.98v-.01l.04-.06c.02-.02.04-.05.03-.08 0-.03-.04-.04-.07-.05l-.33-.02H60Zm-1.96 1.6h-.02a.04.04 0 0 0-.04 0h-.01l-.1.24.04.02.11-.19.02-.07Zm.74-1.05-.27 1.08h-.01c-.08 0-.13-.07-.16-.13a.39.39 0 0 0-.06-.1h-.02l.49-.87.03.01v.01Zm.1-.22h-.04c-.15.14-.3.26-.47.37-.26.17-.5.39-.68.64l-.02.02h.02a27.36 27.36 0 0 0 .43.1c.17.13.3.28.4.45l.03.04.34-1.6-.02-.02Zm-4.16-12.32c.92-.07 1.8-.43 2.5-1.01a1.14 1.14 0 0 0 .29-1.02c0-.03-.05-.04-.06-.03l-2.64 1.07c0 .13.02.26.07.38l.96-.2-1.03.47-.09.34Zm4.44-4.31h-.01a47.26 47.26 0 0 1-4.13 2.32.17.17 0 0 0-.04.16.08.08 0 0 0 .06.04l1.93-.89c-.6.55-1.43.69-2 1.17.09.03-.05.04 0 .04a10.6 10.6 0 0 0 3.47-1.59c.32-.38.77-.7.72-1.25Zm-.96 18.06.01-.02-.06-.04-.02.04-.82 1.29.03.02c.37-.37.66-.81.86-1.3Zm.71-3.03-1.18 1.33.51.13v.05l-.21.56.03.02.11-.1.2-.42.2.1c.05-.04.05-.06.05-.1a.67.67 0 0 0-.1-.11c-.08-.06-.13-.11-.13-.19l.42-.9c.03 0 .03 0 .04.03l-.06 1.01h.04l.11-1.37-.03-.04Zm.46 4.55a.07.07 0 0 0-.03.07l-.01.03h.01c.02.02.06.02.08-.04l.01-.01-.05-.05h-.01Zm-1.94-2.28c.01.02.04 0 .06 0l.28-.58-.32-.05h-.06l.03.62v.01Zm-.34-17.08c-.72.55-1.48 1.05-2.28 1.5v.05l.07.15a.2.2 0 0 0 .09.03c1.09-.5 2.15-1.07 3.17-1.7a3.1 3.1 0 0 0 1.72-2.14v-.02a29.24 29.24 0 0 1-4.99 3.18v.1l2.39-1.28c-.01.08-.11.08-.17.13Zm-7.84 12.97c-.04.02-.04.08-.04.12.54.5 1.21.83 1.94.94a.66.66 0 0 0 .55-.33.44.44 0 0 0 .04-.37c-.74-.11-1.46-.3-2.16-.54h-.01c-.04.03-.06.05-.06.1l1.42.57-.1.06-1.58-.55Zm1.03 1.3.1.04-.01.03-.1-.03.01-.04Zm-1.57-.4c.02.06.05.06.07.12.43.5 1 .85 1.64 1a.9.9 0 0 0 .67-.45c0-.1.03-.16-.02-.23a8.94 8.94 0 0 1-2.02-.75.29.29 0 0 0-.15.09l.01.08c.31.29 1 .24 1.26.57-.49-.1-.97-.26-1.42-.47-.02 0-.02.02-.04.04Zm10.32 6.41 1.1-.95a.08.08 0 0 0-.05-.08.1.1 0 0 0-.07-.04H60l-1 1.04.03.03Zm-8.8-8.51c.73.18 1.5.13 2.2-.14a.73.73 0 0 0 .26-.68h-.11c-.62.2-1.26.3-1.92.29-.15.07-.37-.08-.47.06 0 .05.05.06.07.07l2-.13c-.63.38-1.44.22-2.08.36.01.07 0 .15.05.17Zm9.17 6.77-.03-.02h-.01a.71.71 0 0 0-.38.48v.04l.03-.02c.11-.05.22-.11.32-.18a.28.28 0 0 0 .07-.3Zm1.4-2.55c.18-.34.39-.67.63-.97l.04.02v.02L61 42.38H61c-.09-.03-.13-.13-.16-.2l-.03-.08Zm.23.6.57-1.74-.03-.03-1.4.92-.01.01-.03.04a.21.21 0 0 0-.05.12c0 .01 0 .03.02.05l.45.09.05.11c-.34.43-.67.88-.98 1.31a20 20 0 0 1-1.57 1.98l-.02-.05a.08.08 0 0 0-.09-.01h-.03l-.01.01-.19.27v.05c0 .03 0 .06.04.08l.75-.46.02-.07v-.05l.47-.63c.58-.78 1.19-1.58 1.73-2.36l.31.37ZM37.31 53.78c.03.02.07.04.11.03l.15-.06-.04-.56-.04-.03h-.04c-.06.02-.1.04-.1.1v.29l-.02-.01c-.02 0-.04-.06-.05-.1l-.05-.1h-.06l.01.03.13.4Zm1.43-.53h.01a.27.27 0 0 0 .2-.22.93.93 0 0 1-.07-.33.52.52 0 0 0-.12-.4l-.17-.05c-.02 0-.05.02-.05.07l.02.37-.16-.52-.2-.03h-.06v.02c0 .18.03.36.1.52l.14.2c.1.17.2.33.36.37Zm1.99.75c0 .02.03.03.04.03a.06.06 0 0 0 .07-.07v-.01l-.05-.03-.02.02c-.03.02-.05.03-.04.06Zm-1.32-.3a1.12 1.12 0 0 0-.34-.34h-.03a.08.08 0 0 0-.03.08 1.64 1.64 0 0 0 .2.74c.06.1.15.17.26.21l.04-.01a.18.18 0 0 0 .09-.06c.28-.27.44-.64.46-1.03v-.05l-.55.45-.05.48c-.03.01-.04 0-.05-.02v-.45Zm.85.07.05-.12-.04-.01-.05.12.04.01Zm-2.5.84.13-.15v-.05h-.09l-.08.18.03.02Zm1.75-1.95-.06.56v-.02l-.04-.51c-.02-.07-.03-.08-.11-.14l-.06-.04c-.05-.03-.11-.07-.16-.05a.1.1 0 0 0-.06.06c-.01.22.04.44.15.63.1.12.24.19.4.2l.48-.97c0-.02-.02-.03-.06-.03l-.08.03a.64.64 0 0 0-.4.28Zm.14-14.34-.17-.07c-.1.07-.2.15-.28.23v.01a.17.17 0 0 1-.07.1h-.01c0 .03-.01.03-.03.03l-.5-.47h-.02c-.09.08-.18.15-.29.2a.73.73 0 0 0-.4.37v.03l1.93.01-.16-.44Zm-1.58 15.9h.01a.31.31 0 0 0 .18-.2.7.7 0 0 0-.07-.53l-.02-.06h-.03a.11.11 0 0 0-.08.02l-.02.03v.02l.02.33h-.03a1.05 1.05 0 0 1-.07-.23.51.51 0 0 0-.2-.38h-.07v.02c.05.35.17.68.37.96l.01.02Zm2 .03v.01h.08a.43.43 0 0 0 .09-.04c.24-.27.38-.6.43-.94v-.02h-.04a.3.3 0 0 0-.17.28l-.02.08c-.04.15-.09.32-.2.36a.14.14 0 0 1-.03-.05l-.03-.08-.02.04a.46.46 0 0 1-.05.08c-.05.09-.11.18-.04.28Zm2-2.28h-.19l-.35.86a.07.07 0 0 0 .02.05.06.06 0 0 0 .05.02c.03 0 .05-.02.07-.03l.03-.02h.01l.09-.11a.85.85 0 0 0 .27-.77Zm.3.05a.72.72 0 0 1-.19.4.46.46 0 0 0-.14.37v.02h.18a.24.24 0 0 0 .06-.06 1.01 1.01 0 0 0 .44-.75v-.04h-.07l-.25.4h-.01l-.01-.02.11-.31V52a.09.09 0 0 0-.12 0v.01Zm-.68 1.28c-.07.16-.13.3-.3.37-.02.02-.02.04-.02.07 0 .05.01.06.02.07h.12l.33-.6h-.12l-.03.09Zm-1.16-14.53c.23.04.47.02.69-.06l.02-.02-.23-.26H41a.12.12 0 0 1-.08-.05l-.01-.01-.04-.07c-.03-.06-.06-.13-.14-.14h-.04l-.48.6h.04l.28.01Zm-.29 14.37h.01a.42.42 0 0 0 .3-.18l.12-.19c.15-.19.24-.42.27-.66v-.01a.1.1 0 0 0-.07-.04c-.05.01-.19.03-.19.12a.5.5 0 0 1 0 .1l-.02.04c-.04.18-.1.4-.21.48l.12-.62h-.01a.17.17 0 0 0-.13 0 .06.06 0 0 0-.03.03c-.06.21-.14.42-.24.62-.04.15 0 .28.08.31Zm.82-.26a.2.2 0 0 0 .02-.03l.13-.12.04.01-.01.05a.2.2 0 0 0-.01.07.25.25 0 0 1-.15.15h-.03l-.02-.03c-.01-.03 0-.06.03-.1Zm-.2.12a.2.2 0 0 0 .14.14l.1-.04.02-.03a1.31 1.31 0 0 0 .48-1h-.04l-.05.18a.61.61 0 0 1-.24.43l-.01-.01.16-.64-.05-.03-.5 1Zm1.54-14.3-.22-.38-.05-.03-.43.44.01.03.7-.05Zm-1.39 15.1c.17-.16.28-.38.3-.62v-.02h-.03l-.3.63.03.02Zm-14.94-8.98v-.01a.2.2 0 0 0-.06-.02.3.3 0 0 0-.14.08.54.54 0 0 1-.12.09h-.01l-.14.18a5.37 5.37 0 0 0-1.48 3.16v.01l.28.29.02-.02c.23-.43.4-.89.48-1.37l.06-.16c.14-.48.37-.93.67-1.33a6.2 6.2 0 0 0-.58 1.5 6.23 6.23 0 0 1-.62 1.58v.01c-.02.27-.15.53-.36.7-.08.08-.15.17-.21.27l.02.02.57-.28a5.8 5.8 0 0 0 1.57-4.14l.02-.15.03-.4Zm5.88 6.72.2-.44-.18-.06-.56.33v-.03c.19-.06.34-.2.43-.37 0-.14-.04-.22-.12-.23h-.1a.6.6 0 0 0-.24.16l-.05.05a.82.82 0 0 0-.04.59v.01l.62.05.04-.06Zm1.38 0c.1.05.2.06.3.05h.06c.15-.03.4-.1.47-.27v-.01l-.18-.19-.48.25v-.03a.6.6 0 0 0 .36-.33v-.03c-.01-.05-.02-.09-.08-.09l-.05.04c-.22.18-.4.33-.4.6ZM35 38.77l.87-.03-.05-.28a.1.1 0 0 0-.1-.02c-.12.05-.25.1-.38.12-.12.02-.23.05-.35.1-.02.01-.05.06-.03.09l.01.01H35Zm-1.36 13.2.13.1h.08a.4.4 0 0 0 .1.02.98.98 0 0 0 .77-.43l.01-.02-.2-.08-.56.32c.05-.05.1-.08.16-.11a.52.52 0 0 0 .27-.28v-.01a.07.07 0 0 0-.07-.05l-.6.3-.09.24Zm9.18-13.23 1.45-.05v-.04l-.84-.35-.14-.1-.02-.01h-.01a.6.6 0 0 0-.2.17.8.8 0 0 1-.16.14l-.02.02c-.04.04-.1.1-.1.16v.03l.03.02Zm-4.4 15.1c.04.07.07.13.08.2.02.09.06.17.1.25h.01l.08.03h.08l.07-.04c.07-.05.16-.1.17-.19l-.12-.57h-.04l-.02-.02a.18.18 0 0 0-.15.07l.06.27c0 .01 0 .02-.04.02l-.22-.44-.08-.04v.11l.01.18.01.17Zm-7.57-1.79a.08.08 0 0 0-.06.05l-.04.02c-.06.05-.14.11-.15.17v.01l.02.06.02.01.68-.57v-.05l-.05-.02-.42.32Zm-.74-.84c0 .04 0 .09.04.09h.01l.55-.51v-.05l-.04-.02-.56.48Zm.71-1 .46-.6h-.03c-.3-.1-.48.1-.63.28l-.16.18.23-.41v-.01a.32.32 0 0 0-.12-.18v-.01h-.02a.35.35 0 0 0-.2.15.83.83 0 0 0-.15.71v.01a.76.76 0 0 0 .62-.12Zm5.9 3.05h.03l-.13-.3h-.04v.01c0 .08 0 .27.13.29Zm-.62-1.32h-.04a.1.1 0 0 0-.03.07.8.8 0 0 0 .53.6l.05-.01.03-.02a.9.9 0 0 0-.08-.63v-.01h-.05c-.05 0-.1 0-.11.02l-.02.03.04.28-.2-.33h-.12Zm1.37.06-.03.03a1.35 1.35 0 0 0 .52 1.09H38.06a.27.27 0 0 0 .18-.2v-.01l-.26-.86h-.01l-.1-.02c-.06-.01-.12-.03-.16.02a154.6 154.6 0 0 0 .12.52l-.26-.54a.12.12 0 0 0-.09-.03Zm-.6 1.45c.04 0 .05 0 .07-.02v-.01a.77.77 0 0 0-.15-.57h-.07l.13.6h.02ZM36 31.7c.5.07.86.51 1.32.42l.01-.06c-.41-.2-.86-.34-1.32-.38l-.01.02ZM37.24 53h.01a.3.3 0 0 0 .18-.29c-.07-.15-.1-.31-.12-.47a2.23 2.23 0 0 0-.04-.22V52h-.03c-.08-.01-.13-.02-.15.01a.16.16 0 0 0-.04.1l.03.35-.16-.47h-.1l-.04.02c-.01.13 0 .25.05.37l.05.15.08.15c.07.14.14.28.28.32Zm-1.22-22.72.17-.09.13.04a.22.22 0 0 0-.06-.23h-.07l-.22.23c.02.03.03.05.05.05Zm-14 16.57c-.1-.1-.2-.22-.35-.2a.53.53 0 0 0-.37.23.66.66 0 0 0 .16.57h.01a.1.1 0 0 1 .04.02c.03.02.08.05.12 0h.01l-.19-.22a.13.13 0 0 1 .03-.1.17.17 0 0 1 .16.03l.08.04.05-.01.05-.02c.03-.07.06-.1.09-.1a.12.12 0 0 1 .1.1h.01c.05.06.02.11-.02.17a.25.25 0 0 0-.04.12l.03.01.1-.12a.67.67 0 0 0-.05-.49l-.03-.03Zm15.28-8.62c-.16.15-.35.26-.55.31l-.3.12h-.01a.06.06 0 0 0 0 .1l.03.02 1.03-.03-.12-.5-.06-.02h-.02ZM55.32 49.5c.25-.38.53-.73.82-1.06.44-.46.8-.98 1.07-1.54l-.03-.02-1.99 2.62h.13Zm7.65-9.02-.05-.02-1 1.2.03.03 1.28-.69-.26-.52ZM44.11 51.75v.02l.1.12.01.02a.53.53 0 0 0 .5.12l.03-.01-.38-.4h-.02a.37.37 0 0 1-.1.04.19.19 0 0 0-.14.09ZM61.8 38.6s.01-.03.03-.02c.02 0 .02.02.02.03l-.22 1.13h-.01c-.11 0-.16-.08-.2-.17l-.06-.09.44-.88Zm-.75 1.06-.77 1.33c-.4.7-.8 1.42-1.25 2.07a.08.08 0 0 1-.03-.03.07.07 0 0 0-.06-.03h-.01l-.15.7h.04c.43-.62.82-1.29 1.19-1.93.39-.69.8-1.4 1.27-2.06l.37.3.35-1.8-.03-.03-1.33 1.26.4.16a.1.1 0 0 1 .01.06Zm-1.88 7.76-.01-.04h-.03l-1.32.96.02.03 1.34-.95ZM54 26.1c-.2.24-.46.35-.62.58-.88.7-1.64 1.55-2.26 2.5v.15a9.12 9.12 0 0 0 2.57-1.88 3.26 3.26 0 0 0 1.3-2.5.22.22 0 0 0-.14-.14h-.09c-1.02.6-1.98 1.3-2.86 2.1l.08.8c.62-.6 1.3-1.14 2.02-1.61Zm4.03-2.59v.05c-.2.21-.44.39-.71.51-.7.55-1.36.96-2.02 1.52-.08.46-.4.75-.48 1.09a19.54 19.54 0 0 0 4.88-3.09c.36-.37.64-.82.82-1.3.04-.17.03-.43-.11-.53h-.2c-.05 0-.1.05-.16.05a30.95 30.95 0 0 0-4.94 2.8l.26.66 2.66-1.76Zm-1.3 22.22.01-.02a.95.95 0 0 0 .31-.6v-.03h-.02a.13.13 0 0 0-.06.05l-.02.02-.23.54-.02.01h-.03l-.03.02-.01-.01c-.04-.01-.04-.01-.04-.03l.27-.72h-.01l-.03-.04-.02-.02v-.01l-.08-.05-.52 1.26.03.03c.17-.12.34-.25.5-.4Zm-1.02-7.66a.7.7 0 0 0-.05-.6l-.04-.02c-.9.18-1.8.23-2.71.15l-.24.37c.85.18 1.72.27 2.59.28 0 .03-.04.05-.06.07-.89.04-1.79-.1-2.66-.14 0 .1 0 .2.04.29a5 5 0 0 0 2.2.35 1.13 1.13 0 0 0 .93-.75Zm.53-2.14c-.02-.03-.01-.04-.05-.04h-.06c-.92.2-1.85.29-2.79.24l-.14.46c.64.04 1.27.02 1.9-.05v.05l-2.01.21c-.05 0-.06.03-.1.06-.1.08-.08.23-.06.34l.06.05c.24.06.5.05.76.09a3.5 3.5 0 0 0 2.19-.54 1.05 1.05 0 0 0 .3-.87Zm-10.56 4.1v-.01l.01-.03h-.02l.03-.02c.2-.2.44-.36.7-.49.43-.17.78-.5.98-.93l.12-.1a.55.55 0 0 1 .48-.19c.13-.11.25-.24.35-.39.13-.2.3-.38.5-.51a6.64 6.64 0 0 0-.13-.86 5.53 5.53 0 0 1-.14-1.07c0-.28.05-.55.16-.81l-.04-.1-.06-.14A2.54 2.54 0 0 1 47.7 33a7.25 7.25 0 0 1 2.2-3.75l.49-.54.08-.06c.04-.04.1-.07.15-.09h.01l.02.02.01.02a.07.07 0 0 1 .02.05c0 .02 0 .05-.02.08v.02h-.01a8.68 8.68 0 0 0-2.57 3.78 1.52 1.52 0 0 0 .15 1.04c.1.23.26.43.46.59l.08.04v.02c.07.44.12.88.14 1.32.02.58.08 1.16.19 1.73 0 .04-.01.09-.03.13l-.02.05v.01c-.19.16-.35.33-.5.51-.26.36-.62.64-1.03.8-.24.38-.58.66-1 .82-.26.12-.5.27-.72.45h-.06l-.04-.01Zm.5.86a.92.92 0 0 0 .75-.3l.26-.03c.3-.05.4-.3.6-.47.12 0 .23-.01.34-.04.12-.06.27-.13.3-.3-.04-.06-.14-.07-.17-.13 0-.04.03-.05.03-.06.16-.08.35-.02.48-.14.24-.12.22-.44.28-.63.11-.1.3-.16.37-.31v-.07l-.1-.18c0-.03.03-.05.05-.06h.14a.66.66 0 0 0 .39-.36c.02-.08.02-.17-.05-.17l-.28-.03v-.05l.2-.06c.1-.04.13-.14.24-.23a.58.58 0 0 0-.03-.51.16.16 0 0 0-.1-.05l-.13.08c-.04 0-.08-.03-.05-.08.02-.07.12-.11.2-.22a.71.71 0 0 0 .06-.65l-.14-.07c-.04-.09.04-.15.08-.24a.67.67 0 0 0-.05-.7c-.07-.05-.18-.1-.18-.21a.52.52 0 0 0-.02-.36l-.17.13a.13.13 0 0 0-.06-.04c.04-.19.2-.29.24-.5 0-.17-.02-.34-.04-.51-.02-.01-.01-.04-.05-.04l-.15.03a.1.1 0 0 1-.05-.1c.15-.16.24-.36.26-.58 0-.08-.02-.22-.12-.27l-.2.1c-.05 0-.07-.01-.07-.05.12-.15.15-.3.29-.45.14-.17.37-.52.29-.76l-.34.19c-.04-.03-.09-.03-.09-.06.34-.39.87-.5.96-1.06l-.37.16c-.03 0-.06-.02-.06-.06.24-.4.74-.45.82-.94-.06-.02-.11-.03-.11-.11.05-.16.23-.2.36-.36a2.13 2.13 0 0 0 .53-1.77v-.01l-.66.54c-1.42 1.43-2.96 2.76-3.63 4.58-.36 1 .42 1.88 1.11 2.41.04.78.15 1.56.32 2.32-.02.31-.27.45-.53.6-.42.57-1.18.63-1.45 1.33-.2.47-.94.2-1.15.6v1.68a.54.54 0 0 1 .24-.06.61.61 0 0 0 .4-.3Zm8.99-1.3c.04-.12.15-.31.09-.42-.41-.1-.87 0-1.31-.08a6.89 6.89 0 0 1-1.28-.3h-.03a.2.2 0 0 0-.1.17l1.73.51c.03.01 0 .05 0 .05a4.7 4.7 0 0 1-1.79-.38.42.42 0 0 0-.4.19c.72.43 1.53.69 2.37.74.28-.1.52-.27.72-.49Zm1.27 9.53 2.56-1.88-.14-.08-.06-.04-2.38 1.97.02.03Zm-.2-2.78a.08.08 0 0 0-.07-.09h-.06l-1.23 2.9.03.01 1.34-2.82Zm6.48-4.12.51-.57.03.02-.41.87-.02-.02a.47.47 0 0 1-.11-.3Zm.12.58.72-1.54-.03-.05-1.53.85.4.18a.2.2 0 0 1 0 .04l-2.67 2.91.02.03 2.87-2.86.22.44Zm-17.67 9.35-.24.1v.03l.8.12.01-.01a.35.35 0 0 0 .06-.24l-.02-.08c-.03-.17-.06-.34-.2-.4l-.49-.05.12.48c-.01.05-.02.05-.04.05Zm-.57-.41.08.09c.07.08.15.17.24.1h.01v-.07a.56.56 0 0 0-.25-.46h-.01a.21.21 0 0 0-.11.06.18.18 0 0 1-.06.04h-.01v.01c0 .08.04.15.09.2l.02.03Zm1.03-8.56a.35.35 0 0 0 .4-.1c.06-.44-.4-.61-.5-.96l-.02.91a.16.16 0 0 0 .12.15Zm.2 7.6.1.01c.18.03.41.05.52-.1v-.01a2.1 2.1 0 0 0-.77-1.25l-.1-.1h-.07l-.01.39c.08.12.17.23.27.33a1 1 0 0 1 .3.42l-.55-.57c-.06.02-.07.08-.08.14l-.02.1a1 1 0 0 0 .32.55l.08.09Zm-.93.53.06.04c.08.05.17.1.27.12l.15.02c.15.03.33.06.43-.08v-.01a1.57 1.57 0 0 0-.41-.89l-.1.3-.07.11.32.22v.01l-.38-.14a.76.76 0 0 1-.15.22l-.02.02.01-.02a.15.15 0 0 1-.12.04v.04Z"/>
    <path fill="var(--logo-seal-color, currentColor)" d="M28.8 57.74h-.02a.77.77 0 0 0 .21.55l.18.07a.73.73 0 0 0-.37-.62ZM36.61 30.55c-.03.04-.04.05-.04.08-.04.07-.14 0-.14.07.06.1.19.15.3.3.1.14.28.27.18.42a.12.12 0 0 1-.12 0c-.22-.42-.8-.65-1-1.08a.07.07 0 0 0-.08-.05c-.35.03-.68.15-.97.34-.2.29-.47.77-.28 1.15.03.02.04.04.06.04a3.18 3.18 0 0 1 2.78-.07l.04-.39c-.27-.29-.38-.66-.73-.8M53.34 50.9v-.02a.14.14 0 0 0-.13-.1l-.07.05a1.03 1.03 0 0 1-.98-.2h-.06c-.23.07-.32.27-.4.47-.05.1-.1.19-.16.27a.1.1 0 0 1-.04-.02l-.02-.02c-.02-.02-.02-.04-.02-.08 0-.05 0-.11-.09-.13l-.55.15-.19.18a.06.06 0 0 1-.02.06.09.09 0 0 0-.03.04l-.04.03c-.08-.03-.12-.08-.12-.12l.01-.05.02-.06v-.01a.2.2 0 0 0-.05-.05l-.02-.05v-.01h-.02l-.03-.01a.22.22 0 0 0-.08-.03.69.69 0 0 0-.34.31.1.1 0 0 1-.08 0 .05.05 0 0 1-.02-.04l.01-.14a.25.25 0 0 0-.01-.19.53.53 0 0 0-.4-.02.61.61 0 0 1-.3.13l-.17.04v.02l.02.1c.02.17.04.3-.06.4v.02c.02.08.03.11.11.11h.02v-.02c.02-.06.04-.09.1-.09l.44.1.04.04a.3.3 0 0 0-.03.1v.04a.06.06 0 0 0 .06.02.32.32 0 0 1 .25.06l.1.05a.5.5 0 0 0 .52-.11c.1-.08.22-.04.35 0 .1.06.2.07.3.04v-.03a.72.72 0 0 1-.3-.14l-.01-.09v-.03h.01l.48.07.13-.1c.07.03.07.04.08.09l-.02.4h.08l.16-.11h.1v-.01h.01a.2.2 0 0 0 0-.07v-.02a.83.83 0 0 0 .46-.69h.01l.06-.02.02.01.02.01h.01c.03.02.03.04.03.08 0 .03 0 .08.06.08h.01c.1-.12.23-.21.35-.3.18-.1.32-.23.43-.4Zm1.44 1.5h-.01l-.09-.03c-.04-.01-.08-.02-.1 0a.07.07 0 0 0-.03.06l-.08.37a.1.1 0 0 1-.04.02l-.03-.01a.1.1 0 0 0-.04 0v-.1a.42.42 0 0 0 .03-.17.73.73 0 0 0-.1-.35h-.01l-.46-.14-.07.01.01.02c.02.04.06.08.1.1l.03.03.01.09a.14.14 0 0 0-.04.05.2.2 0 0 1-.03.05.49.49 0 0 1-.5.1h-.01c-.04 0-.06-.02-.08-.05-.02-.03-.04-.05-.07-.05a.07.07 0 0 0-.05.02l-.01.05c0 .05.02.1.05.14.07.2.28.25.45.31l.2.07v.04a.07.07 0 0 1-.08.06h-.03a.35.35 0 0 0-.19-.02.09.09 0 0 0-.04.07c.03.09.1.15.17.19l.02.01h.01l.45-.04a.12.12 0 0 1 .04.1v.01l-.36.14v.08h.01a.98.98 0 0 0 .98-.08.64.64 0 0 0 .28-.53.76.76 0 0 0-.29-.62Zm-1.07-1.65-.22-.73-.03-.02a.35.35 0 0 0-.26.23.45.45 0 0 0 .18.43c.06.05.24.17.32.1h.01Zm2.2 1.2h-.01a.07.07 0 0 0-.08.07.58.58 0 0 0-.02.12.2.2 0 0 1-.03.12l-.03.02a.18.18 0 0 1-.1-.11v-.1c.02-.1-.02-.2-.08-.28a.27.27 0 0 0-.3-.14v.01a.16.16 0 0 0-.02.07l.01.08.01.04c0 .03 0 .05-.02.07l-.02.03h-.07l-.02-.02-.02-.02a.64.64 0 0 1-.07-.2v-.03c-.05-.09-.13-.18-.21-.18h-.01l-.07.05.01.02.1.23c0 .02 0 .03-.02.03a.79.79 0 0 1-.42.1.81.81 0 0 1-.29-.35 1 1 0 0 0-.24-.33h-.07l-.12.63h.02c.2-.03.38.03.54.15.1.07.23.12.35.16.22.06.4.2.52.39l.12.15h.01c.08-.02.15 0 .22.02a.4.4 0 0 0 .38-.2l.05-.25H56l.03.03-.1.43a.64.64 0 0 0-.2.17l-.02.03h.04c.08 0 .16-.04.21-.1a.32.32 0 0 1 .09-.07.2.2 0 0 1 .03-.05.12.12 0 0 0 .04-.08.58.58 0 0 0 .04-.21.66.66 0 0 0-.24-.5Zm.35-1.39a.3.3 0 0 0-.33-.16h-.01v.5c0 .02-.02.03-.02.03-.04-.01-.04-.02-.04-.03v-.01a.31.31 0 0 1-.07-.2.53.53 0 0 0-.05-.2.5.5 0 0 0-.39-.17c-.04 0-.04.02-.04.06 0 .03.02.06.04.08a.4.4 0 0 1 .08.21v.1a.29.29 0 0 1-.14.27c-.06.04-.11.03-.16 0-.06-.01-.12-.03-.15.03l-.01.01v.01c.03.03.04.06.04.1a.2.2 0 0 1-.03.06c-.01.03-.04.07 0 .1v.01l.78.3c.28-.05.55-.13.66-.41a.8.8 0 0 0-.16-.69Zm-4.08-.24c.04.1.1.2.18.28a.85.85 0 0 0 .7.1h.02v-.02l.02-.01v-.03a.2.2 0 0 1 0-.07.3.3 0 0 0-.02-.1.53.53 0 0 1 .2-.54.25.25 0 0 1 .23-.07c.05.01.09 0 .13-.01l.02-.01-.36-.42c.02-.05.04-.08.08-.09a.85.85 0 0 1 .54.48l.08.13.01-.04.13-.42h-.02a1.4 1.4 0 0 0-.9-.44h-.01a.83.83 0 0 1-.15.04l-.19.06a1.15 1.15 0 0 0-.37.82.08.08 0 0 1-.05.02l-.18-.07a.06.06 0 0 0-.07.06l-.1.2a1 1 0 0 1 .08.15Zm2.04.74.12.08a.57.57 0 0 0 .5.16h.01l-.09-.42-.37-.05a.3.3 0 0 0-.21.14v.01c0 .02.02.08.04.08Zm.97-.15.07-.04v-.01a.14.14 0 0 0 .05-.11.37.37 0 0 0-.06-.19.57.57 0 0 0-.36-.08h-.05a.46.46 0 0 1-.07.04c-.06.02-.12.04-.14.1v.01l.55.28Zm-.76.86h.05l.05.01h.02c.04-.01.09-.02.09-.08l-.1-.26-.37-.2-.07.01.33.52Zm-1.1.04h-.03a.86.86 0 0 0 .02.5v.02l.2.06h.01l.05-.04a.11.11 0 0 0 .06-.08l-.3-.44v-.02Zm.25-.37-.04.03a.16.16 0 0 0-.07.07V51.62c0 .05 0 .11.09.12h.01l.07-.24-.06-.05ZM26.48 53.55h-.01a.3.3 0 0 0-.12.09.4.4 0 0 1-.1.08.26.26 0 0 1-.3-.1v-.48h-.18l-.2.09-.15.24c0 .01-.04.04-.07.01-.04 0-.04-.03-.05-.07a.12.12 0 0 0-.03-.08h-.01l-.2.1-.1.32-.05.01-.15-.08c-.05 0-.1.02-.13.06a.68.68 0 0 0-.2.73h.01c.01.04.02.05.07.05a.25.25 0 0 1 .09-.02l.13.28c.08.08.2.05.3 0l.03.02.07.06v.04l-.02.03-.05.06c-.06.07-.15.06-.23.04-.06 0-.1-.01-.14.02v.02a.62.62 0 0 0 .46.14.47.47 0 0 0 .28-.23c.03-.03.1-.03.16-.02h.09c.33-.03.45-.34.55-.59l.26-.13c.1-.12.16-.27.17-.42l-.03-.15a.2.2 0 0 0-.16-.12Zm-.86-1.8.01-.03c.09-.16.2-.3.34-.4l.02-.02c.01-.03.07-.2-.01-.24l-.14-.03-.14.07c-.1.2-.2.46-.1.62l.02.03Zm.56 1.85c.02 0 .03 0 .05-.02l.03-.01h.01v-.01a1.4 1.4 0 0 0 .21-1.1l-.06-.02-.16.7-.16.4.04.05h.04Zm4.29-1.51h-.01a.3.3 0 0 1-.23-.08l-.06-.28a.32.32 0 0 0-.14-.06c-.06-.02-.1-.03-.1-.07v-.01a.13.13 0 0 1-.04-.08c0-.03 0-.06.02-.1l.01-.09a.14.14 0 0 0-.03-.09h-.02l-.24.01c-.15 0-.3.03-.43.09l-.1.21-.1.05a.38.38 0 0 0-.36-.11.4.4 0 0 0-.35.18c-.04.06-.1.1-.16.13l-1.01-.2h-.01a.75.75 0 0 0-.14.14.5.5 0 0 1-.19.17.92.92 0 0 1-.91.05l-.02-.02v-.06h.25c.18.03.37 0 .53-.1a.81.81 0 0 0 .34-.61l-.01-.11c-.07-.21-.27-.28-.47-.34l-.27-.39-.3-.06-.05.01a.12.12 0 0 1-.1.01h-.01c-.3.07-.56.24-.73.5l-.02.06c-.06.15-.13.35-.01.48l.39.23v-.03a.86.86 0 0 1 .38-.63c.13-.07.28.05.3.07l.05.06c.05.05.08.11.09.18v.03l-.12.12a1 1 0 0 0-.34.61v.01l.04.1c.1.2.2.4.42.48h.02l.13-.42h.06l.04.03a.44.44 0 0 1 .18.38l.03.2.48.22.4-.19.02-.04a.43.43 0 0 1 .16-.2.1.1 0 0 1 .06.05.8.8 0 0 1-.25.43l-.11.14-.01.02.17.06.08-.05a.58.58 0 0 0 .15-.12.33.33 0 0 0 .12-.31v-.09l.01-.13h.08v.01l.12.24c.06.02.13 0 .18-.02l.04-.02a.36.36 0 0 0 .3-.25h.01l.02-.02.04-.02.07.04.05.03c.14.09.35-.04.44-.1l.02-.06c0-.06.02-.1.06-.15v-.09c0-.02.07-.08.08-.1a.7.7 0 0 0 .6.03h.05a.2.2 0 0 1 .08.06.05.05 0 0 1-.02.03v.01l-.62.14a.05.05 0 0 0-.02.04c0 .02 0 .03.02.05.14.12.32.06.5 0a.86.86 0 0 1 .36-.06l.02-.02c.05-.04.1-.1.1-.16a.08.08 0 0 0-.06-.05Zm-5.7 1.37.2-.23.41-.2v-.1a.6.6 0 0 0 0-.06.12.12 0 0 0-.06-.12h-.01l-.16.3-.05.01a.51.51 0 0 1-.4-.04.29.29 0 0 1-.02-.1c.01-.13.05-.26.1-.38.04-.08.08-.17.1-.27l-.03-.02-.09.07c-.2.18-.44.3-.7.37a.3.3 0 0 1-.03-.01c-.18-.04-.36-.07-.41-.21 0-.03.02-.06.04-.08a.6.6 0 0 1 .12.06c.07.06.16.09.24.1.22-.02.42-.1.59-.25l.03-.03a.6.6 0 0 0 .24-.45v-.02l-.63.14-.05-.01c-.08-.03-.14-.06-.16-.11l-.06-.13.06-.23a.3.3 0 0 1 .04-.05.63.63 0 0 1 .52-.19h.01l.03-.01c.02-.01.05-.02.06-.05v-.02a.1.1 0 0 0 0-.04l-.4-.07a.7.7 0 0 0-.34.15.58.58 0 0 1-.3.14h-.01a.83.83 0 0 0-.51.49.94.94 0 0 0 .3.83.9.9 0 0 0 .98.06l.04.01h.02v.06a.22.22 0 0 1-.07.07c-.24.16-.52.22-.8.17h-.16l-.01.01a.9.9 0 0 0 .04.95.46.46 0 0 0 .34.15h.06c.13 0 .28-.01.31-.12a.75.75 0 0 1 .57-.54Zm.38-1.63h-.14l-.02.01v.26h.04l.17-.19a.07.07 0 0 0-.05-.08Zm-.63-.43a.93.93 0 0 1-.2.03.22.22 0 0 0-.17.21v.01a.07.07 0 0 1 .02.05v.01h.01l.02.03.02.04.86-.16v-.04l-.48-.2-.08.02Zm.66.73-.02.02a.93.93 0 0 0-.27.74v.01a.09.09 0 0 0 .13 0l.26-.78v-.04h-.02a.11.11 0 0 0-.08.06"/>
    <path fill="var(--logo-seal-color, currentColor)" d="m41.4 34.26.06.06c.15.5.46.84.56 1.35.1.27.28.49.53.62a.54.54 0 0 0 .37-.28.64.64 0 0 1-.08-.38c-.39-.66-.39-1.53-.8-2.2-.1-.6-.54-.97-.54-1.65a7.3 7.3 0 0 0-1.09-2.03c-.48-.56-1.42-.43-2.15-.47-.19.04-.38.01-.62.04-.25.1-.5.04-.76.22a.45.45 0 0 0-.2.38l.03.06a.39.39 0 0 0 .33.1c.08-.03.12-.1.22-.16a1.77 1.77 0 0 1 1.53.17c.14.08.24.2.3.36l-.06.06a1.3 1.3 0 0 0-.32-.06.54.54 0 0 0-.43.28c-.2.26-.58.05-.8.13.1.28.32.65.1.96 0 .1.14.15.12.3a.44.44 0 0 1-.38.36.26.26 0 0 0-.03.1c.04.51.35.77.15 1.31-.15.35.05.76-.2 1.1-.22.34-.55.64-.46 1.1-.36.15-.66.41-.88.74-.53.3-.78.91-1.19 1.34-.04.1-.11.23-.05.3l.91-.21c.36-.05.4-.42.68-.6.02 0 .04.04.06.04 0 .3-.29.57-.14.85.27-.05.5-.23.81-.33.4-.11.34-.55.55-.77a.2.2 0 0 1 .19.15l-.08.2a.73.73 0 0 0 .15.66l.51-.35c.36-.22 0-.7.19-.98.02-.04.06-.04.1-.04.04 0 .06.02.06.04a.12.12 0 0 1 .04.1c-.1.15-.04.33 0 .51.12.21.3.4.51.5.07-.02.1-.03.13-.07l.1-.2-.05-.51.06-.01a.32.32 0 0 1 .16.3c.12.28.3.55.53.76.53-.34.52-.85.57-1.36h.07c.05.22.1.43.13.65.12.3.33.55.6.71.24-.15.45-.33.62-.55v-.7c-.28-.15-.5-.38-.66-.67a.4.4 0 0 1 .15-.15c.01.02.03.03.06.04.1.35.43.4.66.61.22-.15.46-.3.5-.55-.46.12-.67-.3-1-.52l-.5.51a.1.1 0 0 1-.13 0c-.1-.18-.26-.21-.43-.4-.39-.25-.27-.8-.57-1.17 0-.11-.06-.34.06-.39.05.03.08.08.1.13-.05.1.04.17.1.26.06.15.1.3.14.47a1.16 1.16 0 0 0 .7.76c.1-.05.12-.16.22-.26.39-.57-.26-.97-.25-1.53.02-.08.07-.14.13-.14"/>
    <path fill="var(--logo-seal-color, currentColor)" d="m43.16 36.35-.03.02c0 .5-.51.68-.65 1.06l-.12.07c-.08.1 0 .2 0 .32.06.29.12.5.32.63a.24.24 0 0 1 .1-.05.48.48 0 0 0 .24-.4c-.16-.24-.4-.38-.42-.69a.15.15 0 0 1 .13-.05l.26.36.4.18.13-.57c0-.09.1-.1.15-.18-.23-.24-.25-.56-.51-.7M44.38 38a5.98 5.98 0 0 0-.55-.77l-.03-.02-.13.8c0 .01 0 .04.02.06.15.33.65.26.9.46 0-.2-.15-.31-.2-.53ZM38.27 30.28c-.06 0-.12-.03-.18.01a.64.64 0 0 0-.15.2l-.1.02h-.12l-.16-.12c-.1-.13-.04-.12-.28-.12.04 0 0 .12 0 .12.1.25.23.28.63.35.06-.01.26-.1.28-.11.1-.17.17-.22.08-.35ZM34.29 38.9c-.22.1-.52-.04-.67.1l.01.35h11.54v-.4l-10.88-.04ZM45.12 39.58l-11.4-.02-.12.06v.4h11.55c.03-.16.07-.35-.03-.44M45.07 40.27H33.61c0 .15-.08.36.04.42l11.51-.02c.02-.14.04-.34-.09-.4ZM45.12 40.92H33.6c-.04.16-.1.41.01.52 1.82.04 3.6 0 5.44.04 2.07-.13 4.14.1 6.13-.14-.06-.15.04-.36-.06-.42M45.12 41.69l-11.44-.01-.03-.02c-.04.04-.08.03-.09.05l.04.4c1.34.03 2.74.03 4.15.05.27 0 .57-.02.88-.04.6.05 1.2.06 1.8.04.4-.03.79-.04 1.19-.02.16.06.27-.04.45.02 1.06-.06 2.08 0 3.1-.06l.01-.09c-.08-.1.05-.28-.06-.32M45.16 42.4l-11.48-.08c-.05.02-.1.04-.12.07l.06.5c.7.02 1.4-.01 2.11.02 3.13-.01 6.36.1 9.45-.04l-.02-.47ZM39.77 45.96c.09-.95.08-1.9 0-2.85h-.7l-.12.05-.05 8.93c.06 0 .11 0 .16.02a.74.74 0 0 0 .79.03c0-1.82-.08-3.68-.1-5.5l.02-.68ZM34.37 47.98c-.1-1.6.19-3.33-.05-4.85l-.5.02h-.14c-.03 0-.08.02-.08.06a.46.46 0 0 0 0 .45c-.07.21.02.38-.03.62-.02.3-.02.6 0 .9.05.62 0 1.24 0 1.9.05.4-.04.81 0 1.23-.1.9.09 1.8.52 2.58.08.06.23.3.3.2-.02-1.04.03-2.05-.02-3.1M36.1 43.13l-.66.02c-.05 0-.09-.02-.1 0l-.09 8.33c.02.03-.02.06 0 .06.26 0 .75.22.93.07-.07-2.79.19-5.77-.09-8.48M38.01 43.15h-.8l-.05.03a34.24 34.24 0 0 0-.03 2.53c0 .28.03.49.02.77.02.3-.01.55-.01.85.1 1.44-.22 2.99-.05 4.35.23-.06.67.2.84.02.01-2.84.24-5.76.08-8.55M41.64 43.12l-.8-.02c-.03.01-.01.06-.01.06-.02.1-.02.2 0 .3.04 2.75-.23 5.72-.07 8.38l.86-.22c-.01-.45-.08-.9-.08-1.36 0-2.38.23-4.8.1-7.14M42.6 43.15l-.02.01-.03 8.42c.23-.05.5.06.7-.08v-8.33l-.64-.02ZM45.11 43.15h-.75l-.04.01-.03 8.19a1.86 1.86 0 0 0 .83-1.3c.15-2.3.15-4.6-.01-6.9"/>
  </g>
</svg>
